%TF.GenerationSoftware,KiCad,Pcbnew,9.0.0*%
%TF.CreationDate,2025-03-23T22:31:05+01:00*%
%TF.ProjectId,logix-core,6c6f6769-782d-4636-9f72-652e6b696361,rev?*%
%TF.SameCoordinates,Original*%
%TF.FileFunction,Soldermask,Bot*%
%TF.FilePolarity,Negative*%
%FSLAX46Y46*%
G04 Gerber Fmt 4.6, Leading zero omitted, Abs format (unit mm)*
G04 Created by KiCad (PCBNEW 9.0.0) date 2025-03-23 22:31:05*
%MOMM*%
%LPD*%
G01*
G04 APERTURE LIST*
G04 APERTURE END LIST*
G36*
X142475383Y-125202098D02*
G01*
X142785659Y-125272917D01*
X143086056Y-125378030D01*
X143372794Y-125516116D01*
X143642269Y-125685438D01*
X143891092Y-125883868D01*
X144116132Y-126108908D01*
X144314562Y-126357731D01*
X144483884Y-126627206D01*
X144621970Y-126913944D01*
X144727083Y-127214341D01*
X144797902Y-127524617D01*
X144833535Y-127840872D01*
X144833535Y-128159128D01*
X144797902Y-128475383D01*
X144727083Y-128785659D01*
X144621970Y-129086056D01*
X144483884Y-129372794D01*
X144314562Y-129642269D01*
X144116132Y-129891092D01*
X143891092Y-130116132D01*
X143642269Y-130314562D01*
X143372794Y-130483884D01*
X143086056Y-130621970D01*
X142785659Y-130727083D01*
X142475383Y-130797902D01*
X142159128Y-130833535D01*
X141840872Y-130833535D01*
X141524617Y-130797902D01*
X141214341Y-130727083D01*
X140913944Y-130621970D01*
X140627206Y-130483884D01*
X140357731Y-130314562D01*
X140108908Y-130116132D01*
X139883868Y-129891092D01*
X139685438Y-129642269D01*
X139516116Y-129372794D01*
X139378030Y-129086056D01*
X139272917Y-128785659D01*
X139202098Y-128475383D01*
X139166465Y-128159128D01*
X139166465Y-127840872D01*
X139202098Y-127524617D01*
X139272917Y-127214341D01*
X139378030Y-126913944D01*
X139516116Y-126627206D01*
X139685438Y-126357731D01*
X139883868Y-126108908D01*
X140108908Y-125883868D01*
X140357731Y-125685438D01*
X140627206Y-125516116D01*
X140913944Y-125378030D01*
X141214341Y-125272917D01*
X141524617Y-125202098D01*
X141840872Y-125166465D01*
X142159128Y-125166465D01*
X142475383Y-125202098D01*
G37*
G36*
X174475383Y-125202098D02*
G01*
X174785659Y-125272917D01*
X175086056Y-125378030D01*
X175372794Y-125516116D01*
X175642269Y-125685438D01*
X175891092Y-125883868D01*
X176116132Y-126108908D01*
X176314562Y-126357731D01*
X176483884Y-126627206D01*
X176621970Y-126913944D01*
X176727083Y-127214341D01*
X176797902Y-127524617D01*
X176833535Y-127840872D01*
X176833535Y-128159128D01*
X176797902Y-128475383D01*
X176727083Y-128785659D01*
X176621970Y-129086056D01*
X176483884Y-129372794D01*
X176314562Y-129642269D01*
X176116132Y-129891092D01*
X175891092Y-130116132D01*
X175642269Y-130314562D01*
X175372794Y-130483884D01*
X175086056Y-130621970D01*
X174785659Y-130727083D01*
X174475383Y-130797902D01*
X174159128Y-130833535D01*
X173840872Y-130833535D01*
X173524617Y-130797902D01*
X173214341Y-130727083D01*
X172913944Y-130621970D01*
X172627206Y-130483884D01*
X172357731Y-130314562D01*
X172108908Y-130116132D01*
X171883868Y-129891092D01*
X171685438Y-129642269D01*
X171516116Y-129372794D01*
X171378030Y-129086056D01*
X171272917Y-128785659D01*
X171202098Y-128475383D01*
X171166465Y-128159128D01*
X171166465Y-127840872D01*
X171202098Y-127524617D01*
X171272917Y-127214341D01*
X171378030Y-126913944D01*
X171516116Y-126627206D01*
X171685438Y-126357731D01*
X171883868Y-126108908D01*
X172108908Y-125883868D01*
X172357731Y-125685438D01*
X172627206Y-125516116D01*
X172913944Y-125378030D01*
X173214341Y-125272917D01*
X173524617Y-125202098D01*
X173840872Y-125166465D01*
X174159128Y-125166465D01*
X174475383Y-125202098D01*
G37*
G36*
X198110213Y-129733923D02*
G01*
X198175323Y-129771514D01*
X198228486Y-129824677D01*
X198266077Y-129889787D01*
X198285536Y-129962408D01*
X198285536Y-130037592D01*
X198266077Y-130110213D01*
X198228486Y-130175323D01*
X198175323Y-130228486D01*
X198110213Y-130266077D01*
X198037592Y-130285536D01*
X197962408Y-130285536D01*
X197889787Y-130266077D01*
X197824677Y-130228486D01*
X197771514Y-130175323D01*
X197733923Y-130110213D01*
X197714464Y-130037592D01*
X197714464Y-129962408D01*
X197733923Y-129889787D01*
X197771514Y-129824677D01*
X197824677Y-129771514D01*
X197889787Y-129733923D01*
X197962408Y-129714464D01*
X198037592Y-129714464D01*
X198110213Y-129733923D01*
G37*
G36*
X120475383Y-124202098D02*
G01*
X120785659Y-124272917D01*
X121086056Y-124378030D01*
X121372794Y-124516116D01*
X121642269Y-124685438D01*
X121891092Y-124883868D01*
X122116132Y-125108908D01*
X122314562Y-125357731D01*
X122483884Y-125627206D01*
X122621970Y-125913944D01*
X122727083Y-126214341D01*
X122797902Y-126524617D01*
X122833535Y-126840872D01*
X122833535Y-127159128D01*
X122797902Y-127475383D01*
X122727083Y-127785659D01*
X122621970Y-128086056D01*
X122483884Y-128372794D01*
X122314562Y-128642269D01*
X122116132Y-128891092D01*
X121891092Y-129116132D01*
X121642269Y-129314562D01*
X121372794Y-129483884D01*
X121086056Y-129621970D01*
X120785659Y-129727083D01*
X120475383Y-129797902D01*
X120159128Y-129833535D01*
X119840872Y-129833535D01*
X119524617Y-129797902D01*
X119214341Y-129727083D01*
X118913944Y-129621970D01*
X118627206Y-129483884D01*
X118357731Y-129314562D01*
X118108908Y-129116132D01*
X117883868Y-128891092D01*
X117685438Y-128642269D01*
X117516116Y-128372794D01*
X117378030Y-128086056D01*
X117272917Y-127785659D01*
X117202098Y-127475383D01*
X117166465Y-127159128D01*
X117166465Y-126840872D01*
X117202098Y-126524617D01*
X117272917Y-126214341D01*
X117378030Y-125913944D01*
X117516116Y-125627206D01*
X117685438Y-125357731D01*
X117883868Y-125108908D01*
X118108908Y-124883868D01*
X118357731Y-124685438D01*
X118627206Y-124516116D01*
X118913944Y-124378030D01*
X119214341Y-124272917D01*
X119524617Y-124202098D01*
X119840872Y-124166465D01*
X120159128Y-124166465D01*
X120475383Y-124202098D01*
G37*
G36*
X208475383Y-124202098D02*
G01*
X208785659Y-124272917D01*
X209086056Y-124378030D01*
X209372794Y-124516116D01*
X209642269Y-124685438D01*
X209891092Y-124883868D01*
X210116132Y-125108908D01*
X210314562Y-125357731D01*
X210483884Y-125627206D01*
X210621970Y-125913944D01*
X210727083Y-126214341D01*
X210797902Y-126524617D01*
X210833535Y-126840872D01*
X210833535Y-127159128D01*
X210797902Y-127475383D01*
X210727083Y-127785659D01*
X210621970Y-128086056D01*
X210483884Y-128372794D01*
X210314562Y-128642269D01*
X210116132Y-128891092D01*
X209891092Y-129116132D01*
X209642269Y-129314562D01*
X209372794Y-129483884D01*
X209086056Y-129621970D01*
X208785659Y-129727083D01*
X208475383Y-129797902D01*
X208159128Y-129833535D01*
X207840872Y-129833535D01*
X207524617Y-129797902D01*
X207214341Y-129727083D01*
X206913944Y-129621970D01*
X206627206Y-129483884D01*
X206357731Y-129314562D01*
X206108908Y-129116132D01*
X205883868Y-128891092D01*
X205685438Y-128642269D01*
X205516116Y-128372794D01*
X205378030Y-128086056D01*
X205272917Y-127785659D01*
X205202098Y-127475383D01*
X205166465Y-127159128D01*
X205166465Y-126840872D01*
X205202098Y-126524617D01*
X205272917Y-126214341D01*
X205378030Y-125913944D01*
X205516116Y-125627206D01*
X205685438Y-125357731D01*
X205883868Y-125108908D01*
X206108908Y-124883868D01*
X206357731Y-124685438D01*
X206627206Y-124516116D01*
X206913944Y-124378030D01*
X207214341Y-124272917D01*
X207524617Y-124202098D01*
X207840872Y-124166465D01*
X208159128Y-124166465D01*
X208475383Y-124202098D01*
G37*
G36*
X115812535Y-121565072D02*
G01*
X115935202Y-121589472D01*
X116050751Y-121637334D01*
X116154743Y-121706819D01*
X116243181Y-121795257D01*
X116312666Y-121899249D01*
X116360528Y-122014798D01*
X116384928Y-122137465D01*
X116384928Y-122262535D01*
X116360528Y-122385202D01*
X116312666Y-122500751D01*
X116243181Y-122604743D01*
X116154743Y-122693181D01*
X116050751Y-122762666D01*
X115935202Y-122810528D01*
X115812535Y-122834928D01*
X115750000Y-122838000D01*
X115748768Y-122838000D01*
X115151232Y-122838000D01*
X115150000Y-122838000D01*
X115087465Y-122834928D01*
X114964798Y-122810528D01*
X114849249Y-122762666D01*
X114745257Y-122693181D01*
X114656819Y-122604743D01*
X114587334Y-122500751D01*
X114539472Y-122385202D01*
X114515072Y-122262535D01*
X114515072Y-122137465D01*
X114539472Y-122014798D01*
X114587334Y-121899249D01*
X114656819Y-121795257D01*
X114745257Y-121706819D01*
X114849249Y-121637334D01*
X114964798Y-121589472D01*
X115087465Y-121565072D01*
X115150000Y-121562000D01*
X115750000Y-121562000D01*
X115812535Y-121565072D01*
G37*
G36*
X148119711Y-119823714D02*
G01*
X148243601Y-119895242D01*
X148344758Y-119996399D01*
X148416286Y-120120289D01*
X148453312Y-120258472D01*
X148453312Y-120401528D01*
X148416286Y-120539711D01*
X148344758Y-120663601D01*
X148243601Y-120764758D01*
X148119711Y-120836286D01*
X147981528Y-120873312D01*
X147838472Y-120873312D01*
X147700289Y-120836286D01*
X147576399Y-120764758D01*
X147475242Y-120663601D01*
X147403714Y-120539711D01*
X147366688Y-120401528D01*
X147366688Y-120258472D01*
X147403714Y-120120289D01*
X147475242Y-119996399D01*
X147576399Y-119895242D01*
X147700289Y-119823714D01*
X147838472Y-119786688D01*
X147981528Y-119786688D01*
X148119711Y-119823714D01*
G37*
G36*
X168249711Y-119823714D02*
G01*
X168373601Y-119895242D01*
X168474758Y-119996399D01*
X168546286Y-120120289D01*
X168583312Y-120258472D01*
X168583312Y-120401528D01*
X168546286Y-120539711D01*
X168474758Y-120663601D01*
X168373601Y-120764758D01*
X168249711Y-120836286D01*
X168111528Y-120873312D01*
X167968472Y-120873312D01*
X167830289Y-120836286D01*
X167706399Y-120764758D01*
X167605242Y-120663601D01*
X167533714Y-120539711D01*
X167496688Y-120401528D01*
X167496688Y-120258472D01*
X167533714Y-120120289D01*
X167605242Y-119996399D01*
X167706399Y-119895242D01*
X167830289Y-119823714D01*
X167968472Y-119786688D01*
X168111528Y-119786688D01*
X168249711Y-119823714D01*
G37*
G36*
X142475383Y-113202098D02*
G01*
X142785659Y-113272917D01*
X143086056Y-113378030D01*
X143372794Y-113516116D01*
X143642269Y-113685438D01*
X143891092Y-113883868D01*
X144116132Y-114108908D01*
X144314562Y-114357731D01*
X144483884Y-114627206D01*
X144621970Y-114913944D01*
X144727083Y-115214341D01*
X144797902Y-115524617D01*
X144833535Y-115840872D01*
X144833535Y-116159128D01*
X144797902Y-116475383D01*
X144727083Y-116785659D01*
X144621970Y-117086056D01*
X144483884Y-117372794D01*
X144314562Y-117642269D01*
X144116132Y-117891092D01*
X143891092Y-118116132D01*
X143642269Y-118314562D01*
X143372794Y-118483884D01*
X143086056Y-118621970D01*
X142785659Y-118727083D01*
X142475383Y-118797902D01*
X142159128Y-118833535D01*
X141840872Y-118833535D01*
X141524617Y-118797902D01*
X141214341Y-118727083D01*
X140913944Y-118621970D01*
X140627206Y-118483884D01*
X140357731Y-118314562D01*
X140108908Y-118116132D01*
X139883868Y-117891092D01*
X139685438Y-117642269D01*
X139516116Y-117372794D01*
X139378030Y-117086056D01*
X139272917Y-116785659D01*
X139202098Y-116475383D01*
X139166465Y-116159128D01*
X139166465Y-115840872D01*
X139202098Y-115524617D01*
X139272917Y-115214341D01*
X139378030Y-114913944D01*
X139516116Y-114627206D01*
X139685438Y-114357731D01*
X139883868Y-114108908D01*
X140108908Y-113883868D01*
X140357731Y-113685438D01*
X140627206Y-113516116D01*
X140913944Y-113378030D01*
X141214341Y-113272917D01*
X141524617Y-113202098D01*
X141840872Y-113166465D01*
X142159128Y-113166465D01*
X142475383Y-113202098D01*
G37*
G36*
X174475383Y-113202098D02*
G01*
X174785659Y-113272917D01*
X175086056Y-113378030D01*
X175372794Y-113516116D01*
X175642269Y-113685438D01*
X175891092Y-113883868D01*
X176116132Y-114108908D01*
X176314562Y-114357731D01*
X176483884Y-114627206D01*
X176621970Y-114913944D01*
X176727083Y-115214341D01*
X176797902Y-115524617D01*
X176833535Y-115840872D01*
X176833535Y-116159128D01*
X176797902Y-116475383D01*
X176727083Y-116785659D01*
X176621970Y-117086056D01*
X176483884Y-117372794D01*
X176314562Y-117642269D01*
X176116132Y-117891092D01*
X175891092Y-118116132D01*
X175642269Y-118314562D01*
X175372794Y-118483884D01*
X175086056Y-118621970D01*
X174785659Y-118727083D01*
X174475383Y-118797902D01*
X174159128Y-118833535D01*
X173840872Y-118833535D01*
X173524617Y-118797902D01*
X173214341Y-118727083D01*
X172913944Y-118621970D01*
X172627206Y-118483884D01*
X172357731Y-118314562D01*
X172108908Y-118116132D01*
X171883868Y-117891092D01*
X171685438Y-117642269D01*
X171516116Y-117372794D01*
X171378030Y-117086056D01*
X171272917Y-116785659D01*
X171202098Y-116475383D01*
X171166465Y-116159128D01*
X171166465Y-115840872D01*
X171202098Y-115524617D01*
X171272917Y-115214341D01*
X171378030Y-114913944D01*
X171516116Y-114627206D01*
X171685438Y-114357731D01*
X171883868Y-114108908D01*
X172108908Y-113883868D01*
X172357731Y-113685438D01*
X172627206Y-113516116D01*
X172913944Y-113378030D01*
X173214341Y-113272917D01*
X173524617Y-113202098D01*
X173840872Y-113166465D01*
X174159128Y-113166465D01*
X174475383Y-113202098D01*
G37*
G36*
X115812535Y-115165072D02*
G01*
X115935202Y-115189472D01*
X116050751Y-115237334D01*
X116154743Y-115306819D01*
X116243181Y-115395257D01*
X116312666Y-115499249D01*
X116360528Y-115614798D01*
X116384928Y-115737465D01*
X116384928Y-115862535D01*
X116360528Y-115985202D01*
X116312666Y-116100751D01*
X116243181Y-116204743D01*
X116154743Y-116293181D01*
X116050751Y-116362666D01*
X115935202Y-116410528D01*
X115812535Y-116434928D01*
X115750000Y-116438000D01*
X115748768Y-116438000D01*
X115151232Y-116438000D01*
X115150000Y-116438000D01*
X115087465Y-116434928D01*
X114964798Y-116410528D01*
X114849249Y-116362666D01*
X114745257Y-116293181D01*
X114656819Y-116204743D01*
X114587334Y-116100751D01*
X114539472Y-115985202D01*
X114515072Y-115862535D01*
X114515072Y-115737465D01*
X114539472Y-115614798D01*
X114587334Y-115499249D01*
X114656819Y-115395257D01*
X114745257Y-115306819D01*
X114849249Y-115237334D01*
X114964798Y-115189472D01*
X115087465Y-115165072D01*
X115150000Y-115162000D01*
X115750000Y-115162000D01*
X115812535Y-115165072D01*
G37*
G36*
X119735914Y-82222295D02*
G01*
X119883104Y-82283263D01*
X120015571Y-82371774D01*
X120128226Y-82484429D01*
X120216737Y-82616896D01*
X120277705Y-82764086D01*
X120308787Y-82920341D01*
X120308787Y-83079659D01*
X120277705Y-83235914D01*
X120216737Y-83383104D01*
X120128226Y-83515571D01*
X120015571Y-83628226D01*
X119883104Y-83716737D01*
X119735914Y-83777705D01*
X119579659Y-83808787D01*
X119420341Y-83808787D01*
X119264086Y-83777705D01*
X119116896Y-83716737D01*
X118984429Y-83628226D01*
X118871774Y-83515571D01*
X118783263Y-83383104D01*
X118722295Y-83235914D01*
X118691213Y-83079659D01*
X118691213Y-82920341D01*
X118722295Y-82764086D01*
X118783263Y-82616896D01*
X118871774Y-82484429D01*
X118984429Y-82371774D01*
X119116896Y-82283263D01*
X119264086Y-82222295D01*
X119420341Y-82191213D01*
X119579659Y-82191213D01*
X119735914Y-82222295D01*
G37*
G36*
X119735914Y-72222295D02*
G01*
X119883104Y-72283263D01*
X120015571Y-72371774D01*
X120128226Y-72484429D01*
X120216737Y-72616896D01*
X120277705Y-72764086D01*
X120308787Y-72920341D01*
X120308787Y-73079659D01*
X120277705Y-73235914D01*
X120216737Y-73383104D01*
X120128226Y-73515571D01*
X120015571Y-73628226D01*
X119883104Y-73716737D01*
X119735914Y-73777705D01*
X119579659Y-73808787D01*
X119420341Y-73808787D01*
X119264086Y-73777705D01*
X119116896Y-73716737D01*
X118984429Y-73628226D01*
X118871774Y-73515571D01*
X118783263Y-73383104D01*
X118722295Y-73235914D01*
X118691213Y-73079659D01*
X118691213Y-72920341D01*
X118722295Y-72764086D01*
X118783263Y-72616896D01*
X118871774Y-72484429D01*
X118984429Y-72371774D01*
X119116896Y-72283263D01*
X119264086Y-72222295D01*
X119420341Y-72191213D01*
X119579659Y-72191213D01*
X119735914Y-72222295D01*
G37*
G36*
X142475383Y-67202098D02*
G01*
X142785659Y-67272917D01*
X143086056Y-67378030D01*
X143372794Y-67516116D01*
X143642269Y-67685438D01*
X143891092Y-67883868D01*
X144116132Y-68108908D01*
X144314562Y-68357731D01*
X144483884Y-68627206D01*
X144621970Y-68913944D01*
X144727083Y-69214341D01*
X144797902Y-69524617D01*
X144833535Y-69840872D01*
X144833535Y-70159128D01*
X144797902Y-70475383D01*
X144727083Y-70785659D01*
X144621970Y-71086056D01*
X144483884Y-71372794D01*
X144314562Y-71642269D01*
X144116132Y-71891092D01*
X143891092Y-72116132D01*
X143642269Y-72314562D01*
X143372794Y-72483884D01*
X143086056Y-72621970D01*
X142785659Y-72727083D01*
X142475383Y-72797902D01*
X142159128Y-72833535D01*
X141840872Y-72833535D01*
X141524617Y-72797902D01*
X141214341Y-72727083D01*
X140913944Y-72621970D01*
X140627206Y-72483884D01*
X140357731Y-72314562D01*
X140108908Y-72116132D01*
X139883868Y-71891092D01*
X139685438Y-71642269D01*
X139516116Y-71372794D01*
X139378030Y-71086056D01*
X139272917Y-70785659D01*
X139202098Y-70475383D01*
X139166465Y-70159128D01*
X139166465Y-69840872D01*
X139202098Y-69524617D01*
X139272917Y-69214341D01*
X139378030Y-68913944D01*
X139516116Y-68627206D01*
X139685438Y-68357731D01*
X139883868Y-68108908D01*
X140108908Y-67883868D01*
X140357731Y-67685438D01*
X140627206Y-67516116D01*
X140913944Y-67378030D01*
X141214341Y-67272917D01*
X141524617Y-67202098D01*
X141840872Y-67166465D01*
X142159128Y-67166465D01*
X142475383Y-67202098D01*
G37*
G36*
X174475383Y-67202098D02*
G01*
X174785659Y-67272917D01*
X175086056Y-67378030D01*
X175372794Y-67516116D01*
X175642269Y-67685438D01*
X175891092Y-67883868D01*
X176116132Y-68108908D01*
X176314562Y-68357731D01*
X176483884Y-68627206D01*
X176621970Y-68913944D01*
X176727083Y-69214341D01*
X176797902Y-69524617D01*
X176833535Y-69840872D01*
X176833535Y-70159128D01*
X176797902Y-70475383D01*
X176727083Y-70785659D01*
X176621970Y-71086056D01*
X176483884Y-71372794D01*
X176314562Y-71642269D01*
X176116132Y-71891092D01*
X175891092Y-72116132D01*
X175642269Y-72314562D01*
X175372794Y-72483884D01*
X175086056Y-72621970D01*
X174785659Y-72727083D01*
X174475383Y-72797902D01*
X174159128Y-72833535D01*
X173840872Y-72833535D01*
X173524617Y-72797902D01*
X173214341Y-72727083D01*
X172913944Y-72621970D01*
X172627206Y-72483884D01*
X172357731Y-72314562D01*
X172108908Y-72116132D01*
X171883868Y-71891092D01*
X171685438Y-71642269D01*
X171516116Y-71372794D01*
X171378030Y-71086056D01*
X171272917Y-70785659D01*
X171202098Y-70475383D01*
X171166465Y-70159128D01*
X171166465Y-69840872D01*
X171202098Y-69524617D01*
X171272917Y-69214341D01*
X171378030Y-68913944D01*
X171516116Y-68627206D01*
X171685438Y-68357731D01*
X171883868Y-68108908D01*
X172108908Y-67883868D01*
X172357731Y-67685438D01*
X172627206Y-67516116D01*
X172913944Y-67378030D01*
X173214341Y-67272917D01*
X173524617Y-67202098D01*
X173840872Y-67166465D01*
X174159128Y-67166465D01*
X174475383Y-67202098D01*
G37*
G36*
X119975383Y-62702098D02*
G01*
X120285659Y-62772917D01*
X120586056Y-62878030D01*
X120872794Y-63016116D01*
X121142269Y-63185438D01*
X121391092Y-63383868D01*
X121616132Y-63608908D01*
X121814562Y-63857731D01*
X121983884Y-64127206D01*
X122121970Y-64413944D01*
X122227083Y-64714341D01*
X122297902Y-65024617D01*
X122333535Y-65340872D01*
X122333535Y-65659128D01*
X122297902Y-65975383D01*
X122227083Y-66285659D01*
X122121970Y-66586056D01*
X121983884Y-66872794D01*
X121814562Y-67142269D01*
X121616132Y-67391092D01*
X121391092Y-67616132D01*
X121142269Y-67814562D01*
X120872794Y-67983884D01*
X120586056Y-68121970D01*
X120285659Y-68227083D01*
X119975383Y-68297902D01*
X119659128Y-68333535D01*
X119340872Y-68333535D01*
X119024617Y-68297902D01*
X118714341Y-68227083D01*
X118413944Y-68121970D01*
X118127206Y-67983884D01*
X117857731Y-67814562D01*
X117608908Y-67616132D01*
X117383868Y-67391092D01*
X117185438Y-67142269D01*
X117016116Y-66872794D01*
X116878030Y-66586056D01*
X116772917Y-66285659D01*
X116702098Y-65975383D01*
X116666465Y-65659128D01*
X116666465Y-65340872D01*
X116702098Y-65024617D01*
X116772917Y-64714341D01*
X116878030Y-64413944D01*
X117016116Y-64127206D01*
X117185438Y-63857731D01*
X117383868Y-63608908D01*
X117608908Y-63383868D01*
X117857731Y-63185438D01*
X118127206Y-63016116D01*
X118413944Y-62878030D01*
X118714341Y-62772917D01*
X119024617Y-62702098D01*
X119340872Y-62666465D01*
X119659128Y-62666465D01*
X119975383Y-62702098D01*
G37*
G36*
X127110213Y-62733923D02*
G01*
X127175323Y-62771514D01*
X127228486Y-62824677D01*
X127266077Y-62889787D01*
X127285536Y-62962408D01*
X127285536Y-63037592D01*
X127266077Y-63110213D01*
X127228486Y-63175323D01*
X127175323Y-63228486D01*
X127110213Y-63266077D01*
X127037592Y-63285536D01*
X126962408Y-63285536D01*
X126889787Y-63266077D01*
X126824677Y-63228486D01*
X126771514Y-63175323D01*
X126733923Y-63110213D01*
X126714464Y-63037592D01*
X126714464Y-62962408D01*
X126733923Y-62889787D01*
X126771514Y-62824677D01*
X126824677Y-62771514D01*
X126889787Y-62733923D01*
X126962408Y-62714464D01*
X127037592Y-62714464D01*
X127110213Y-62733923D01*
G37*
G36*
X208475383Y-56202098D02*
G01*
X208785659Y-56272917D01*
X209086056Y-56378030D01*
X209372794Y-56516116D01*
X209642269Y-56685438D01*
X209891092Y-56883868D01*
X210116132Y-57108908D01*
X210314562Y-57357731D01*
X210483884Y-57627206D01*
X210621970Y-57913944D01*
X210727083Y-58214341D01*
X210797902Y-58524617D01*
X210833535Y-58840872D01*
X210833535Y-59159128D01*
X210797902Y-59475383D01*
X210727083Y-59785659D01*
X210621970Y-60086056D01*
X210483884Y-60372794D01*
X210314562Y-60642269D01*
X210116132Y-60891092D01*
X209891092Y-61116132D01*
X209642269Y-61314562D01*
X209372794Y-61483884D01*
X209086056Y-61621970D01*
X208785659Y-61727083D01*
X208475383Y-61797902D01*
X208159128Y-61833535D01*
X207840872Y-61833535D01*
X207524617Y-61797902D01*
X207214341Y-61727083D01*
X206913944Y-61621970D01*
X206627206Y-61483884D01*
X206357731Y-61314562D01*
X206108908Y-61116132D01*
X205883868Y-60891092D01*
X205685438Y-60642269D01*
X205516116Y-60372794D01*
X205378030Y-60086056D01*
X205272917Y-59785659D01*
X205202098Y-59475383D01*
X205166465Y-59159128D01*
X205166465Y-58840872D01*
X205202098Y-58524617D01*
X205272917Y-58214341D01*
X205378030Y-57913944D01*
X205516116Y-57627206D01*
X205685438Y-57357731D01*
X205883868Y-57108908D01*
X206108908Y-56883868D01*
X206357731Y-56685438D01*
X206627206Y-56516116D01*
X206913944Y-56378030D01*
X207214341Y-56272917D01*
X207524617Y-56202098D01*
X207840872Y-56166465D01*
X208159128Y-56166465D01*
X208475383Y-56202098D01*
G37*
G36*
X148119711Y-59823714D02*
G01*
X148243601Y-59895242D01*
X148344758Y-59996399D01*
X148416286Y-60120289D01*
X148453312Y-60258472D01*
X148453312Y-60401528D01*
X148416286Y-60539711D01*
X148344758Y-60663601D01*
X148243601Y-60764758D01*
X148119711Y-60836286D01*
X147981528Y-60873312D01*
X147838472Y-60873312D01*
X147700289Y-60836286D01*
X147576399Y-60764758D01*
X147475242Y-60663601D01*
X147403714Y-60539711D01*
X147366688Y-60401528D01*
X147366688Y-60258472D01*
X147403714Y-60120289D01*
X147475242Y-59996399D01*
X147576399Y-59895242D01*
X147700289Y-59823714D01*
X147838472Y-59786688D01*
X147981528Y-59786688D01*
X148119711Y-59823714D01*
G37*
G36*
X168249711Y-59823714D02*
G01*
X168373601Y-59895242D01*
X168474758Y-59996399D01*
X168546286Y-60120289D01*
X168583312Y-60258472D01*
X168583312Y-60401528D01*
X168546286Y-60539711D01*
X168474758Y-60663601D01*
X168373601Y-60764758D01*
X168249711Y-60836286D01*
X168111528Y-60873312D01*
X167968472Y-60873312D01*
X167830289Y-60836286D01*
X167706399Y-60764758D01*
X167605242Y-60663601D01*
X167533714Y-60539711D01*
X167496688Y-60401528D01*
X167496688Y-60258472D01*
X167533714Y-60120289D01*
X167605242Y-59996399D01*
X167706399Y-59895242D01*
X167830289Y-59823714D01*
X167968472Y-59786688D01*
X168111528Y-59786688D01*
X168249711Y-59823714D01*
G37*
G36*
X142475383Y-55202098D02*
G01*
X142785659Y-55272917D01*
X143086056Y-55378030D01*
X143372794Y-55516116D01*
X143642269Y-55685438D01*
X143891092Y-55883868D01*
X144116132Y-56108908D01*
X144314562Y-56357731D01*
X144483884Y-56627206D01*
X144621970Y-56913944D01*
X144727083Y-57214341D01*
X144797902Y-57524617D01*
X144833535Y-57840872D01*
X144833535Y-58159128D01*
X144797902Y-58475383D01*
X144727083Y-58785659D01*
X144621970Y-59086056D01*
X144483884Y-59372794D01*
X144314562Y-59642269D01*
X144116132Y-59891092D01*
X143891092Y-60116132D01*
X143642269Y-60314562D01*
X143372794Y-60483884D01*
X143086056Y-60621970D01*
X142785659Y-60727083D01*
X142475383Y-60797902D01*
X142159128Y-60833535D01*
X141840872Y-60833535D01*
X141524617Y-60797902D01*
X141214341Y-60727083D01*
X140913944Y-60621970D01*
X140627206Y-60483884D01*
X140357731Y-60314562D01*
X140108908Y-60116132D01*
X139883868Y-59891092D01*
X139685438Y-59642269D01*
X139516116Y-59372794D01*
X139378030Y-59086056D01*
X139272917Y-58785659D01*
X139202098Y-58475383D01*
X139166465Y-58159128D01*
X139166465Y-57840872D01*
X139202098Y-57524617D01*
X139272917Y-57214341D01*
X139378030Y-56913944D01*
X139516116Y-56627206D01*
X139685438Y-56357731D01*
X139883868Y-56108908D01*
X140108908Y-55883868D01*
X140357731Y-55685438D01*
X140627206Y-55516116D01*
X140913944Y-55378030D01*
X141214341Y-55272917D01*
X141524617Y-55202098D01*
X141840872Y-55166465D01*
X142159128Y-55166465D01*
X142475383Y-55202098D01*
G37*
G36*
X174475383Y-55202098D02*
G01*
X174785659Y-55272917D01*
X175086056Y-55378030D01*
X175372794Y-55516116D01*
X175642269Y-55685438D01*
X175891092Y-55883868D01*
X176116132Y-56108908D01*
X176314562Y-56357731D01*
X176483884Y-56627206D01*
X176621970Y-56913944D01*
X176727083Y-57214341D01*
X176797902Y-57524617D01*
X176833535Y-57840872D01*
X176833535Y-58159128D01*
X176797902Y-58475383D01*
X176727083Y-58785659D01*
X176621970Y-59086056D01*
X176483884Y-59372794D01*
X176314562Y-59642269D01*
X176116132Y-59891092D01*
X175891092Y-60116132D01*
X175642269Y-60314562D01*
X175372794Y-60483884D01*
X175086056Y-60621970D01*
X174785659Y-60727083D01*
X174475383Y-60797902D01*
X174159128Y-60833535D01*
X173840872Y-60833535D01*
X173524617Y-60797902D01*
X173214341Y-60727083D01*
X172913944Y-60621970D01*
X172627206Y-60483884D01*
X172357731Y-60314562D01*
X172108908Y-60116132D01*
X171883868Y-59891092D01*
X171685438Y-59642269D01*
X171516116Y-59372794D01*
X171378030Y-59086056D01*
X171272917Y-58785659D01*
X171202098Y-58475383D01*
X171166465Y-58159128D01*
X171166465Y-57840872D01*
X171202098Y-57524617D01*
X171272917Y-57214341D01*
X171378030Y-56913944D01*
X171516116Y-56627206D01*
X171685438Y-56357731D01*
X171883868Y-56108908D01*
X172108908Y-55883868D01*
X172357731Y-55685438D01*
X172627206Y-55516116D01*
X172913944Y-55378030D01*
X173214341Y-55272917D01*
X173524617Y-55202098D01*
X173840872Y-55166465D01*
X174159128Y-55166465D01*
X174475383Y-55202098D01*
G37*
M02*
