%TF.GenerationSoftware,KiCad,Pcbnew,9.0.0*%
%TF.CreationDate,2025-03-23T22:31:05+01:00*%
%TF.ProjectId,logix-core,6c6f6769-782d-4636-9f72-652e6b696361,rev?*%
%TF.SameCoordinates,Original*%
%TF.FileFunction,Legend,Bot*%
%TF.FilePolarity,Positive*%
%FSLAX46Y46*%
G04 Gerber Fmt 4.6, Leading zero omitted, Abs format (unit mm)*
G04 Created by KiCad (PCBNEW 9.0.0) date 2025-03-23 22:31:05*
%MOMM*%
%LPD*%
G01*
G04 APERTURE LIST*
%ADD10C,0.150000*%
%ADD11C,0.508000*%
%ADD12C,1.625400*%
%ADD13C,5.676000*%
%ADD14O,1.876000X1.276000*%
%ADD15C,1.096000*%
%ADD16C,0.576000*%
G04 APERTURE END LIST*
D10*
X128071428Y-64431009D02*
X128404761Y-64431009D01*
X128404761Y-64954819D02*
X128404761Y-63954819D01*
X128404761Y-63954819D02*
X127928571Y-63954819D01*
X127547618Y-64954819D02*
X127547618Y-63954819D01*
X127071428Y-64954819D02*
X127071428Y-63954819D01*
X127071428Y-63954819D02*
X126833333Y-63954819D01*
X126833333Y-63954819D02*
X126690476Y-64002438D01*
X126690476Y-64002438D02*
X126595238Y-64097676D01*
X126595238Y-64097676D02*
X126547619Y-64192914D01*
X126547619Y-64192914D02*
X126500000Y-64383390D01*
X126500000Y-64383390D02*
X126500000Y-64526247D01*
X126500000Y-64526247D02*
X126547619Y-64716723D01*
X126547619Y-64716723D02*
X126595238Y-64811961D01*
X126595238Y-64811961D02*
X126690476Y-64907200D01*
X126690476Y-64907200D02*
X126833333Y-64954819D01*
X126833333Y-64954819D02*
X127071428Y-64954819D01*
X126119047Y-64050057D02*
X126071428Y-64002438D01*
X126071428Y-64002438D02*
X125976190Y-63954819D01*
X125976190Y-63954819D02*
X125738095Y-63954819D01*
X125738095Y-63954819D02*
X125642857Y-64002438D01*
X125642857Y-64002438D02*
X125595238Y-64050057D01*
X125595238Y-64050057D02*
X125547619Y-64145295D01*
X125547619Y-64145295D02*
X125547619Y-64240533D01*
X125547619Y-64240533D02*
X125595238Y-64383390D01*
X125595238Y-64383390D02*
X126166666Y-64954819D01*
X126166666Y-64954819D02*
X125547619Y-64954819D01*
X199071428Y-131431009D02*
X199404761Y-131431009D01*
X199404761Y-131954819D02*
X199404761Y-130954819D01*
X199404761Y-130954819D02*
X198928571Y-130954819D01*
X198547618Y-131954819D02*
X198547618Y-130954819D01*
X198071428Y-131954819D02*
X198071428Y-130954819D01*
X198071428Y-130954819D02*
X197833333Y-130954819D01*
X197833333Y-130954819D02*
X197690476Y-131002438D01*
X197690476Y-131002438D02*
X197595238Y-131097676D01*
X197595238Y-131097676D02*
X197547619Y-131192914D01*
X197547619Y-131192914D02*
X197500000Y-131383390D01*
X197500000Y-131383390D02*
X197500000Y-131526247D01*
X197500000Y-131526247D02*
X197547619Y-131716723D01*
X197547619Y-131716723D02*
X197595238Y-131811961D01*
X197595238Y-131811961D02*
X197690476Y-131907200D01*
X197690476Y-131907200D02*
X197833333Y-131954819D01*
X197833333Y-131954819D02*
X198071428Y-131954819D01*
X196642857Y-131288152D02*
X196642857Y-131954819D01*
X196880952Y-130907200D02*
X197119047Y-131621485D01*
X197119047Y-131621485D02*
X196500000Y-131621485D01*
X123245180Y-103418414D02*
X123245180Y-102846986D01*
X123245180Y-103132700D02*
X124245180Y-103132700D01*
X124245180Y-103132700D02*
X124102323Y-103037462D01*
X124102323Y-103037462D02*
X124007085Y-102942224D01*
X124007085Y-102942224D02*
X123959466Y-102846986D01*
X116845180Y-102942224D02*
X116845180Y-103132700D01*
X116845180Y-103132700D02*
X116892800Y-103227938D01*
X116892800Y-103227938D02*
X116940419Y-103275557D01*
X116940419Y-103275557D02*
X117083276Y-103370795D01*
X117083276Y-103370795D02*
X117273752Y-103418414D01*
X117273752Y-103418414D02*
X117654704Y-103418414D01*
X117654704Y-103418414D02*
X117749942Y-103370795D01*
X117749942Y-103370795D02*
X117797561Y-103323176D01*
X117797561Y-103323176D02*
X117845180Y-103227938D01*
X117845180Y-103227938D02*
X117845180Y-103037462D01*
X117845180Y-103037462D02*
X117797561Y-102942224D01*
X117797561Y-102942224D02*
X117749942Y-102894605D01*
X117749942Y-102894605D02*
X117654704Y-102846986D01*
X117654704Y-102846986D02*
X117416609Y-102846986D01*
X117416609Y-102846986D02*
X117321371Y-102894605D01*
X117321371Y-102894605D02*
X117273752Y-102942224D01*
X117273752Y-102942224D02*
X117226133Y-103037462D01*
X117226133Y-103037462D02*
X117226133Y-103227938D01*
X117226133Y-103227938D02*
X117273752Y-103323176D01*
X117273752Y-103323176D02*
X117321371Y-103370795D01*
X117321371Y-103370795D02*
X117416609Y-103418414D01*
X125421213Y-90045181D02*
X124849785Y-90045181D01*
X125135499Y-89045181D02*
X125135499Y-90045181D01*
X125373594Y-101330895D02*
X124897404Y-101330895D01*
X125468832Y-101045180D02*
X125135499Y-102045180D01*
X125135499Y-102045180D02*
X124802166Y-101045180D01*
D11*
%TO.C,J3*%
X122011000Y-87093200D02*
G75*
G02*
X121249000Y-87093200I-381000J0D01*
G01*
X121249000Y-87093200D02*
G75*
G02*
X122011000Y-87093200I381000J0D01*
G01*
%TD*%
%LPC*%
D12*
%TO.C,J3*%
X119500000Y-83000000D03*
X119500000Y-73000000D03*
%TD*%
D13*
%TO.C,H6*%
X174000000Y-58000000D03*
%TD*%
D14*
%TO.C,USB1*%
X115450000Y-122200000D03*
X115450000Y-115800000D03*
%TD*%
D13*
%TO.C,H8*%
X174000000Y-70000000D03*
%TD*%
%TO.C,H4*%
X174000000Y-116000000D03*
%TD*%
%TO.C,H2*%
X174000000Y-128000000D03*
%TD*%
D15*
%TO.C,J1*%
X147910000Y-120330000D03*
X168040000Y-120330000D03*
%TD*%
D13*
%TO.C,H1*%
X142000000Y-128000000D03*
%TD*%
%TO.C,H9*%
X208000000Y-59000000D03*
%TD*%
%TO.C,H7*%
X142000000Y-70000000D03*
%TD*%
%TO.C,H10*%
X208000000Y-127000000D03*
%TD*%
%TO.C,H3*%
X142000000Y-116000000D03*
%TD*%
%TO.C,H11*%
X120000000Y-127000000D03*
%TD*%
D15*
%TO.C,J2*%
X147910000Y-60330000D03*
X168040000Y-60330000D03*
%TD*%
D13*
%TO.C,H12*%
X119500000Y-65500000D03*
%TD*%
%TO.C,H5*%
X142000000Y-58000000D03*
%TD*%
D16*
%TO.C,FID2*%
X127000000Y-63000000D03*
%TD*%
%TO.C,FID4*%
X198000000Y-130000000D03*
%TD*%
%LPD*%
M02*
