%TF.GenerationSoftware,KiCad,Pcbnew,9.0.0*%
%TF.CreationDate,2025-03-03T17:37:00+01:00*%
%TF.ProjectId,logix-core,6c6f6769-782d-4636-9f72-652e6b696361,rev?*%
%TF.SameCoordinates,Original*%
%TF.FileFunction,Soldermask,Bot*%
%TF.FilePolarity,Negative*%
%FSLAX46Y46*%
G04 Gerber Fmt 4.6, Leading zero omitted, Abs format (unit mm)*
G04 Created by KiCad (PCBNEW 9.0.0) date 2025-03-03 17:37:00*
%MOMM*%
%LPD*%
G01*
G04 APERTURE LIST*
G04 APERTURE END LIST*
G36*
X172119711Y-164823714D02*
G01*
X172243601Y-164895242D01*
X172344758Y-164996399D01*
X172416286Y-165120289D01*
X172453312Y-165258472D01*
X172453312Y-165401528D01*
X172416286Y-165539711D01*
X172344758Y-165663601D01*
X172243601Y-165764758D01*
X172119711Y-165836286D01*
X171981528Y-165873312D01*
X171838472Y-165873312D01*
X171700289Y-165836286D01*
X171576399Y-165764758D01*
X171475242Y-165663601D01*
X171403714Y-165539711D01*
X171366688Y-165401528D01*
X171366688Y-165258472D01*
X171403714Y-165120289D01*
X171475242Y-164996399D01*
X171576399Y-164895242D01*
X171700289Y-164823714D01*
X171838472Y-164786688D01*
X171981528Y-164786688D01*
X172119711Y-164823714D01*
G37*
G36*
X192249711Y-164823714D02*
G01*
X192373601Y-164895242D01*
X192474758Y-164996399D01*
X192546286Y-165120289D01*
X192583312Y-165258472D01*
X192583312Y-165401528D01*
X192546286Y-165539711D01*
X192474758Y-165663601D01*
X192373601Y-165764758D01*
X192249711Y-165836286D01*
X192111528Y-165873312D01*
X191968472Y-165873312D01*
X191830289Y-165836286D01*
X191706399Y-165764758D01*
X191605242Y-165663601D01*
X191533714Y-165539711D01*
X191496688Y-165401528D01*
X191496688Y-165258472D01*
X191533714Y-165120289D01*
X191605242Y-164996399D01*
X191706399Y-164895242D01*
X191830289Y-164823714D01*
X191968472Y-164786688D01*
X192111528Y-164786688D01*
X192249711Y-164823714D01*
G37*
G36*
X150235914Y-139222295D02*
G01*
X150383104Y-139283263D01*
X150515571Y-139371774D01*
X150628226Y-139484429D01*
X150716737Y-139616896D01*
X150777705Y-139764086D01*
X150808787Y-139920341D01*
X150808787Y-140079659D01*
X150777705Y-140235914D01*
X150716737Y-140383104D01*
X150628226Y-140515571D01*
X150515571Y-140628226D01*
X150383104Y-140716737D01*
X150235914Y-140777705D01*
X150079659Y-140808787D01*
X149920341Y-140808787D01*
X149764086Y-140777705D01*
X149616896Y-140716737D01*
X149484429Y-140628226D01*
X149371774Y-140515571D01*
X149283263Y-140383104D01*
X149222295Y-140235914D01*
X149191213Y-140079659D01*
X149191213Y-139920341D01*
X149222295Y-139764086D01*
X149283263Y-139616896D01*
X149371774Y-139484429D01*
X149484429Y-139371774D01*
X149616896Y-139283263D01*
X149764086Y-139222295D01*
X149920341Y-139191213D01*
X150079659Y-139191213D01*
X150235914Y-139222295D01*
G37*
G36*
X160235914Y-139222295D02*
G01*
X160383104Y-139283263D01*
X160515571Y-139371774D01*
X160628226Y-139484429D01*
X160716737Y-139616896D01*
X160777705Y-139764086D01*
X160808787Y-139920341D01*
X160808787Y-140079659D01*
X160777705Y-140235914D01*
X160716737Y-140383104D01*
X160628226Y-140515571D01*
X160515571Y-140628226D01*
X160383104Y-140716737D01*
X160235914Y-140777705D01*
X160079659Y-140808787D01*
X159920341Y-140808787D01*
X159764086Y-140777705D01*
X159616896Y-140716737D01*
X159484429Y-140628226D01*
X159371774Y-140515571D01*
X159283263Y-140383104D01*
X159222295Y-140235914D01*
X159191213Y-140079659D01*
X159191213Y-139920341D01*
X159222295Y-139764086D01*
X159283263Y-139616896D01*
X159371774Y-139484429D01*
X159484429Y-139371774D01*
X159616896Y-139283263D01*
X159764086Y-139222295D01*
X159920341Y-139191213D01*
X160079659Y-139191213D01*
X160235914Y-139222295D01*
G37*
G36*
X171119711Y-114823714D02*
G01*
X171243601Y-114895242D01*
X171344758Y-114996399D01*
X171416286Y-115120289D01*
X171453312Y-115258472D01*
X171453312Y-115401528D01*
X171416286Y-115539711D01*
X171344758Y-115663601D01*
X171243601Y-115764758D01*
X171119711Y-115836286D01*
X170981528Y-115873312D01*
X170838472Y-115873312D01*
X170700289Y-115836286D01*
X170576399Y-115764758D01*
X170475242Y-115663601D01*
X170403714Y-115539711D01*
X170366688Y-115401528D01*
X170366688Y-115258472D01*
X170403714Y-115120289D01*
X170475242Y-114996399D01*
X170576399Y-114895242D01*
X170700289Y-114823714D01*
X170838472Y-114786688D01*
X170981528Y-114786688D01*
X171119711Y-114823714D01*
G37*
G36*
X191249711Y-114823714D02*
G01*
X191373601Y-114895242D01*
X191474758Y-114996399D01*
X191546286Y-115120289D01*
X191583312Y-115258472D01*
X191583312Y-115401528D01*
X191546286Y-115539711D01*
X191474758Y-115663601D01*
X191373601Y-115764758D01*
X191249711Y-115836286D01*
X191111528Y-115873312D01*
X190968472Y-115873312D01*
X190830289Y-115836286D01*
X190706399Y-115764758D01*
X190605242Y-115663601D01*
X190533714Y-115539711D01*
X190496688Y-115401528D01*
X190496688Y-115258472D01*
X190533714Y-115120289D01*
X190605242Y-114996399D01*
X190706399Y-114895242D01*
X190830289Y-114823714D01*
X190968472Y-114786688D01*
X191111528Y-114786688D01*
X191249711Y-114823714D01*
G37*
G36*
X179285202Y-93839472D02*
G01*
X179400751Y-93887334D01*
X179504743Y-93956819D01*
X179593181Y-94045257D01*
X179662666Y-94149249D01*
X179710528Y-94264798D01*
X179734928Y-94387465D01*
X179738000Y-94450000D01*
X179738000Y-95050000D01*
X179734928Y-95112535D01*
X179710528Y-95235202D01*
X179662666Y-95350751D01*
X179593181Y-95454743D01*
X179504743Y-95543181D01*
X179400751Y-95612666D01*
X179285202Y-95660528D01*
X179162535Y-95684928D01*
X179037465Y-95684928D01*
X178914798Y-95660528D01*
X178799249Y-95612666D01*
X178695257Y-95543181D01*
X178606819Y-95454743D01*
X178537334Y-95350751D01*
X178489472Y-95235202D01*
X178465072Y-95112535D01*
X178462000Y-95050000D01*
X178462000Y-94450000D01*
X178465072Y-94387465D01*
X178489472Y-94264798D01*
X178537334Y-94149249D01*
X178606819Y-94045257D01*
X178695257Y-93956819D01*
X178799249Y-93887334D01*
X178914798Y-93839472D01*
X179037465Y-93815072D01*
X179162535Y-93815072D01*
X179285202Y-93839472D01*
G37*
G36*
X185685202Y-93839472D02*
G01*
X185800751Y-93887334D01*
X185904743Y-93956819D01*
X185993181Y-94045257D01*
X186062666Y-94149249D01*
X186110528Y-94264798D01*
X186134928Y-94387465D01*
X186138000Y-94450000D01*
X186138000Y-95050000D01*
X186134928Y-95112535D01*
X186110528Y-95235202D01*
X186062666Y-95350751D01*
X185993181Y-95454743D01*
X185904743Y-95543181D01*
X185800751Y-95612666D01*
X185685202Y-95660528D01*
X185562535Y-95684928D01*
X185437465Y-95684928D01*
X185314798Y-95660528D01*
X185199249Y-95612666D01*
X185095257Y-95543181D01*
X185006819Y-95454743D01*
X184937334Y-95350751D01*
X184889472Y-95235202D01*
X184865072Y-95112535D01*
X184862000Y-95050000D01*
X184862000Y-94450000D01*
X184865072Y-94387465D01*
X184889472Y-94264798D01*
X184937334Y-94149249D01*
X185006819Y-94045257D01*
X185095257Y-93956819D01*
X185199249Y-93887334D01*
X185314798Y-93839472D01*
X185437465Y-93815072D01*
X185562535Y-93815072D01*
X185685202Y-93839472D01*
G37*
M02*
