%TF.GenerationSoftware,KiCad,Pcbnew,9.0.0*%
%TF.CreationDate,2025-03-03T17:37:00+01:00*%
%TF.ProjectId,logix-core,6c6f6769-782d-4636-9f72-652e6b696361,rev?*%
%TF.SameCoordinates,Original*%
%TF.FileFunction,Copper,L1,Top*%
%TF.FilePolarity,Positive*%
%FSLAX46Y46*%
G04 Gerber Fmt 4.6, Leading zero omitted, Abs format (unit mm)*
G04 Created by KiCad (PCBNEW 9.0.0) date 2025-03-03 17:37:00*
%MOMM*%
%LPD*%
G01*
G04 APERTURE LIST*
G04 Aperture macros list*
%AMRoundRect*
0 Rectangle with rounded corners*
0 $1 Rounding radius*
0 $2 $3 $4 $5 $6 $7 $8 $9 X,Y pos of 4 corners*
0 Add a 4 corners polygon primitive as box body*
4,1,4,$2,$3,$4,$5,$6,$7,$8,$9,$2,$3,0*
0 Add four circle primitives for the rounded corners*
1,1,$1+$1,$2,$3*
1,1,$1+$1,$4,$5*
1,1,$1+$1,$6,$7*
1,1,$1+$1,$8,$9*
0 Add four rect primitives between the rounded corners*
20,1,$1+$1,$2,$3,$4,$5,0*
20,1,$1+$1,$4,$5,$6,$7,0*
20,1,$1+$1,$6,$7,$8,$9,0*
20,1,$1+$1,$8,$9,$2,$3,0*%
G04 Aperture macros list end*
%TA.AperFunction,EtchedComponent*%
%ADD10C,0.000000*%
%TD*%
%TA.AperFunction,SMDPad,CuDef*%
%ADD11RoundRect,0.160000X-0.197500X-0.160000X0.197500X-0.160000X0.197500X0.160000X-0.197500X0.160000X0*%
%TD*%
%TA.AperFunction,SMDPad,CuDef*%
%ADD12RoundRect,0.140000X-0.140000X-0.170000X0.140000X-0.170000X0.140000X0.170000X-0.140000X0.170000X0*%
%TD*%
%TA.AperFunction,SMDPad,CuDef*%
%ADD13R,1.803400X13.995400*%
%TD*%
%TA.AperFunction,SMDPad,CuDef*%
%ADD14C,0.457200*%
%TD*%
%TA.AperFunction,SMDPad,CuDef*%
%ADD15R,1.700000X0.203200*%
%TD*%
%TA.AperFunction,SMDPad,CuDef*%
%ADD16R,1.701800X0.254000*%
%TD*%
%TA.AperFunction,SMDPad,CuDef*%
%ADD17R,0.203200X0.812800*%
%TD*%
%TA.AperFunction,SMDPad,CuDef*%
%ADD18R,1.092200X0.203200*%
%TD*%
%TA.AperFunction,SMDPad,CuDef*%
%ADD19R,1.092200X0.254000*%
%TD*%
%TA.AperFunction,SMDPad,CuDef*%
%ADD20R,1.500000X3.600000*%
%TD*%
%TA.AperFunction,SMDPad,CuDef*%
%ADD21RoundRect,0.225000X-0.225000X-0.250000X0.225000X-0.250000X0.225000X0.250000X-0.225000X0.250000X0*%
%TD*%
%TA.AperFunction,SMDPad,CuDef*%
%ADD22RoundRect,0.140000X0.140000X0.170000X-0.140000X0.170000X-0.140000X-0.170000X0.140000X-0.170000X0*%
%TD*%
%TA.AperFunction,SMDPad,CuDef*%
%ADD23RoundRect,0.135000X-0.135000X-0.185000X0.135000X-0.185000X0.135000X0.185000X-0.135000X0.185000X0*%
%TD*%
%TA.AperFunction,SMDPad,CuDef*%
%ADD24RoundRect,0.075000X-0.350000X-0.075000X0.350000X-0.075000X0.350000X0.075000X-0.350000X0.075000X0*%
%TD*%
%TA.AperFunction,SMDPad,CuDef*%
%ADD25RoundRect,0.075000X-0.075000X-0.350000X0.075000X-0.350000X0.075000X0.350000X-0.075000X0.350000X0*%
%TD*%
%TA.AperFunction,SMDPad,CuDef*%
%ADD26R,2.100000X2.100000*%
%TD*%
%TA.AperFunction,SMDPad,CuDef*%
%ADD27RoundRect,0.135000X0.185000X-0.135000X0.185000X0.135000X-0.185000X0.135000X-0.185000X-0.135000X0*%
%TD*%
%TA.AperFunction,SMDPad,CuDef*%
%ADD28R,0.990600X2.743200*%
%TD*%
%TA.AperFunction,ComponentPad*%
%ADD29C,1.549400*%
%TD*%
%TA.AperFunction,SMDPad,CuDef*%
%ADD30RoundRect,0.140000X-0.170000X0.140000X-0.170000X-0.140000X0.170000X-0.140000X0.170000X0.140000X0*%
%TD*%
%TA.AperFunction,SMDPad,CuDef*%
%ADD31RoundRect,0.250000X-1.100000X0.325000X-1.100000X-0.325000X1.100000X-0.325000X1.100000X0.325000X0*%
%TD*%
%TA.AperFunction,SMDPad,CuDef*%
%ADD32RoundRect,0.140000X0.170000X-0.140000X0.170000X0.140000X-0.170000X0.140000X-0.170000X-0.140000X0*%
%TD*%
%TA.AperFunction,SMDPad,CuDef*%
%ADD33RoundRect,0.218750X-0.218750X-0.256250X0.218750X-0.256250X0.218750X0.256250X-0.218750X0.256250X0*%
%TD*%
%TA.AperFunction,SMDPad,CuDef*%
%ADD34RoundRect,0.135000X-0.185000X0.135000X-0.185000X-0.135000X0.185000X-0.135000X0.185000X0.135000X0*%
%TD*%
%TA.AperFunction,SMDPad,CuDef*%
%ADD35R,0.400000X1.200000*%
%TD*%
%TA.AperFunction,SMDPad,CuDef*%
%ADD36R,1.000000X1.000000*%
%TD*%
%TA.AperFunction,ComponentPad*%
%ADD37O,1.200000X1.800000*%
%TD*%
%TA.AperFunction,BGAPad,CuDef*%
%ADD38C,0.400000*%
%TD*%
%TA.AperFunction,SMDPad,CuDef*%
%ADD39RoundRect,0.250000X0.325000X1.100000X-0.325000X1.100000X-0.325000X-1.100000X0.325000X-1.100000X0*%
%TD*%
%TA.AperFunction,SMDPad,CuDef*%
%ADD40RoundRect,0.250000X-0.325000X-1.100000X0.325000X-1.100000X0.325000X1.100000X-0.325000X1.100000X0*%
%TD*%
%TA.AperFunction,SMDPad,CuDef*%
%ADD41R,1.560000X0.650000*%
%TD*%
%TA.AperFunction,SMDPad,CuDef*%
%ADD42R,0.279000X2.270000*%
%TD*%
%TA.AperFunction,SMDPad,CuDef*%
%ADD43R,2.540000X0.430000*%
%TD*%
%TA.AperFunction,SMDPad,CuDef*%
%ADD44R,4.700000X0.430000*%
%TD*%
%TA.AperFunction,SMDPad,CuDef*%
%ADD45RoundRect,0.125000X-0.262500X-0.125000X0.262500X-0.125000X0.262500X0.125000X-0.262500X0.125000X0*%
%TD*%
%TA.AperFunction,HeatsinkPad*%
%ADD46R,3.400000X4.000000*%
%TD*%
%TA.AperFunction,ViaPad*%
%ADD47C,0.250000*%
%TD*%
%TA.AperFunction,ViaPad*%
%ADD48C,0.400000*%
%TD*%
%TA.AperFunction,Conductor*%
%ADD49C,0.100000*%
%TD*%
%TA.AperFunction,Conductor*%
%ADD50C,0.156500*%
%TD*%
%TA.AperFunction,Conductor*%
%ADD51C,0.123200*%
%TD*%
G04 APERTURE END LIST*
D10*
%TA.AperFunction,EtchedComponent*%
%TO.C,U2*%
G36*
X233498400Y-88618402D02*
G01*
X233000400Y-88618402D01*
X233000400Y-88415202D01*
X233498400Y-88415202D01*
X233498400Y-88618402D01*
G37*
%TD.AperFunction*%
%TA.AperFunction,EtchedComponent*%
G36*
X233498400Y-91796800D02*
G01*
X233000400Y-91796800D01*
X233000400Y-91593600D01*
X233498400Y-91593600D01*
X233498400Y-91796800D01*
G37*
%TD.AperFunction*%
%TA.AperFunction,EtchedComponent*%
G36*
X236599600Y-88618402D02*
G01*
X236101600Y-88618402D01*
X236101600Y-88415202D01*
X236599600Y-88415202D01*
X236599600Y-88618402D01*
G37*
%TD.AperFunction*%
%TA.AperFunction,EtchedComponent*%
G36*
X236599600Y-91796800D02*
G01*
X236101600Y-91796800D01*
X236101600Y-91593600D01*
X236599600Y-91593600D01*
X236599600Y-91796800D01*
G37*
%TD.AperFunction*%
%TD*%
D11*
%TO.P,R13,1*%
%TO.N,/FPGA/FPGA pg.1/FLASH_SPI.D2*%
X152152500Y-158260000D03*
%TO.P,R13,2*%
%TO.N,/FPGA/FPGA pg.1/INT_FLASH_SPI_D2*%
X153347500Y-158260000D03*
%TD*%
D12*
%TO.P,C4,1*%
%TO.N,+V1P8*%
X191020000Y-145500000D03*
%TO.P,C4,2*%
%TO.N,GND*%
X191980000Y-145500000D03*
%TD*%
D13*
%TO.P,U8,97,EPAD*%
%TO.N,GND*%
X201500000Y-143000000D03*
D14*
%TO.P,U8,A1,VDDQ*%
%TO.N,+1V5*%
X198300000Y-137000000D03*
%TO.P,U8,A2,DQ13*%
%TO.N,/DDR3_DQ13*%
X199100000Y-137000000D03*
%TO.P,U8,A3,DQ15*%
%TO.N,/DDR3_DQ15*%
X199900000Y-137000000D03*
%TO.P,U8,A7,DQ12*%
%TO.N,/DDR3_DQ12*%
X203100000Y-137000000D03*
%TO.P,U8,A8,VDDQ*%
%TO.N,+1V5*%
X203900000Y-137000000D03*
%TO.P,U8,A9,VSS*%
%TO.N,GND*%
X204700000Y-137000000D03*
%TO.P,U8,B1,VSSQ*%
X198300000Y-137800000D03*
%TO.P,U8,B2,VDD*%
%TO.N,+1V5*%
X199100000Y-137800000D03*
%TO.P,U8,B3,VSS*%
%TO.N,GND*%
X199900000Y-137800000D03*
%TO.P,U8,B7,\u002AUDQS*%
%TO.N,/DDR3_UDQS-*%
X203100000Y-137800000D03*
%TO.P,U8,B8,DQ14*%
%TO.N,/DDR3_DQ14*%
X203900000Y-137800000D03*
%TO.P,U8,B9,VSSQ*%
%TO.N,GND*%
X204700000Y-137800000D03*
%TO.P,U8,C1,VDDQ*%
%TO.N,+1V5*%
X198300000Y-138600000D03*
%TO.P,U8,C2,DQ11*%
%TO.N,/DDR3_DQ11*%
X199100000Y-138600000D03*
%TO.P,U8,C3,DQ9*%
%TO.N,/DDR3_DQ9*%
X199900000Y-138600000D03*
%TO.P,U8,C7,UDQS*%
%TO.N,/DDR3_UDQS+*%
X203100000Y-138600000D03*
%TO.P,U8,C8,DQ10*%
%TO.N,/DDR3_DQ10*%
X203900000Y-138600000D03*
%TO.P,U8,C9,VDDQ*%
%TO.N,+1V5*%
X204700000Y-138600000D03*
%TO.P,U8,D1,VSSQ*%
%TO.N,GND*%
X198300000Y-139400000D03*
%TO.P,U8,D2,VDDQ*%
%TO.N,+1V5*%
X199100000Y-139400000D03*
%TO.P,U8,D3,UDM*%
%TO.N,/DDR3_UDM*%
X199900000Y-139400000D03*
%TO.P,U8,D7,DQ8*%
%TO.N,/DDR3_DQ8*%
X203100000Y-139400000D03*
%TO.P,U8,D8,VSSQ*%
%TO.N,GND*%
X203900000Y-139400000D03*
%TO.P,U8,D9,VDD*%
%TO.N,+1V5*%
X204700000Y-139400000D03*
%TO.P,U8,E1,VSS*%
%TO.N,GND*%
X198300000Y-140200000D03*
%TO.P,U8,E2,VSSQ*%
X199100000Y-140200000D03*
%TO.P,U8,E3,DQ0*%
%TO.N,/DDR3_DQ0*%
X199900000Y-140200000D03*
%TO.P,U8,E7,LDM*%
%TO.N,/DDR3_LDM*%
X203100000Y-140200000D03*
%TO.P,U8,E8,VSSQ*%
%TO.N,GND*%
X203900000Y-140200000D03*
%TO.P,U8,E9,VDDQ*%
%TO.N,+1V5*%
X204700000Y-140200000D03*
%TO.P,U8,F1,VDDQ*%
X198300000Y-141000000D03*
%TO.P,U8,F2,DQ2*%
%TO.N,/DDR3_DQ2*%
X199100000Y-141000000D03*
%TO.P,U8,F3,LDQS*%
%TO.N,/DDR3_LDQS+*%
X199900000Y-141000000D03*
%TO.P,U8,F7,DQ1*%
%TO.N,/DDR3_DQ1*%
X203100000Y-141000000D03*
%TO.P,U8,F8,DQ3*%
%TO.N,/DDR3_DQ3*%
X203900000Y-141000000D03*
%TO.P,U8,F9,VSSQ*%
%TO.N,GND*%
X204700000Y-141000000D03*
%TO.P,U8,G1,VSSQ*%
X198300000Y-141800000D03*
%TO.P,U8,G2,DQ6*%
%TO.N,/DDR3_DQ6*%
X199100000Y-141800000D03*
%TO.P,U8,G3,\u002ALDQS*%
%TO.N,/DDR3_LDQS-*%
X199900000Y-141800000D03*
%TO.P,U8,G7,VDD*%
%TO.N,+1V5*%
X203100000Y-141800000D03*
%TO.P,U8,G8,VSS*%
%TO.N,GND*%
X203900000Y-141800000D03*
%TO.P,U8,G9,VSSQ*%
X204700000Y-141800000D03*
%TO.P,U8,H1,VREFDQ*%
%TO.N,/DDR3/DDR_VREF*%
X198300000Y-142600000D03*
%TO.P,U8,H2,VDDQ*%
%TO.N,+1V5*%
X199100000Y-142600000D03*
%TO.P,U8,H3,DQ4*%
%TO.N,/DDR3_DQ4*%
X199900000Y-142600000D03*
%TO.P,U8,H7,DQ7*%
%TO.N,/DDR3_DQ7*%
X203100000Y-142600000D03*
%TO.P,U8,H8,DQ5*%
%TO.N,/DDR3_DQ5*%
X203900000Y-142600000D03*
%TO.P,U8,H9,VDDQ*%
%TO.N,+1V5*%
X204700000Y-142600000D03*
%TO.P,U8,J1,NC*%
%TO.N,unconnected-(U8B-NC-PadJ1)*%
X198300000Y-143400000D03*
%TO.P,U8,J2,VSS*%
%TO.N,GND*%
X199100000Y-143400000D03*
%TO.P,U8,J3,\u002ARAS*%
%TO.N,/DDR3_RAS#*%
X199900000Y-143400000D03*
%TO.P,U8,J7,CK*%
%TO.N,/DDR3_CLK+*%
X203100000Y-143400000D03*
%TO.P,U8,J8,VSS*%
%TO.N,GND*%
X203900000Y-143400000D03*
%TO.P,U8,J9,NC*%
%TO.N,unconnected-(U8B-NC-PadJ9)*%
X204700000Y-143400000D03*
%TO.P,U8,K1,ODT*%
%TO.N,/DDR3_ODT*%
X198300000Y-144199999D03*
%TO.P,U8,K2,VDD*%
%TO.N,+1V5*%
X199100000Y-144199999D03*
%TO.P,U8,K3,\u002ACAS*%
%TO.N,/DDR3_CAS#*%
X199900000Y-144199999D03*
%TO.P,U8,K7,\u002ACK*%
%TO.N,/DDR3_CLK-*%
X203100000Y-144199999D03*
%TO.P,U8,K8,VDD*%
%TO.N,+1V5*%
X203900000Y-144199999D03*
%TO.P,U8,K9,CKE*%
%TO.N,/DDR3_CLK_EN*%
X204700000Y-144199999D03*
%TO.P,U8,L1,NC*%
%TO.N,unconnected-(U8B-NC-PadL1)*%
X198300000Y-144999999D03*
%TO.P,U8,L2,\u002ACS*%
%TO.N,/DDR3_CS#*%
X199100000Y-144999999D03*
%TO.P,U8,L3,\u002AWE*%
%TO.N,/DDR3_WE#*%
X199900000Y-144999999D03*
%TO.P,U8,L7,A10/AP*%
%TO.N,/DDR3_ADDR10*%
X203100000Y-144999999D03*
%TO.P,U8,L8,ZQ*%
%TO.N,/DDR3/ZQ*%
X203900000Y-144999999D03*
%TO.P,U8,L9,NC*%
%TO.N,unconnected-(U8B-NC-PadL9)*%
X204700000Y-144999999D03*
%TO.P,U8,M1,VSS*%
%TO.N,GND*%
X198300000Y-145799999D03*
%TO.P,U8,M2,BA0*%
%TO.N,/DDR3_BLOCK_ADDR0*%
X199100000Y-145799999D03*
%TO.P,U8,M3,BA2*%
%TO.N,/DDR3_BLOCK_ADDR2*%
X199900000Y-145799999D03*
%TO.P,U8,M7,NC*%
%TO.N,unconnected-(U8B-NC-PadM7)*%
X203100000Y-145799999D03*
%TO.P,U8,M8,VREFCA*%
%TO.N,/DDR3/DDR_VREF*%
X203900000Y-145799999D03*
%TO.P,U8,M9,VSS*%
%TO.N,GND*%
X204700000Y-145799999D03*
%TO.P,U8,N1,VDD*%
%TO.N,+1V5*%
X198300000Y-146599999D03*
%TO.P,U8,N2,A3*%
%TO.N,/DDR3_ADDR3*%
X199100000Y-146599999D03*
%TO.P,U8,N3,A0*%
%TO.N,/DDR3_ADDR0*%
X199900000Y-146599999D03*
%TO.P,U8,N7,A12/\u002ABC*%
%TO.N,/DDR3_ADDR12*%
X203100000Y-146599999D03*
%TO.P,U8,N8,BA1*%
%TO.N,/DDR3_BLOCK_ADDR1*%
X203900000Y-146599999D03*
%TO.P,U8,N9,VDD*%
%TO.N,+1V5*%
X204700000Y-146599999D03*
%TO.P,U8,P1,VSS*%
%TO.N,GND*%
X198300000Y-147399999D03*
%TO.P,U8,P2,A5*%
%TO.N,/DDR3_ADDR5*%
X199100000Y-147399999D03*
%TO.P,U8,P3,A2*%
%TO.N,/DDR3_ADDR2*%
X199900000Y-147399999D03*
%TO.P,U8,P7,A1*%
%TO.N,/DDR3_ADDR1*%
X203100000Y-147399999D03*
%TO.P,U8,P8,A4*%
%TO.N,/DDR3_ADDR4*%
X203900000Y-147399999D03*
%TO.P,U8,P9,VSS*%
%TO.N,GND*%
X204700000Y-147399999D03*
%TO.P,U8,R1,VDD*%
%TO.N,+1V5*%
X198300000Y-148199999D03*
%TO.P,U8,R2,A7*%
%TO.N,/DDR3_ADDR7*%
X199100000Y-148199999D03*
%TO.P,U8,R3,A9*%
%TO.N,/DDR3_ADDR9*%
X199900000Y-148199999D03*
%TO.P,U8,R7,A11*%
%TO.N,/DDR3_ADDR11*%
X203100000Y-148199999D03*
%TO.P,U8,R8,A6*%
%TO.N,/DDR3_ADDR6*%
X203900000Y-148199999D03*
%TO.P,U8,R9,VDD*%
%TO.N,+1V5*%
X204700000Y-148199999D03*
%TO.P,U8,T1,VSS*%
%TO.N,GND*%
X198300000Y-148999999D03*
%TO.P,U8,T2,\u002ARESET*%
%TO.N,/DDR3_RESET#*%
X199100000Y-148999999D03*
%TO.P,U8,T3,A13*%
%TO.N,/DDR3_ADDR13*%
X199900000Y-148999999D03*
%TO.P,U8,T7,A14*%
%TO.N,/DDR3_ADDR14*%
X203100000Y-148999999D03*
%TO.P,U8,T8,A8*%
%TO.N,/DDR3_ADDR8*%
X203900000Y-148999999D03*
%TO.P,U8,T9,VSS*%
%TO.N,GND*%
X204700000Y-148999999D03*
%TD*%
D12*
%TO.P,C18,1*%
%TO.N,Net-(U2-VCC)*%
X186925000Y-64980000D03*
%TO.P,C18,2*%
%TO.N,GND*%
X187885000Y-64980000D03*
%TD*%
D15*
%TO.P,U2,1,VIN1*%
%TO.N,VBUS*%
X233850000Y-89256000D03*
%TO.P,U2,2,SW1*%
%TO.N,Net-(U2-SW1)*%
X233850000Y-89656002D03*
D16*
%TO.P,U2,3,GND*%
%TO.N,GND*%
X233850000Y-90106001D03*
D15*
%TO.P,U2,4,SW2*%
%TO.N,Net-(U2-SW2)*%
X233850000Y-90556000D03*
%TO.P,U2,5,VIN2*%
%TO.N,VBUS*%
X233850000Y-90956002D03*
D17*
%TO.P,U2,6,FB2*%
%TO.N,+3.3V*%
X233600000Y-92000000D03*
%TO.P,U2,7,SCL*%
%TO.N,/PMIC/I2C.SCL*%
X233999999Y-92000000D03*
%TO.P,U2,8,SDA*%
%TO.N,/PMIC/I2C.SDA*%
X234400001Y-92000000D03*
%TO.P,U2,9,SGND2*%
%TO.N,GND*%
X235199999Y-92000000D03*
%TO.P,U2,10,FB3*%
%TO.N,+1V8*%
X235600001Y-92000000D03*
%TO.P,U2,11,NC*%
%TO.N,unconnected-(U2-NC-Pad11)*%
X236000000Y-92000000D03*
D18*
%TO.P,U2,12,EN/SYNC*%
%TO.N,/PMIC/EN*%
X236054000Y-90956002D03*
%TO.P,U2,13,SW3*%
%TO.N,Net-(U2-SW3)*%
X236054000Y-90556000D03*
D19*
%TO.P,U2,14,GND*%
%TO.N,GND*%
X236054000Y-90106001D03*
D18*
%TO.P,U2,15,SW4*%
%TO.N,Net-(U2-SW4)*%
X236054000Y-89656002D03*
%TO.P,U2,16,VCC*%
%TO.N,Net-(U2-VCC)*%
X236054000Y-89256000D03*
D17*
%TO.P,U2,17,NC*%
%TO.N,unconnected-(U2-NC-Pad17)*%
X236000000Y-88212002D03*
%TO.P,U2,18,FB4*%
%TO.N,+1V5*%
X235600001Y-88212002D03*
%TO.P,U2,19,AGND*%
%TO.N,GND*%
X235199999Y-88212002D03*
%TO.P,U2,20,GPIO*%
%TO.N,Net-(U2-GPIO)*%
X234400001Y-88212002D03*
%TO.P,U2,21,SGND1*%
%TO.N,GND*%
X233999999Y-88212002D03*
%TO.P,U2,22,FB1*%
%TO.N,VCCINT*%
X233600000Y-88212002D03*
%TD*%
D20*
%TO.P,L2,1,1*%
%TO.N,Net-(U2-SW2)*%
X181390000Y-55270000D03*
%TO.P,L2,2,2*%
%TO.N,+3.3V*%
X184440000Y-55270000D03*
%TD*%
D21*
%TO.P,C22,1*%
%TO.N,+1V5*%
X187200000Y-60750000D03*
%TO.P,C22,2*%
%TO.N,GND*%
X188750000Y-60750000D03*
%TD*%
D12*
%TO.P,C5,1*%
%TO.N,+V1P8*%
X191020000Y-142500000D03*
%TO.P,C5,2*%
%TO.N,GND*%
X191980000Y-142500000D03*
%TD*%
%TO.P,C24,1*%
%TO.N,/USB/EXT_USB_D-*%
X206622500Y-92750000D03*
%TO.P,C24,2*%
%TO.N,GND*%
X207582500Y-92750000D03*
%TD*%
D22*
%TO.P,C56,1*%
%TO.N,/FPGA/FPGA pg.2/VCCO34*%
X171480000Y-148500000D03*
%TO.P,C56,2*%
%TO.N,GND*%
X170520000Y-148500000D03*
%TD*%
D12*
%TO.P,C28,1*%
%TO.N,Net-(U4-VCCIO)*%
X206622500Y-100630000D03*
%TO.P,C28,2*%
%TO.N,GND*%
X207582500Y-100630000D03*
%TD*%
%TO.P,C53,1*%
%TO.N,/FPGA/FPGA pg.1/VCCO15*%
X191020000Y-138000000D03*
%TO.P,C53,2*%
%TO.N,GND*%
X191980000Y-138000000D03*
%TD*%
D11*
%TO.P,R12,1*%
%TO.N,/FPGA/FPGA pg.1/FLASH_SPI.D1*%
X152152500Y-156270000D03*
%TO.P,R12,2*%
%TO.N,/FPGA/FPGA pg.1/INT_FLASH_SPI_D1*%
X153347500Y-156270000D03*
%TD*%
D23*
%TO.P,R1,1*%
%TO.N,Net-(U2-VCC)*%
X186915000Y-63000000D03*
%TO.P,R1,2*%
%TO.N,Net-(U2-GPIO)*%
X187935000Y-63000000D03*
%TD*%
D24*
%TO.P,U4,1,VCCIO*%
%TO.N,Net-(U4-VCCIO)*%
X193372500Y-92635000D03*
%TO.P,U4,2,RXD*%
%TO.N,/USB/FTDI_RXD*%
X193372500Y-93285000D03*
%TO.P,U4,3,GND*%
%TO.N,GND*%
X193372500Y-93935000D03*
%TO.P,U4,4,~{CTS}*%
%TO.N,/USB/FTDI_CTS#*%
X193372500Y-94585000D03*
D25*
%TO.P,U4,5,CBUS2*%
%TO.N,/USB/FTDI_CBUS2*%
X194347500Y-95560000D03*
%TO.P,U4,6,USBDP*%
%TO.N,/USB/USB_D+*%
X194997500Y-95560000D03*
%TO.P,U4,7,USBDM*%
%TO.N,/USB/USB_D-*%
X195647500Y-95560000D03*
%TO.P,U4,8,3V3OUT*%
%TO.N,Net-(U4-3V3OUT)*%
X196297500Y-95560000D03*
D24*
%TO.P,U4,9,~{RESET}*%
%TO.N,Net-(U4-~{RESET})*%
X197272500Y-94585000D03*
%TO.P,U4,10,VCC*%
%TO.N,VBUS*%
X197272500Y-93935000D03*
%TO.P,U4,11,CBUS1*%
%TO.N,/USB/FTDI_CBUS1*%
X197272500Y-93285000D03*
%TO.P,U4,12,CBUS0*%
%TO.N,/USB/FTDI_CBUS0*%
X197272500Y-92635000D03*
D25*
%TO.P,U4,13,GND*%
%TO.N,GND*%
X196297500Y-91660000D03*
%TO.P,U4,14,CBUS3*%
%TO.N,/USB/FTDI_CBUS3*%
X195647500Y-91660000D03*
%TO.P,U4,15,TXD*%
%TO.N,/USB/FTDI_TXD*%
X194997500Y-91660000D03*
%TO.P,U4,16,~{RTS}*%
%TO.N,/USB/FTDI_RTS#*%
X194347500Y-91660000D03*
D26*
%TO.P,U4,17,GND*%
%TO.N,GND*%
X195322500Y-93610000D03*
%TD*%
D27*
%TO.P,R18,1*%
%TO.N,/DDR3/ZQ*%
X208000000Y-144010000D03*
%TO.P,R18,2*%
%TO.N,GND*%
X208000000Y-142990000D03*
%TD*%
D11*
%TO.P,R14,1*%
%TO.N,/FPGA/FPGA pg.1/FLASH_SPI.D3*%
X152152500Y-160250000D03*
%TO.P,R14,2*%
%TO.N,/FPGA/FPGA pg.1/INT_FLASH_SPI_D3*%
X153347500Y-160250000D03*
%TD*%
D28*
%TO.P,J3,1,1*%
%TO.N,unconnected-(J3-Pad1)*%
X148999999Y-142130001D03*
%TO.P,J3,2,2*%
%TO.N,unconnected-(J3-Pad2)*%
X148999999Y-137869999D03*
%TO.P,J3,3,3*%
%TO.N,unconnected-(J3-Pad3)*%
X151000000Y-142130001D03*
%TO.P,J3,4,4*%
%TO.N,unconnected-(J3-Pad4)*%
X151000000Y-137869999D03*
%TO.P,J3,5,5*%
%TO.N,unconnected-(J3-Pad5)*%
X152999999Y-142130001D03*
%TO.P,J3,6,6*%
%TO.N,unconnected-(J3-Pad6)*%
X152999999Y-137869999D03*
%TO.P,J3,7,7*%
%TO.N,unconnected-(J3-Pad7)*%
X155000000Y-142130001D03*
%TO.P,J3,8,8*%
%TO.N,unconnected-(J3-Pad8)*%
X155000000Y-137869999D03*
%TO.P,J3,9,9*%
%TO.N,unconnected-(J3-Pad9)*%
X157000001Y-142130001D03*
%TO.P,J3,10,10*%
%TO.N,unconnected-(J3-Pad10)*%
X157000001Y-137869999D03*
%TO.P,J3,11,11*%
%TO.N,unconnected-(J3-Pad11)*%
X159000000Y-142130001D03*
%TO.P,J3,12,12*%
%TO.N,unconnected-(J3-Pad12)*%
X159000000Y-137869999D03*
%TO.P,J3,13,13*%
%TO.N,unconnected-(J3-Pad13)*%
X161000001Y-142130001D03*
%TO.P,J3,14,14*%
%TO.N,unconnected-(J3-Pad14)*%
X161000001Y-137869999D03*
D29*
%TO.P,J3,15*%
%TO.N,N/C*%
X150000000Y-140000000D03*
%TO.P,J3,16*%
X160000000Y-140000000D03*
%TD*%
D12*
%TO.P,C46,1*%
%TO.N,/FPGA/FPGA pg.1/VCCO14*%
X191020000Y-147000000D03*
%TO.P,C46,2*%
%TO.N,GND*%
X191980000Y-147000000D03*
%TD*%
D20*
%TO.P,L1,1,1*%
%TO.N,Net-(U2-SW1)*%
X181390000Y-49720000D03*
%TO.P,L1,2,2*%
%TO.N,VCCINT*%
X184440000Y-49720000D03*
%TD*%
D11*
%TO.P,R5,1*%
%TO.N,/USB/FTDI_RXD*%
X203445000Y-96760000D03*
%TO.P,R5,2*%
%TO.N,/USB/UART.RXD*%
X204640000Y-96760000D03*
%TD*%
D12*
%TO.P,C47,1*%
%TO.N,/FPGA/FPGA pg.1/VCCO14*%
X191020000Y-150000000D03*
%TO.P,C47,2*%
%TO.N,GND*%
X191980000Y-150000000D03*
%TD*%
%TO.P,C26,1*%
%TO.N,Net-(U4-3V3OUT)*%
X206622500Y-96690000D03*
%TO.P,C26,2*%
%TO.N,GND*%
X207582500Y-96690000D03*
%TD*%
%TO.P,C29,1*%
%TO.N,Net-(U5-VCC)*%
X207520000Y-53750000D03*
%TO.P,C29,2*%
%TO.N,GND*%
X208480000Y-53750000D03*
%TD*%
D21*
%TO.P,C16,1*%
%TO.N,VBUS*%
X187200000Y-48200000D03*
%TO.P,C16,2*%
%TO.N,GND*%
X188750000Y-48200000D03*
%TD*%
D11*
%TO.P,R10,1*%
%TO.N,unconnected-(R10-Pad1)*%
X203445000Y-106710000D03*
%TO.P,R10,2*%
%TO.N,Net-(U4-~{RESET})*%
X204640000Y-106710000D03*
%TD*%
D30*
%TO.P,C40,1*%
%TO.N,+1V5*%
X195000000Y-148020000D03*
%TO.P,C40,2*%
%TO.N,GND*%
X195000000Y-148980000D03*
%TD*%
D31*
%TO.P,C6,1*%
%TO.N,+V1P8*%
X194750000Y-141775000D03*
%TO.P,C6,2*%
%TO.N,GND*%
X194750000Y-144725000D03*
%TD*%
D12*
%TO.P,C23,1*%
%TO.N,/USB/EXT_USB_D+*%
X206622500Y-90780000D03*
%TO.P,C23,2*%
%TO.N,GND*%
X207582500Y-90780000D03*
%TD*%
%TO.P,C27,1*%
%TO.N,VBUS*%
X206622500Y-98660000D03*
%TO.P,C27,2*%
%TO.N,GND*%
X207582500Y-98660000D03*
%TD*%
D32*
%TO.P,C8,1*%
%TO.N,+V1P0*%
X174500000Y-132980000D03*
%TO.P,C8,2*%
%TO.N,GND*%
X174500000Y-132020000D03*
%TD*%
D21*
%TO.P,C21,1*%
%TO.N,+1V8*%
X187200000Y-58240000D03*
%TO.P,C21,2*%
%TO.N,GND*%
X188750000Y-58240000D03*
%TD*%
D30*
%TO.P,C48,1*%
%TO.N,/FPGA/FPGA pg.1/VCCO14*%
X186500000Y-152520000D03*
%TO.P,C48,2*%
%TO.N,GND*%
X186500000Y-153480000D03*
%TD*%
D11*
%TO.P,R8,1*%
%TO.N,Net-(D1-A)*%
X203445000Y-102730000D03*
%TO.P,R8,2*%
%TO.N,unconnected-(R8-Pad2)*%
X204640000Y-102730000D03*
%TD*%
D30*
%TO.P,C42,1*%
%TO.N,+1V5*%
X208000000Y-148020000D03*
%TO.P,C42,2*%
%TO.N,GND*%
X208000000Y-148980000D03*
%TD*%
D33*
%TO.P,D2,1,K*%
%TO.N,/USB/FTDI_CBUS2*%
X206925000Y-105500000D03*
%TO.P,D2,2,A*%
%TO.N,Net-(D2-A)*%
X208500000Y-105500000D03*
%TD*%
D11*
%TO.P,R7,1*%
%TO.N,/USB/FTDI_CTS#*%
X203445000Y-100740000D03*
%TO.P,R7,2*%
%TO.N,/USB/UART.CTS#*%
X204640000Y-100740000D03*
%TD*%
%TO.P,R15,1*%
%TO.N,/FPGA/FPGA pg.1/FLASH_SPI.CS#*%
X152152500Y-162240000D03*
%TO.P,R15,2*%
%TO.N,/FPGA/FPGA pg.1/INT_FLASH_SPI_CS#*%
X153347500Y-162240000D03*
%TD*%
D12*
%TO.P,C61,1*%
%TO.N,/FPGA/FPGA pg.1/VCCO15*%
X191020000Y-135000000D03*
%TO.P,C61,2*%
%TO.N,GND*%
X191980000Y-135000000D03*
%TD*%
D11*
%TO.P,R11,1*%
%TO.N,/FPGA/FPGA pg.1/FLASH_SPI.D0*%
X152152500Y-154280000D03*
%TO.P,R11,2*%
%TO.N,/FPGA/FPGA pg.1/INT_FLASH_SPI_D0*%
X153347500Y-154280000D03*
%TD*%
D21*
%TO.P,C17,1*%
%TO.N,VBUS*%
X187200000Y-50710000D03*
%TO.P,C17,2*%
%TO.N,GND*%
X188750000Y-50710000D03*
%TD*%
D32*
%TO.P,C51,1*%
%TO.N,/FPGA/FPGA pg.1/VCCO15*%
X185000000Y-132980000D03*
%TO.P,C51,2*%
%TO.N,GND*%
X185000000Y-132020000D03*
%TD*%
D34*
%TO.P,R20,1*%
%TO.N,/DDR3/DDR_VREF*%
X211000000Y-145480000D03*
%TO.P,R20,2*%
%TO.N,GND*%
X211000000Y-146500000D03*
%TD*%
D35*
%TO.P,USB1,1,VCC*%
%TO.N,Net-(USB1-VCC)*%
X181000000Y-91650000D03*
%TO.P,USB1,2,D-*%
%TO.N,/USB/EXT_USB_D-*%
X181650000Y-91650000D03*
%TO.P,USB1,3,D+*%
%TO.N,/USB/EXT_USB_D+*%
X182300000Y-91650000D03*
%TO.P,USB1,4,ID*%
%TO.N,unconnected-(USB1-ID-Pad4)*%
X182950000Y-91650000D03*
%TO.P,USB1,5,GND*%
%TO.N,GND*%
X183600000Y-91650000D03*
D36*
%TO.P,USB1,6,6*%
X185450000Y-92300000D03*
D37*
%TO.P,USB1,7,7*%
X185500000Y-94750000D03*
%TO.P,USB1,8,8*%
X179100000Y-94750000D03*
D36*
%TO.P,USB1,9,9*%
X179150000Y-92300000D03*
%TD*%
D30*
%TO.P,C55,1*%
%TO.N,/FPGA/FPGA pg.2/VCCO34*%
X176000000Y-152520000D03*
%TO.P,C55,2*%
%TO.N,GND*%
X176000000Y-153480000D03*
%TD*%
D11*
%TO.P,R4,1*%
%TO.N,/USB/FTDI_TXD*%
X203445000Y-94770000D03*
%TO.P,R4,2*%
%TO.N,/USB/UART.TXD*%
X204640000Y-94770000D03*
%TD*%
D30*
%TO.P,C38,1*%
%TO.N,/DDR3/DDR_VREF*%
X208000000Y-145520000D03*
%TO.P,C38,2*%
%TO.N,GND*%
X208000000Y-146480000D03*
%TD*%
D32*
%TO.P,C11,1*%
%TO.N,/FPGA/FPGA pg.4/VCCINT*%
X180500000Y-132980000D03*
%TO.P,C11,2*%
%TO.N,GND*%
X180500000Y-132020000D03*
%TD*%
D12*
%TO.P,C14,1*%
%TO.N,VCCADC*%
X237173900Y-76010402D03*
%TO.P,C14,2*%
%TO.N,GND*%
X238133900Y-76010402D03*
%TD*%
D30*
%TO.P,C62,1*%
%TO.N,/FPGA/FPGA pg.2/VCCO34*%
X174500000Y-152520000D03*
%TO.P,C62,2*%
%TO.N,GND*%
X174500000Y-153480000D03*
%TD*%
D22*
%TO.P,C33,1*%
%TO.N,+V1P2*%
X171480000Y-141000000D03*
%TO.P,C33,2*%
%TO.N,GND*%
X170520000Y-141000000D03*
%TD*%
%TO.P,C57,1*%
%TO.N,/FPGA/FPGA pg.2/VCCO34*%
X171480000Y-150000000D03*
%TO.P,C57,2*%
%TO.N,GND*%
X170520000Y-150000000D03*
%TD*%
D21*
%TO.P,C20,1*%
%TO.N,+3.3V*%
X187200000Y-55730000D03*
%TO.P,C20,2*%
%TO.N,GND*%
X188750000Y-55730000D03*
%TD*%
D38*
%TO.P,U6,A1,GND*%
%TO.N,GND*%
X174450000Y-135950000D03*
%TO.P,U6,A2,MGTAVTT*%
%TO.N,+V1P2*%
X175250000Y-135950000D03*
%TO.P,U6,A3,MGTPRXN1_216*%
%TO.N,/FPGA/FPGA pg.3/GTP1_RX-*%
X176050000Y-135950000D03*
%TO.P,U6,A4,MGTPRXP1_216*%
%TO.N,/FPGA/FPGA pg.3/GTP1_RX+*%
X176850000Y-135950000D03*
%TO.P,U6,A5,GND*%
%TO.N,GND*%
X177650000Y-135950000D03*
%TO.P,U6,A6,MGTRREF_216*%
%TO.N,Net-(U6D-MGTRREF_216)*%
X178450000Y-135950000D03*
%TO.P,U6,A7,GND*%
%TO.N,GND*%
X179250000Y-135950000D03*
%TO.P,U6,A8,GND*%
X180050000Y-135950000D03*
%TO.P,U6,A9,IO_L3N_T0_DQS_AD1N_15*%
%TO.N,/DDR3_LDQS-*%
X180850000Y-135950000D03*
%TO.P,U6,A10,IO_L5N_T0_AD9N_15*%
%TO.N,/DDR3_DQ6*%
X181650000Y-135950000D03*
%TO.P,U6,A11,GND*%
%TO.N,GND*%
X182450000Y-135950000D03*
%TO.P,U6,A12,IO_L7N_T1_AD2N_15*%
%TO.N,/DDR3_DQ8*%
X183250000Y-135950000D03*
%TO.P,U6,A13,IO_L8P_T1_AD10P_15*%
%TO.N,/DDR3_DQ9*%
X184050000Y-135950000D03*
%TO.P,U6,A14,IO_L8N_T1_AD10N_15*%
%TO.N,/DDR3_DQ10*%
X184850000Y-135950000D03*
%TO.P,U6,A15,IO_L10N_T1_AD11N_15*%
%TO.N,/DDR3_DQ12*%
X185650000Y-135950000D03*
%TO.P,U6,A16,VCCO_15*%
%TO.N,/FPGA/FPGA pg.1/VCCO15*%
X186450000Y-135950000D03*
%TO.P,U6,A17,IO_L15N_T2_DQS_ADV_B_15*%
%TO.N,unconnected-(U6A-IO_L15N_T2_DQS_ADV_B_15-PadA17)*%
X187250000Y-135950000D03*
%TO.P,U6,A18,GND*%
%TO.N,GND*%
X188050000Y-135950000D03*
%TO.P,U6,B1,MGTPTXN3_216*%
%TO.N,/FPGA/FPGA pg.3/GTP3_TX-*%
X174450000Y-136750000D03*
%TO.P,U6,B2,MGTPTXP3_216*%
%TO.N,/FPGA/FPGA pg.3/GTP3_TX+*%
X175250000Y-136750000D03*
%TO.P,U6,B3,GND*%
%TO.N,GND*%
X176050000Y-136750000D03*
%TO.P,U6,B4,MGTAVCC*%
%TO.N,+V1P0*%
X176850000Y-136750000D03*
%TO.P,U6,B5,MGTREFCLK1N_216*%
%TO.N,/FPGA/FPGA pg.3/GT_REFCLK1+*%
X177650000Y-136750000D03*
%TO.P,U6,B6,MGTREFCLK1P_216*%
X178450000Y-136750000D03*
%TO.P,U6,B7,GND*%
%TO.N,GND*%
X179250000Y-136750000D03*
%TO.P,U6,B8,GND*%
X180050000Y-136750000D03*
%TO.P,U6,B9,IO_L3P_T0_DQS_AD1P_15*%
%TO.N,/DDR3_LDQS+*%
X180850000Y-136750000D03*
%TO.P,U6,B10,IO_L5P_T0_AD9P_15*%
%TO.N,/DDR3_DQ5*%
X181650000Y-136750000D03*
%TO.P,U6,B11,IO_L4N_T0_15*%
%TO.N,/DDR3_DQ4*%
X182450000Y-136750000D03*
%TO.P,U6,B12,IO_L7P_T1_AD2P_15*%
%TO.N,/DDR3_UDM*%
X183250000Y-136750000D03*
%TO.P,U6,B13,VCCO_15*%
%TO.N,/FPGA/FPGA pg.1/VCCO15*%
X184050000Y-136750000D03*
%TO.P,U6,B14,IO_L10P_T1_AD11P_15*%
%TO.N,/DDR3_DQ11*%
X184850000Y-136750000D03*
%TO.P,U6,B15,IO_L9N_T1_DQS_AD3N_15*%
%TO.N,/DDR3_UDQS-*%
X185650000Y-136750000D03*
%TO.P,U6,B16,IO_L15P_T2_DQS_15*%
%TO.N,unconnected-(U6A-IO_L15P_T2_DQS_15-PadB16)*%
X186450000Y-136750000D03*
%TO.P,U6,B17,IO_L16N_T2_A27_15*%
%TO.N,unconnected-(U6A-IO_L16N_T2_A27_15-PadB17)*%
X187250000Y-136750000D03*
%TO.P,U6,B18,GND*%
%TO.N,GND*%
X188050000Y-136750000D03*
%TO.P,U6,C1,MGTAVTT*%
%TO.N,+V1P2*%
X174450000Y-137550000D03*
%TO.P,U6,C2,GND*%
%TO.N,GND*%
X175250000Y-137550000D03*
%TO.P,U6,C3,MGTPRXN2_216*%
%TO.N,/FPGA/FPGA pg.3/GTP2_RX-*%
X176050000Y-137550000D03*
%TO.P,U6,C4,MGTPRXP2_216*%
%TO.N,/FPGA/FPGA pg.3/GTP2_RX+*%
X176850000Y-137550000D03*
%TO.P,U6,C5,MGTAVCC*%
%TO.N,+V1P0*%
X177650000Y-137550000D03*
%TO.P,U6,C6,GND*%
%TO.N,GND*%
X178450000Y-137550000D03*
%TO.P,U6,C7,GND*%
X179250000Y-137550000D03*
%TO.P,U6,C8,IO_L1N_T0_AD0N_15*%
%TO.N,/DDR3_DQ0*%
X180050000Y-137550000D03*
%TO.P,U6,C9,IO_L2N_T0_AD8N_15*%
%TO.N,/DDR3_DQ2*%
X180850000Y-137550000D03*
%TO.P,U6,C10,VCCO_15*%
%TO.N,/FPGA/FPGA pg.1/VCCO15*%
X181650000Y-137550000D03*
%TO.P,U6,C11,IO_L4P_T0_15*%
%TO.N,/DDR3_DQ3*%
X182450000Y-137550000D03*
%TO.P,U6,C12,IO_L6N_T0_VREF_15*%
%TO.N,unconnected-(U6A-IO_L6N_T0_VREF_15-PadC12)*%
X183250000Y-137550000D03*
%TO.P,U6,C13,IO_L11N_T1_SRCC_15*%
%TO.N,/DDR3_DQ14*%
X184050000Y-137550000D03*
%TO.P,U6,C14,IO_L9P_T1_DQS_AD3P_15*%
%TO.N,/DDR3_UDQS+*%
X184850000Y-137550000D03*
%TO.P,U6,C15,GND*%
%TO.N,GND*%
X185650000Y-137550000D03*
%TO.P,U6,C16,IO_L16P_T2_A28_15*%
%TO.N,unconnected-(U6A-IO_L16P_T2_A28_15-PadC16)*%
X186450000Y-137550000D03*
%TO.P,U6,C17,IO_L18P_T2_A24_15*%
%TO.N,unconnected-(U6A-IO_L18P_T2_A24_15-PadC17)*%
X187250000Y-137550000D03*
%TO.P,U6,C18,IO_L18N_T2_A23_15*%
%TO.N,unconnected-(U6A-IO_L18N_T2_A23_15-PadC18)*%
X188050000Y-137550000D03*
%TO.P,U6,D1,MGTPTXN2_216*%
%TO.N,/FPGA/FPGA pg.3/GTP2_TX-*%
X174450000Y-138350000D03*
%TO.P,U6,D2,MGTPTXP2_216*%
%TO.N,/FPGA/FPGA pg.3/GTP2_TX+*%
X175250000Y-138350000D03*
%TO.P,U6,D3,GND*%
%TO.N,GND*%
X176050000Y-138350000D03*
%TO.P,U6,D4,GND*%
X176850000Y-138350000D03*
%TO.P,U6,D5,MGTREFCLK0N_216*%
%TO.N,/FPGA/FPGA pg.3/GT_REFCLK0-*%
X177650000Y-138350000D03*
%TO.P,U6,D6,MGTREFCLK0P_216*%
%TO.N,/FPGA/FPGA pg.3/GT_REFCLK0+*%
X178450000Y-138350000D03*
%TO.P,U6,D7,GND*%
%TO.N,GND*%
X179250000Y-138350000D03*
%TO.P,U6,D8,IO_L1P_T0_AD0P_15*%
%TO.N,/DDR3_LDM*%
X180050000Y-138350000D03*
%TO.P,U6,D9,IO_L2P_T0_AD8P_15*%
%TO.N,/DDR3_DQ1*%
X180850000Y-138350000D03*
%TO.P,U6,D10,IO_0_15*%
%TO.N,unconnected-(U6A-IO_0_15-PadD10)*%
X181650000Y-138350000D03*
%TO.P,U6,D11,IO_L6P_T0_15*%
%TO.N,/DDR3_DQ7*%
X182450000Y-138350000D03*
%TO.P,U6,D12,GND*%
%TO.N,GND*%
X183250000Y-138350000D03*
%TO.P,U6,D13,IO_L11P_T1_SRCC_15*%
%TO.N,/DDR3_DQ13*%
X184050000Y-138350000D03*
%TO.P,U6,D14,IO_L12N_T1_MRCC_15*%
%TO.N,/DDR3_RESET#*%
X184850000Y-138350000D03*
%TO.P,U6,D15,IO_L13N_T2_MRCC_15*%
%TO.N,unconnected-(U6A-IO_L13N_T2_MRCC_15-PadD15)*%
X185650000Y-138350000D03*
%TO.P,U6,D16,IO_L14N_T2_SRCC_15*%
%TO.N,unconnected-(U6A-IO_L14N_T2_SRCC_15-PadD16)*%
X186450000Y-138350000D03*
%TO.P,U6,D17,VCCO_15*%
%TO.N,/FPGA/FPGA pg.1/VCCO15*%
X187250000Y-138350000D03*
%TO.P,U6,D18,IO_L17N_T2_A25_15*%
%TO.N,unconnected-(U6A-IO_L17N_T2_A25_15-PadD18)*%
X188050000Y-138350000D03*
%TO.P,U6,E1,MGTAVTT*%
%TO.N,+V1P2*%
X174450000Y-139150000D03*
%TO.P,U6,E2,GND*%
%TO.N,GND*%
X175250000Y-139150000D03*
%TO.P,U6,E3,MGTPRXN0_216*%
%TO.N,/FPGA/FPGA pg.3/GTP0_RX-*%
X176050000Y-139150000D03*
%TO.P,U6,E4,MGTPRXP0_216*%
%TO.N,/FPGA/FPGA pg.3/GTP0_RX+*%
X176850000Y-139150000D03*
%TO.P,U6,E5,MGTAVCC*%
%TO.N,+V1P0*%
X177650000Y-139150000D03*
%TO.P,U6,E6,GND*%
%TO.N,GND*%
X178450000Y-139150000D03*
%TO.P,U6,E7,GND*%
X179250000Y-139150000D03*
%TO.P,U6,E8,CCLK_0*%
%TO.N,/FPGA/FPGA pg.3/INT_FLASH_SPI_CLK*%
X180050000Y-139150000D03*
%TO.P,U6,E9,GND*%
%TO.N,GND*%
X180850000Y-139150000D03*
%TO.P,U6,E10,VCCO_0*%
%TO.N,/FPGA/FPGA pg.3/VCCO_0*%
X181650000Y-139150000D03*
%TO.P,U6,E11,VCCBATT_0*%
%TO.N,+V1P8*%
X182450000Y-139150000D03*
%TO.P,U6,E12,CFGBVS_0*%
%TO.N,unconnected-(U6E-CFGBVS_0-PadE12)*%
X183250000Y-139150000D03*
%TO.P,U6,E13,IO_L12P_T1_MRCC_15*%
%TO.N,/DDR3_DQ15*%
X184050000Y-139150000D03*
%TO.P,U6,E14,VCCO_15*%
%TO.N,/FPGA/FPGA pg.1/VCCO15*%
X184850000Y-139150000D03*
%TO.P,U6,E15,IO_L13P_T2_MRCC_15*%
%TO.N,unconnected-(U6A-IO_L13P_T2_MRCC_15-PadE15)*%
X185650000Y-139150000D03*
%TO.P,U6,E16,IO_L14P_T2_SRCC_15*%
%TO.N,unconnected-(U6A-IO_L14P_T2_SRCC_15-PadE16)*%
X186450000Y-139150000D03*
%TO.P,U6,E17,IO_L17P_T2_A26_15*%
%TO.N,unconnected-(U6A-IO_L17P_T2_A26_15-PadE17)*%
X187250000Y-139150000D03*
%TO.P,U6,E18,IO_L24N_T3_RS0_15*%
%TO.N,unconnected-(U6A-IO_L24N_T3_RS0_15-PadE18)*%
X188050000Y-139150000D03*
%TO.P,U6,F1,MGTPTXN1_216*%
%TO.N,/FPGA/FPGA pg.3/GTP1_TX-*%
X174450000Y-139950000D03*
%TO.P,U6,F2,MGTPTXP1_216*%
%TO.N,/FPGA/FPGA pg.3/GTP1_TX+*%
X175250000Y-139950000D03*
%TO.P,U6,F3,MGTAVTT*%
%TO.N,+V1P2*%
X176050000Y-139950000D03*
%TO.P,U6,F4,GND*%
%TO.N,GND*%
X176850000Y-139950000D03*
%TO.P,U6,F5,MGTAVCC*%
%TO.N,+V1P0*%
X177650000Y-139950000D03*
%TO.P,U6,F6,GND*%
%TO.N,GND*%
X178450000Y-139950000D03*
%TO.P,U6,F7,VCCINT*%
%TO.N,/FPGA/FPGA pg.4/VCCINT*%
X179250000Y-139950000D03*
%TO.P,U6,F8,TCK_0*%
%TO.N,/FPGA/FPGA pg.3/JTAG.TCK*%
X180050000Y-139950000D03*
%TO.P,U6,F9,VCCINT*%
%TO.N,/FPGA/FPGA pg.4/VCCINT*%
X180850000Y-139950000D03*
%TO.P,U6,F10,GND*%
%TO.N,GND*%
X181650000Y-139950000D03*
%TO.P,U6,F11,VCCBRAM*%
%TO.N,+V1P0*%
X182450000Y-139950000D03*
%TO.P,U6,F12,DONE_0*%
%TO.N,unconnected-(U6E-DONE_0-PadF12)*%
X183250000Y-139950000D03*
%TO.P,U6,F13,M2_0*%
%TO.N,unconnected-(U6E-M2_0-PadF13)*%
X184050000Y-139950000D03*
%TO.P,U6,F14,IO_L22N_T3_A16_15*%
%TO.N,unconnected-(U6A-IO_L22N_T3_A16_15-PadF14)*%
X184850000Y-139950000D03*
%TO.P,U6,F15,IO_L21N_T3_DQS_A18_15*%
%TO.N,unconnected-(U6A-IO_L21N_T3_DQS_A18_15-PadF15)*%
X185650000Y-139950000D03*
%TO.P,U6,F16,GND*%
%TO.N,GND*%
X186450000Y-139950000D03*
%TO.P,U6,F17,IO_L24P_T3_RS1_15*%
%TO.N,unconnected-(U6A-IO_L24P_T3_RS1_15-PadF17)*%
X187250000Y-139950000D03*
%TO.P,U6,F18,IO_L19N_T3_A21_VREF_15*%
%TO.N,unconnected-(U6A-IO_L19N_T3_A21_VREF_15-PadF18)*%
X188050000Y-139950000D03*
%TO.P,U6,G1,GND*%
%TO.N,GND*%
X174450000Y-140750000D03*
%TO.P,U6,G2,MGTAVTT*%
%TO.N,+V1P2*%
X175250000Y-140750000D03*
%TO.P,U6,G3,MGTPRXN3_216*%
%TO.N,/FPGA/FPGA pg.3/GTP3_RX-*%
X176050000Y-140750000D03*
%TO.P,U6,G4,MGTPRXP3_216*%
%TO.N,/FPGA/FPGA pg.3/GTP3_RX+*%
X176850000Y-140750000D03*
%TO.P,U6,G5,GND*%
%TO.N,GND*%
X177650000Y-140750000D03*
%TO.P,U6,G6,GND*%
X178450000Y-140750000D03*
%TO.P,U6,G7,GND*%
X179250000Y-140750000D03*
%TO.P,U6,G8,VCCINT*%
%TO.N,/FPGA/FPGA pg.4/VCCINT*%
X180050000Y-140750000D03*
%TO.P,U6,G9,GND*%
%TO.N,GND*%
X180850000Y-140750000D03*
%TO.P,U6,G10,VCCBRAM*%
%TO.N,+V1P0*%
X181650000Y-140750000D03*
%TO.P,U6,G11,GND*%
%TO.N,GND*%
X182450000Y-140750000D03*
%TO.P,U6,G12,VCCAUX*%
%TO.N,+V1P8*%
X183250000Y-140750000D03*
%TO.P,U6,G13,GND*%
%TO.N,GND*%
X184050000Y-140750000D03*
%TO.P,U6,G14,IO_L22P_T3_A17_15*%
%TO.N,unconnected-(U6A-IO_L22P_T3_A17_15-PadG14)*%
X184850000Y-140750000D03*
%TO.P,U6,G15,IO_L21P_T3_DQS_15*%
%TO.N,unconnected-(U6A-IO_L21P_T3_DQS_15-PadG15)*%
X185650000Y-140750000D03*
%TO.P,U6,G16,IO_L20N_T3_A19_15*%
%TO.N,unconnected-(U6A-IO_L20N_T3_A19_15-PadG16)*%
X186450000Y-140750000D03*
%TO.P,U6,G17,IO_L19P_T3_A22_15*%
%TO.N,unconnected-(U6A-IO_L19P_T3_A22_15-PadG17)*%
X187250000Y-140750000D03*
%TO.P,U6,G18,VCCO_15*%
%TO.N,/FPGA/FPGA pg.1/VCCO15*%
X188050000Y-140750000D03*
%TO.P,U6,H1,MGTPTXN0_216*%
%TO.N,/FPGA/FPGA pg.3/GTP0_TX-*%
X174450000Y-141550000D03*
%TO.P,U6,H2,MGTPTXP0_216*%
%TO.N,/FPGA/FPGA pg.3/GTP0_TX+*%
X175250000Y-141550000D03*
%TO.P,U6,H3,GND*%
%TO.N,GND*%
X176050000Y-141550000D03*
%TO.P,U6,H4,GND*%
X176850000Y-141550000D03*
%TO.P,U6,H5,GND*%
X177650000Y-141550000D03*
%TO.P,U6,H6,GND*%
X178450000Y-141550000D03*
%TO.P,U6,H7,VCCINT*%
%TO.N,/FPGA/FPGA pg.4/VCCINT*%
X179250000Y-141550000D03*
%TO.P,U6,H8,GND*%
%TO.N,GND*%
X180050000Y-141550000D03*
%TO.P,U6,H9,VCCINT*%
%TO.N,/FPGA/FPGA pg.4/VCCINT*%
X180850000Y-141550000D03*
%TO.P,U6,H10,GND*%
%TO.N,GND*%
X181650000Y-141550000D03*
%TO.P,U6,H11,VCCBRAM*%
%TO.N,+V1P0*%
X182450000Y-141550000D03*
%TO.P,U6,H12,GND*%
%TO.N,GND*%
X183250000Y-141550000D03*
%TO.P,U6,H13,VCCAUX*%
%TO.N,+V1P8*%
X184050000Y-141550000D03*
%TO.P,U6,H14,IO_25_15*%
%TO.N,unconnected-(U6A-IO_25_15-PadH14)*%
X184850000Y-141550000D03*
%TO.P,U6,H15,VCCO_15*%
%TO.N,/FPGA/FPGA pg.1/VCCO15*%
X185650000Y-141550000D03*
%TO.P,U6,H16,IO_L20P_T3_A20_15*%
%TO.N,unconnected-(U6A-IO_L20P_T3_A20_15-PadH16)*%
X186450000Y-141550000D03*
%TO.P,U6,H17,IO_L23P_T3_FOE_B_15*%
%TO.N,unconnected-(U6A-IO_L23P_T3_FOE_B_15-PadH17)*%
X187250000Y-141550000D03*
%TO.P,U6,H18,IO_L23N_T3_FWE_B_15*%
%TO.N,unconnected-(U6A-IO_L23N_T3_FWE_B_15-PadH18)*%
X188050000Y-141550000D03*
%TO.P,U6,J1,GND*%
%TO.N,GND*%
X174450000Y-142350000D03*
%TO.P,U6,J2,GND*%
X175250000Y-142350000D03*
%TO.P,U6,J3,GND*%
X176050000Y-142350000D03*
%TO.P,U6,J4,IO_L2N_T0_34*%
%TO.N,unconnected-(U6B-IO_L2N_T0_34-PadJ4)*%
X176850000Y-142350000D03*
%TO.P,U6,J5,IO_L2P_T0_34*%
%TO.N,unconnected-(U6B-IO_L2P_T0_34-PadJ5)*%
X177650000Y-142350000D03*
%TO.P,U6,J6,IO_0_34*%
%TO.N,unconnected-(U6B-IO_0_34-PadJ6)*%
X178450000Y-142350000D03*
%TO.P,U6,J7,GND*%
%TO.N,GND*%
X179250000Y-142350000D03*
%TO.P,U6,J8,VCCINT*%
%TO.N,/FPGA/FPGA pg.4/VCCINT*%
X180050000Y-142350000D03*
%TO.P,U6,J9,GNDADC_0*%
%TO.N,AGND*%
X180850000Y-142350000D03*
%TO.P,U6,J10,VCCADC_0*%
%TO.N,+V1P8*%
X181650000Y-142350000D03*
%TO.P,U6,J11,GND*%
%TO.N,GND*%
X182450000Y-142350000D03*
%TO.P,U6,J12,VCCINT*%
%TO.N,/FPGA/FPGA pg.4/VCCINT*%
X183250000Y-142350000D03*
%TO.P,U6,J13,GND*%
%TO.N,GND*%
X184050000Y-142350000D03*
%TO.P,U6,J14,IO_L5P_T0_D06_14*%
%TO.N,unconnected-(U6A-IO_L5P_T0_D06_14-PadJ14)*%
X184850000Y-142350000D03*
%TO.P,U6,J15,IO_L2P_T0_D02_14*%
%TO.N,/FPGA/FPGA pg.1/INT_FLASH_SPI_D2*%
X185650000Y-142350000D03*
%TO.P,U6,J16,IO_L2N_T0_D03_14*%
%TO.N,/FPGA/FPGA pg.1/INT_FLASH_SPI_D3*%
X186450000Y-142350000D03*
%TO.P,U6,J17,GND*%
%TO.N,GND*%
X187250000Y-142350000D03*
%TO.P,U6,J18,IO_L3P_T0_DQS_PUDC_B_14*%
%TO.N,unconnected-(U6A-IO_L3P_T0_DQS_PUDC_B_14-PadJ18)*%
X188050000Y-142350000D03*
%TO.P,U6,K1,IO_L3N_T0_DQS_34*%
%TO.N,unconnected-(U6B-IO_L3N_T0_DQS_34-PadK1)*%
X174450000Y-143150000D03*
%TO.P,U6,K2,IO_L3P_T0_DQS_34*%
%TO.N,unconnected-(U6B-IO_L3P_T0_DQS_34-PadK2)*%
X175250000Y-143150000D03*
%TO.P,U6,K3,IO_L4P_T0_34*%
%TO.N,unconnected-(U6B-IO_L4P_T0_34-PadK3)*%
X176050000Y-143150000D03*
%TO.P,U6,K4,GND*%
%TO.N,GND*%
X176850000Y-143150000D03*
%TO.P,U6,K5,IO_L1N_T0_34*%
%TO.N,unconnected-(U6B-IO_L1N_T0_34-PadK5)*%
X177650000Y-143150000D03*
%TO.P,U6,K6,IO_L1P_T0_34*%
%TO.N,unconnected-(U6B-IO_L1P_T0_34-PadK6)*%
X178450000Y-143150000D03*
%TO.P,U6,K7,VCCINT*%
%TO.N,/FPGA/FPGA pg.4/VCCINT*%
X179250000Y-143150000D03*
%TO.P,U6,K8,GND*%
%TO.N,GND*%
X180050000Y-143150000D03*
%TO.P,U6,K9,VREFN_0*%
%TO.N,unconnected-(U6E-VREFN_0-PadK9)*%
X180850000Y-143150000D03*
%TO.P,U6,K10,VP_0*%
%TO.N,unconnected-(U6E-VP_0-PadK10)*%
X181650000Y-143150000D03*
%TO.P,U6,K11,VCCINT*%
%TO.N,/FPGA/FPGA pg.4/VCCINT*%
X182450000Y-143150000D03*
%TO.P,U6,K12,GND*%
%TO.N,GND*%
X183250000Y-143150000D03*
%TO.P,U6,K13,VCCAUX*%
%TO.N,+V1P8*%
X184050000Y-143150000D03*
%TO.P,U6,K14,GND*%
%TO.N,GND*%
X184850000Y-143150000D03*
%TO.P,U6,K15,IO_L5N_T0_D07_14*%
%TO.N,unconnected-(U6A-IO_L5N_T0_D07_14-PadK15)*%
X185650000Y-143150000D03*
%TO.P,U6,K16,IO_L1P_T0_D00_MOSI_14*%
%TO.N,/FPGA/FPGA pg.1/INT_FLASH_SPI_D0*%
X186450000Y-143150000D03*
%TO.P,U6,K17,IO_L4P_T0_D04_14*%
%TO.N,unconnected-(U6A-IO_L4P_T0_D04_14-PadK17)*%
X187250000Y-143150000D03*
%TO.P,U6,K18,IO_L3N_T0_DQS_EMCCLK_14*%
%TO.N,unconnected-(U6A-IO_L3N_T0_DQS_EMCCLK_14-PadK18)*%
X188050000Y-143150000D03*
%TO.P,U6,L1,GND*%
%TO.N,GND*%
X174450000Y-143950000D03*
%TO.P,U6,L2,IO_L4N_T0_34*%
%TO.N,unconnected-(U6B-IO_L4N_T0_34-PadL2)*%
X175250000Y-143950000D03*
%TO.P,U6,L3,IO_L5N_T0_34*%
%TO.N,unconnected-(U6B-IO_L5N_T0_34-PadL3)*%
X176050000Y-143950000D03*
%TO.P,U6,L4,IO_L5P_T0_34*%
%TO.N,unconnected-(U6B-IO_L5P_T0_34-PadL4)*%
X176850000Y-143950000D03*
%TO.P,U6,L5,IO_L6P_T0_34*%
%TO.N,unconnected-(U6B-IO_L6P_T0_34-PadL5)*%
X177650000Y-143950000D03*
%TO.P,U6,L6,VCCO_34*%
%TO.N,/FPGA/FPGA pg.2/VCCO34*%
X178450000Y-143950000D03*
%TO.P,U6,L7,GND*%
%TO.N,GND*%
X179250000Y-143950000D03*
%TO.P,U6,L8,VCCINT*%
%TO.N,/FPGA/FPGA pg.4/VCCINT*%
X180050000Y-143950000D03*
%TO.P,U6,L9,VN_0*%
%TO.N,unconnected-(U6E-VN_0-PadL9)*%
X180850000Y-143950000D03*
%TO.P,U6,L10,VREFP_0*%
%TO.N,unconnected-(U6E-VREFP_0-PadL10)*%
X181650000Y-143950000D03*
%TO.P,U6,L11,GND*%
%TO.N,GND*%
X182450000Y-143950000D03*
%TO.P,U6,L12,VCCINT*%
%TO.N,/FPGA/FPGA pg.4/VCCINT*%
X183250000Y-143950000D03*
%TO.P,U6,L13,GND*%
%TO.N,GND*%
X184050000Y-143950000D03*
%TO.P,U6,L14,IO_0_14*%
%TO.N,unconnected-(U6A-IO_0_14-PadL14)*%
X184850000Y-143950000D03*
%TO.P,U6,L15,IO_L6P_T0_FCS_B_14*%
%TO.N,/FPGA/FPGA pg.1/INT_FLASH_SPI_CS#*%
X185650000Y-143950000D03*
%TO.P,U6,L16,VCCO_14*%
%TO.N,/FPGA/FPGA pg.1/VCCO14*%
X186450000Y-143950000D03*
%TO.P,U6,L17,IO_L1N_T0_D01_DIN_14*%
%TO.N,/FPGA/FPGA pg.1/INT_FLASH_SPI_D1*%
X187250000Y-143950000D03*
%TO.P,U6,L18,IO_L4N_T0_D05_14*%
%TO.N,unconnected-(U6A-IO_L4N_T0_D05_14-PadL18)*%
X188050000Y-143950000D03*
%TO.P,U6,M1,IO_L7N_T1_34*%
%TO.N,unconnected-(U6B-IO_L7N_T1_34-PadM1)*%
X174450000Y-144750000D03*
%TO.P,U6,M2,IO_L7P_T1_34*%
%TO.N,unconnected-(U6B-IO_L7P_T1_34-PadM2)*%
X175250000Y-144750000D03*
%TO.P,U6,M3,VCCO_34*%
%TO.N,/FPGA/FPGA pg.2/VCCO34*%
X176050000Y-144750000D03*
%TO.P,U6,M4,IO_L10P_T1_34*%
%TO.N,unconnected-(U6B-IO_L10P_T1_34-PadM4)*%
X176850000Y-144750000D03*
%TO.P,U6,M5,IO_L6N_T0_VREF_34*%
%TO.N,unconnected-(U6B-IO_L6N_T0_VREF_34-PadM5)*%
X177650000Y-144750000D03*
%TO.P,U6,M6,IO_L8P_T1_34*%
%TO.N,unconnected-(U6B-IO_L8P_T1_34-PadM6)*%
X178450000Y-144750000D03*
%TO.P,U6,M7,VCCINT*%
%TO.N,/FPGA/FPGA pg.4/VCCINT*%
X179250000Y-144750000D03*
%TO.P,U6,M8,GND*%
%TO.N,GND*%
X180050000Y-144750000D03*
%TO.P,U6,M9,DXN_0*%
%TO.N,unconnected-(U6E-DXN_0-PadM9)*%
X180850000Y-144750000D03*
%TO.P,U6,M10,DXP_0*%
%TO.N,unconnected-(U6E-DXP_0-PadM10)*%
X181650000Y-144750000D03*
%TO.P,U6,M11,VCCINT*%
%TO.N,/FPGA/FPGA pg.4/VCCINT*%
X182450000Y-144750000D03*
%TO.P,U6,M12,GND*%
%TO.N,GND*%
X183250000Y-144750000D03*
%TO.P,U6,M13,VCCAUX*%
%TO.N,+V1P8*%
X184050000Y-144750000D03*
%TO.P,U6,M14,IO_L8P_T1_D11_14*%
%TO.N,/DDR3_ADDR12*%
X184850000Y-144750000D03*
%TO.P,U6,M15,IO_L6N_T0_D08_VREF_14*%
%TO.N,unconnected-(U6A-IO_L6N_T0_D08_VREF_14-PadM15)*%
X185650000Y-144750000D03*
%TO.P,U6,M16,IO_L7P_T1_D09_14*%
%TO.N,/DDR3_ADDR14*%
X186450000Y-144750000D03*
%TO.P,U6,M17,IO_L7N_T1_D10_14*%
%TO.N,/DDR3_ADDR13*%
X187250000Y-144750000D03*
%TO.P,U6,M18,GND*%
%TO.N,GND*%
X188050000Y-144750000D03*
%TO.P,U6,N1,IO_L9P_T1_DQS_34*%
%TO.N,unconnected-(U6B-IO_L9P_T1_DQS_34-PadN1)*%
X174450000Y-145550000D03*
%TO.P,U6,N2,IO_L11N_T1_SRCC_34*%
%TO.N,unconnected-(U6B-IO_L11N_T1_SRCC_34-PadN2)*%
X175250000Y-145550000D03*
%TO.P,U6,N3,IO_L11P_T1_SRCC_34*%
%TO.N,unconnected-(U6B-IO_L11P_T1_SRCC_34-PadN3)*%
X176050000Y-145550000D03*
%TO.P,U6,N4,IO_L10N_T1_34*%
%TO.N,unconnected-(U6B-IO_L10N_T1_34-PadN4)*%
X176850000Y-145550000D03*
%TO.P,U6,N5,GND*%
%TO.N,GND*%
X177650000Y-145550000D03*
%TO.P,U6,N6,IO_L8N_T1_34*%
%TO.N,unconnected-(U6B-IO_L8N_T1_34-PadN6)*%
X178450000Y-145550000D03*
%TO.P,U6,N7,GND*%
%TO.N,GND*%
X179250000Y-145550000D03*
%TO.P,U6,N8,VCCINT*%
%TO.N,/FPGA/FPGA pg.4/VCCINT*%
X180050000Y-145550000D03*
%TO.P,U6,N9,GND*%
%TO.N,GND*%
X180850000Y-145550000D03*
%TO.P,U6,N10,VCCINT*%
%TO.N,/FPGA/FPGA pg.4/VCCINT*%
X181650000Y-145550000D03*
%TO.P,U6,N11,GND*%
%TO.N,GND*%
X182450000Y-145550000D03*
%TO.P,U6,N12,VCCINT*%
%TO.N,/FPGA/FPGA pg.4/VCCINT*%
X183250000Y-145550000D03*
%TO.P,U6,N13,GND*%
%TO.N,GND*%
X184050000Y-145550000D03*
%TO.P,U6,N14,IO_L8N_T1_D12_14*%
%TO.N,/DDR3_ADDR11*%
X184850000Y-145550000D03*
%TO.P,U6,N15,GND*%
%TO.N,GND*%
X185650000Y-145550000D03*
%TO.P,U6,N16,IO_L9P_T1_DQS_14*%
%TO.N,/DDR3_ADDR10*%
X186450000Y-145550000D03*
%TO.P,U6,N17,IO_L9N_T1_DQS_D13_14*%
%TO.N,/DDR3_ADDR9*%
X187250000Y-145550000D03*
%TO.P,U6,N18,IO_L10P_T1_D14_14*%
%TO.N,/DDR3_ADDR8*%
X188050000Y-145550000D03*
%TO.P,U6,P1,IO_L9N_T1_DQS_34*%
%TO.N,unconnected-(U6B-IO_L9N_T1_DQS_34-PadP1)*%
X174450000Y-146350000D03*
%TO.P,U6,P2,GND*%
%TO.N,GND*%
X175250000Y-146350000D03*
%TO.P,U6,P3,IO_L12N_T1_MRCC_34*%
%TO.N,unconnected-(U6B-IO_L12N_T1_MRCC_34-PadP3)*%
X176050000Y-146350000D03*
%TO.P,U6,P4,IO_L12P_T1_MRCC_34*%
%TO.N,unconnected-(U6B-IO_L12P_T1_MRCC_34-PadP4)*%
X176850000Y-146350000D03*
%TO.P,U6,P5,IO_L19N_T3_VREF_34*%
%TO.N,unconnected-(U6B-IO_L19N_T3_VREF_34-PadP5)*%
X177650000Y-146350000D03*
%TO.P,U6,P6,IO_L19P_T3_34*%
%TO.N,unconnected-(U6B-IO_L19P_T3_34-PadP6)*%
X178450000Y-146350000D03*
%TO.P,U6,P7,VCCO_34*%
%TO.N,/FPGA/FPGA pg.2/VCCO34*%
X179250000Y-146350000D03*
%TO.P,U6,P8,GND*%
%TO.N,GND*%
X180050000Y-146350000D03*
%TO.P,U6,P9,VCCINT*%
%TO.N,/FPGA/FPGA pg.4/VCCINT*%
X180850000Y-146350000D03*
%TO.P,U6,P10,PROGRAM_B_0*%
%TO.N,unconnected-(U6E-PROGRAM_B_0-PadP10)*%
X181650000Y-146350000D03*
%TO.P,U6,P11,VCCINT*%
%TO.N,/FPGA/FPGA pg.4/VCCINT*%
X182450000Y-146350000D03*
%TO.P,U6,P12,GND*%
%TO.N,GND*%
X183250000Y-146350000D03*
%TO.P,U6,P13,VCCAUX*%
%TO.N,+V1P8*%
X184050000Y-146350000D03*
%TO.P,U6,P14,IO_L12P_T1_MRCC_14*%
%TO.N,/DDR3_ADDR4*%
X184850000Y-146350000D03*
%TO.P,U6,P15,IO_L11P_T1_SRCC_14*%
%TO.N,/DDR3_ADDR6*%
X185650000Y-146350000D03*
%TO.P,U6,P16,IO_L11N_T1_SRCC_14*%
%TO.N,/DDR3_ADDR5*%
X186450000Y-146350000D03*
%TO.P,U6,P17,VCCO_14*%
%TO.N,/FPGA/FPGA pg.1/VCCO14*%
X187250000Y-146350000D03*
%TO.P,U6,P18,IO_L10N_T1_D15_14*%
%TO.N,/DDR3_ADDR7*%
X188050000Y-146350000D03*
%TO.P,U6,R1,IO_L13N_T2_MRCC_34*%
%TO.N,unconnected-(U6B-IO_L13N_T2_MRCC_34-PadR1)*%
X174450000Y-147150000D03*
%TO.P,U6,R2,IO_L13P_T2_MRCC_34*%
%TO.N,unconnected-(U6B-IO_L13P_T2_MRCC_34-PadR2)*%
X175250000Y-147150000D03*
%TO.P,U6,R3,IO_L14P_T2_SRCC_34*%
%TO.N,unconnected-(U6B-IO_L14P_T2_SRCC_34-PadR3)*%
X176050000Y-147150000D03*
%TO.P,U6,R4,VCCO_34*%
%TO.N,/FPGA/FPGA pg.2/VCCO34*%
X176850000Y-147150000D03*
%TO.P,U6,R5,IO_L21P_T3_DQS_34*%
%TO.N,unconnected-(U6B-IO_L21P_T3_DQS_34-PadR5)*%
X177650000Y-147150000D03*
%TO.P,U6,R6,IO_25_34*%
%TO.N,unconnected-(U6B-IO_25_34-PadR6)*%
X178450000Y-147150000D03*
%TO.P,U6,R7,IO_L22P_T3_34*%
%TO.N,unconnected-(U6B-IO_L22P_T3_34-PadR7)*%
X179250000Y-147150000D03*
%TO.P,U6,R8,TMS_0*%
%TO.N,/FPGA/FPGA pg.3/JTAG.TMS*%
X180050000Y-147150000D03*
%TO.P,U6,R9,GND*%
%TO.N,GND*%
X180850000Y-147150000D03*
%TO.P,U6,R10,VCCO_0*%
%TO.N,/FPGA/FPGA pg.3/VCCO_0*%
X181650000Y-147150000D03*
%TO.P,U6,R11,M1_0*%
%TO.N,unconnected-(U6E-M1_0-PadR11)*%
X182450000Y-147150000D03*
%TO.P,U6,R12,M0_0*%
%TO.N,unconnected-(U6E-M0_0-PadR12)*%
X183250000Y-147150000D03*
%TO.P,U6,R13,IO_L19P_T3_A10_D26_14*%
%TO.N,/DDR3_CLK_EN*%
X184050000Y-147150000D03*
%TO.P,U6,R14,VCCO_14*%
%TO.N,/FPGA/FPGA pg.1/VCCO14*%
X184850000Y-147150000D03*
%TO.P,U6,R15,IO_L12N_T1_MRCC_14*%
%TO.N,/DDR3_ADDR3*%
X185650000Y-147150000D03*
%TO.P,U6,R16,IO_L14P_T2_SRCC_14*%
%TO.N,/DDR3_ADDR2*%
X186450000Y-147150000D03*
%TO.P,U6,R17,IO_L14N_T2_SRCC_14*%
%TO.N,/DDR3_ADDR1*%
X187250000Y-147150000D03*
%TO.P,U6,R18,IO_L15P_T2_DQS_RDWR_B_14*%
%TO.N,/DDR3_ADDR0*%
X188050000Y-147150000D03*
%TO.P,U6,T1,VCCO_34*%
%TO.N,/FPGA/FPGA pg.2/VCCO34*%
X174450000Y-147950000D03*
%TO.P,U6,T2,IO_L14N_T2_SRCC_34*%
%TO.N,unconnected-(U6B-IO_L14N_T2_SRCC_34-PadT2)*%
X175250000Y-147950000D03*
%TO.P,U6,T3,IO_L17N_T2_34*%
%TO.N,unconnected-(U6B-IO_L17N_T2_34-PadT3)*%
X176050000Y-147950000D03*
%TO.P,U6,T4,IO_L17P_T2_34*%
%TO.N,unconnected-(U6B-IO_L17P_T2_34-PadT4)*%
X176850000Y-147950000D03*
%TO.P,U6,T5,IO_L21N_T3_DQS_34*%
%TO.N,unconnected-(U6B-IO_L21N_T3_DQS_34-PadT5)*%
X177650000Y-147950000D03*
%TO.P,U6,T6,GND*%
%TO.N,GND*%
X178450000Y-147950000D03*
%TO.P,U6,T7,IO_L22N_T3_34*%
%TO.N,unconnected-(U6B-IO_L22N_T3_34-PadT7)*%
X179250000Y-147950000D03*
%TO.P,U6,T8,TDO_0*%
%TO.N,/FPGA/FPGA pg.3/JTAG.TDO*%
X180050000Y-147950000D03*
%TO.P,U6,T9,TDI_0*%
%TO.N,/FPGA/FPGA pg.3/JTAG.TDI*%
X180850000Y-147950000D03*
%TO.P,U6,T10,INIT_B_0*%
%TO.N,unconnected-(U6E-INIT_B_0-PadT10)*%
X181650000Y-147950000D03*
%TO.P,U6,T11,VCCO_14*%
%TO.N,/FPGA/FPGA pg.1/VCCO14*%
X182450000Y-147950000D03*
%TO.P,U6,T12,IO_L22P_T3_A05_D21_14*%
%TO.N,unconnected-(U6A-IO_L22P_T3_A05_D21_14-PadT12)*%
X183250000Y-147950000D03*
%TO.P,U6,T13,IO_L19N_T3_A09_D25_VREF_14*%
%TO.N,unconnected-(U6A-IO_L19N_T3_A09_D25_VREF_14-PadT13)*%
X184050000Y-147950000D03*
%TO.P,U6,T14,IO_L13P_T2_MRCC_14*%
%TO.N,unconnected-(U6A-IO_L13P_T2_MRCC_14-PadT14)*%
X184850000Y-147950000D03*
%TO.P,U6,T15,IO_L13N_T2_MRCC_14*%
%TO.N,unconnected-(U6A-IO_L13N_T2_MRCC_14-PadT15)*%
X185650000Y-147950000D03*
%TO.P,U6,T16,GND*%
%TO.N,GND*%
X186450000Y-147950000D03*
%TO.P,U6,T17,IO_L16P_T2_CSI_B_14*%
%TO.N,/DDR3_BLOCK_ADDR1*%
X187250000Y-147950000D03*
%TO.P,U6,T18,IO_L15N_T2_DQS_DOUT_CSO_B_14*%
%TO.N,/DDR3_BLOCK_ADDR2*%
X188050000Y-147950000D03*
%TO.P,U6,U1,IO_L15N_T2_DQS_34*%
%TO.N,unconnected-(U6B-IO_L15N_T2_DQS_34-PadU1)*%
X174450000Y-148750000D03*
%TO.P,U6,U2,IO_L15P_T2_DQS_34*%
%TO.N,unconnected-(U6B-IO_L15P_T2_DQS_34-PadU2)*%
X175250000Y-148750000D03*
%TO.P,U6,U3,GND*%
%TO.N,GND*%
X176050000Y-148750000D03*
%TO.P,U6,U4,IO_L18P_T2_34*%
%TO.N,unconnected-(U6B-IO_L18P_T2_34-PadU4)*%
X176850000Y-148750000D03*
%TO.P,U6,U5,IO_L20N_T3_34*%
%TO.N,unconnected-(U6B-IO_L20N_T3_34-PadU5)*%
X177650000Y-148750000D03*
%TO.P,U6,U6,IO_L20P_T3_34*%
%TO.N,unconnected-(U6B-IO_L20P_T3_34-PadU6)*%
X178450000Y-148750000D03*
%TO.P,U6,U7,IO_L23P_T3_34*%
%TO.N,unconnected-(U6B-IO_L23P_T3_34-PadU7)*%
X179250000Y-148750000D03*
%TO.P,U6,U8,VCCO_14*%
%TO.N,/FPGA/FPGA pg.1/VCCO14*%
X180050000Y-148750000D03*
%TO.P,U6,U9,IO_L24P_T3_A01_D17_14*%
%TO.N,unconnected-(U6A-IO_L24P_T3_A01_D17_14-PadU9)*%
X180850000Y-148750000D03*
%TO.P,U6,U10,IO_25_14*%
%TO.N,unconnected-(U6A-IO_25_14-PadU10)*%
X181650000Y-148750000D03*
%TO.P,U6,U11,IO_L23P_T3_A03_D19_14*%
%TO.N,unconnected-(U6A-IO_L23P_T3_A03_D19_14-PadU11)*%
X182450000Y-148750000D03*
%TO.P,U6,U12,IO_L22N_T3_A04_D20_14*%
%TO.N,unconnected-(U6A-IO_L22N_T3_A04_D20_14-PadU12)*%
X183250000Y-148750000D03*
%TO.P,U6,U13,GND*%
%TO.N,GND*%
X184050000Y-148750000D03*
%TO.P,U6,U14,IO_L20P_T3_A08_D24_14*%
%TO.N,/DDR3_ODT*%
X184850000Y-148750000D03*
%TO.P,U6,U15,IO_L17P_T2_A14_D30_14*%
%TO.N,/DDR3_RAS#*%
X185650000Y-148750000D03*
%TO.P,U6,U16,IO_L17N_T2_A13_D29_14*%
%TO.N,/DDR3_CAS#*%
X186450000Y-148750000D03*
%TO.P,U6,U17,IO_L16N_T2_A15_D31_14*%
%TO.N,/DDR3_BLOCK_ADDR0*%
X187250000Y-148750000D03*
%TO.P,U6,U18,VCCO_14*%
%TO.N,/FPGA/FPGA pg.1/VCCO14*%
X188050000Y-148750000D03*
%TO.P,U6,V1,GND*%
%TO.N,GND*%
X174450000Y-149550000D03*
%TO.P,U6,V2,IO_L16N_T2_34*%
%TO.N,unconnected-(U6B-IO_L16N_T2_34-PadV2)*%
X175250000Y-149550000D03*
%TO.P,U6,V3,IO_L16P_T2_34*%
%TO.N,unconnected-(U6B-IO_L16P_T2_34-PadV3)*%
X176050000Y-149550000D03*
%TO.P,U6,V4,IO_L18N_T2_34*%
%TO.N,unconnected-(U6B-IO_L18N_T2_34-PadV4)*%
X176850000Y-149550000D03*
%TO.P,U6,V5,VCCO_34*%
%TO.N,/FPGA/FPGA pg.2/VCCO34*%
X177650000Y-149550000D03*
%TO.P,U6,V6,IO_L23N_T3_34*%
%TO.N,unconnected-(U6B-IO_L23N_T3_34-PadV6)*%
X178450000Y-149550000D03*
%TO.P,U6,V7,IO_L24N_T3_34*%
%TO.N,unconnected-(U6B-IO_L24N_T3_34-PadV7)*%
X179250000Y-149550000D03*
%TO.P,U6,V8,IO_L24P_T3_34*%
%TO.N,unconnected-(U6B-IO_L24P_T3_34-PadV8)*%
X180050000Y-149550000D03*
%TO.P,U6,V9,IO_L24N_T3_A00_D16_14*%
%TO.N,unconnected-(U6A-IO_L24N_T3_A00_D16_14-PadV9)*%
X180850000Y-149550000D03*
%TO.P,U6,V10,GND*%
%TO.N,GND*%
X181650000Y-149550000D03*
%TO.P,U6,V11,IO_L23N_T3_A02_D18_14*%
%TO.N,unconnected-(U6A-IO_L23N_T3_A02_D18_14-PadV11)*%
X182450000Y-149550000D03*
%TO.P,U6,V12,IO_L21P_T3_DQS_14*%
%TO.N,/DDR3_CLK+*%
X183250000Y-149550000D03*
%TO.P,U6,V13,IO_L21N_T3_DQS_A06_D22_14*%
%TO.N,/DDR3_CLK-*%
X184050000Y-149550000D03*
%TO.P,U6,V14,IO_L20N_T3_A07_D23_14*%
%TO.N,unconnected-(U6A-IO_L20N_T3_A07_D23_14-PadV14)*%
X184850000Y-149550000D03*
%TO.P,U6,V15,VCCO_14*%
%TO.N,/FPGA/FPGA pg.1/VCCO14*%
X185650000Y-149550000D03*
%TO.P,U6,V16,IO_L18P_T2_A12_D28_14*%
%TO.N,/DDR3_WE#*%
X186450000Y-149550000D03*
%TO.P,U6,V17,IO_L18N_T2_A11_D27_14*%
%TO.N,/DDR3_CS#*%
X187250000Y-149550000D03*
%TO.P,U6,V18,GND*%
%TO.N,GND*%
X188050000Y-149550000D03*
%TD*%
D32*
%TO.P,C32,1*%
%TO.N,+V1P0*%
X176000000Y-132980000D03*
%TO.P,C32,2*%
%TO.N,GND*%
X176000000Y-132020000D03*
%TD*%
D12*
%TO.P,C3,1*%
%TO.N,+V1P8*%
X191020000Y-141000000D03*
%TO.P,C3,2*%
%TO.N,GND*%
X191980000Y-141000000D03*
%TD*%
D32*
%TO.P,C49,1*%
%TO.N,/FPGA/FPGA pg.1/VCCO15*%
X186500000Y-132980000D03*
%TO.P,C49,2*%
%TO.N,GND*%
X186500000Y-132020000D03*
%TD*%
%TO.P,C30,1*%
%TO.N,+V1P0*%
X173000000Y-132980000D03*
%TO.P,C30,2*%
%TO.N,GND*%
X173000000Y-132020000D03*
%TD*%
D39*
%TO.P,C7,1*%
%TO.N,+V1P0*%
X170975000Y-132000000D03*
%TO.P,C7,2*%
%TO.N,GND*%
X168025000Y-132000000D03*
%TD*%
D12*
%TO.P,C15,1*%
%TO.N,VCCADC*%
X237173900Y-78520402D03*
%TO.P,C15,2*%
%TO.N,AGND*%
X238133900Y-78520402D03*
%TD*%
%TO.P,C1,1*%
%TO.N,+V1P8*%
X191020000Y-144000000D03*
%TO.P,C1,2*%
%TO.N,GND*%
X191980000Y-144000000D03*
%TD*%
D40*
%TO.P,C43,1*%
%TO.N,/FPGA/FPGA pg.1/VCCO14*%
X191525000Y-153500000D03*
%TO.P,C43,2*%
%TO.N,GND*%
X194475000Y-153500000D03*
%TD*%
%TO.P,C9,1*%
%TO.N,/FPGA/FPGA pg.4/VCCINT*%
X179775000Y-129250000D03*
%TO.P,C9,2*%
%TO.N,GND*%
X182725000Y-129250000D03*
%TD*%
%TO.P,C63,1*%
%TO.N,/FPGA/FPGA pg.3/VCCO_0*%
X179775000Y-153750000D03*
%TO.P,C63,2*%
%TO.N,GND*%
X182725000Y-153750000D03*
%TD*%
D41*
%TO.P,U3,1*%
%TO.N,/USB/EXT_USB_D+*%
X193752500Y-98130000D03*
%TO.P,U3,2,VSS*%
%TO.N,GND*%
X193752500Y-99080000D03*
%TO.P,U3,3*%
%TO.N,unconnected-(U3-Pad3)*%
X193752500Y-100030000D03*
%TO.P,U3,4*%
%TO.N,unconnected-(U3-Pad4)*%
X196452500Y-100030000D03*
%TO.P,U3,5*%
%TO.N,VBUS*%
X196452500Y-99080000D03*
%TO.P,U3,6*%
%TO.N,/USB/EXT_USB_D-*%
X196452500Y-98130000D03*
%TD*%
D32*
%TO.P,C13,1*%
%TO.N,/FPGA/FPGA pg.4/VCCINT*%
X179000000Y-132980000D03*
%TO.P,C13,2*%
%TO.N,GND*%
X179000000Y-132020000D03*
%TD*%
D42*
%TO.P,J2,01,01*%
%TO.N,unconnected-(J2-Pad01)*%
X173750000Y-120865000D03*
%TO.P,J2,02,02*%
%TO.N,unconnected-(J2-Pad02)*%
X173750000Y-115135000D03*
%TO.P,J2,03,03*%
%TO.N,unconnected-(J2-Pad03)*%
X174250000Y-120865000D03*
%TO.P,J2,04,04*%
%TO.N,unconnected-(J2-Pad04)*%
X174250000Y-115135000D03*
%TO.P,J2,05,05*%
%TO.N,unconnected-(J2-Pad05)*%
X174750000Y-120865000D03*
%TO.P,J2,06,06*%
%TO.N,unconnected-(J2-Pad06)*%
X174750000Y-115135000D03*
%TO.P,J2,07,07*%
%TO.N,unconnected-(J2-Pad07)*%
X175250000Y-120865000D03*
%TO.P,J2,08,08*%
%TO.N,unconnected-(J2-Pad08)*%
X175250000Y-115135000D03*
%TO.P,J2,09,09*%
%TO.N,unconnected-(J2-Pad09)*%
X175750000Y-120865000D03*
%TO.P,J2,10,10*%
%TO.N,unconnected-(J2-Pad10)*%
X175750000Y-115135000D03*
%TO.P,J2,11,11*%
%TO.N,unconnected-(J2-Pad11)*%
X176250000Y-120865000D03*
%TO.P,J2,12,12*%
%TO.N,unconnected-(J2-Pad12)*%
X176250000Y-115135000D03*
%TO.P,J2,13,13*%
%TO.N,unconnected-(J2-Pad13)*%
X176750000Y-120865000D03*
%TO.P,J2,14,14*%
%TO.N,unconnected-(J2-Pad14)*%
X176750000Y-115135000D03*
%TO.P,J2,15,15*%
%TO.N,unconnected-(J2-Pad15)*%
X177250000Y-120865000D03*
%TO.P,J2,16,16*%
%TO.N,unconnected-(J2-Pad16)*%
X177250000Y-115135000D03*
%TO.P,J2,17,17*%
%TO.N,unconnected-(J2-Pad17)*%
X177750000Y-120865000D03*
%TO.P,J2,18,18*%
%TO.N,unconnected-(J2-Pad18)*%
X177750000Y-115135000D03*
%TO.P,J2,19,19*%
%TO.N,unconnected-(J2-Pad19)*%
X178250000Y-120865000D03*
%TO.P,J2,20,20*%
%TO.N,unconnected-(J2-Pad20)*%
X178250000Y-115135000D03*
%TO.P,J2,21,21*%
%TO.N,unconnected-(J2-Pad21)*%
X178750000Y-120865000D03*
%TO.P,J2,22,22*%
%TO.N,unconnected-(J2-Pad22)*%
X178750000Y-115135000D03*
%TO.P,J2,23,23*%
%TO.N,unconnected-(J2-Pad23)*%
X179250000Y-120865000D03*
%TO.P,J2,24,24*%
%TO.N,unconnected-(J2-Pad24)*%
X179250000Y-115135000D03*
%TO.P,J2,25,25*%
%TO.N,unconnected-(J2-Pad25)*%
X179750000Y-120865000D03*
%TO.P,J2,26,26*%
%TO.N,unconnected-(J2-Pad26)*%
X179750000Y-115135000D03*
%TO.P,J2,27,27*%
%TO.N,unconnected-(J2-Pad27)*%
X180250000Y-120865000D03*
%TO.P,J2,28,28*%
%TO.N,unconnected-(J2-Pad28)*%
X180250000Y-115135000D03*
%TO.P,J2,29,29*%
%TO.N,unconnected-(J2-Pad29)*%
X180750000Y-120865000D03*
%TO.P,J2,30,30*%
%TO.N,unconnected-(J2-Pad30)*%
X180750000Y-115135000D03*
%TO.P,J2,31,31*%
%TO.N,unconnected-(J2-Pad31)*%
X181250000Y-120865000D03*
%TO.P,J2,32,32*%
%TO.N,unconnected-(J2-Pad32)*%
X181250000Y-115135000D03*
%TO.P,J2,33,33*%
%TO.N,unconnected-(J2-Pad33)*%
X181750000Y-120865000D03*
%TO.P,J2,34,34*%
%TO.N,unconnected-(J2-Pad34)*%
X181750000Y-115135000D03*
%TO.P,J2,35,35*%
%TO.N,unconnected-(J2-Pad35)*%
X182250000Y-120865000D03*
%TO.P,J2,36,36*%
%TO.N,unconnected-(J2-Pad36)*%
X182250000Y-115135000D03*
%TO.P,J2,37,37*%
%TO.N,unconnected-(J2-Pad37)*%
X182750000Y-120865000D03*
%TO.P,J2,38,38*%
%TO.N,unconnected-(J2-Pad38)*%
X182750000Y-115135000D03*
%TO.P,J2,39,39*%
%TO.N,unconnected-(J2-Pad39)*%
X183250000Y-120865000D03*
%TO.P,J2,40,40*%
%TO.N,unconnected-(J2-Pad40)*%
X183250000Y-115135000D03*
%TO.P,J2,41,41*%
%TO.N,unconnected-(J2-Pad41)*%
X183750000Y-120865000D03*
%TO.P,J2,42,42*%
%TO.N,unconnected-(J2-Pad42)*%
X183750000Y-115135000D03*
%TO.P,J2,43,43*%
%TO.N,unconnected-(J2-Pad43)*%
X184250000Y-120865000D03*
%TO.P,J2,44,44*%
%TO.N,unconnected-(J2-Pad44)*%
X184250000Y-115135000D03*
%TO.P,J2,45,45*%
%TO.N,unconnected-(J2-Pad45)*%
X184750000Y-120865000D03*
%TO.P,J2,46,46*%
%TO.N,unconnected-(J2-Pad46)*%
X184750000Y-115135000D03*
%TO.P,J2,47,47*%
%TO.N,unconnected-(J2-Pad47)*%
X185250000Y-120865000D03*
%TO.P,J2,48,48*%
%TO.N,unconnected-(J2-Pad48)*%
X185250000Y-115135000D03*
%TO.P,J2,49,49*%
%TO.N,unconnected-(J2-Pad49)*%
X185750000Y-120865000D03*
%TO.P,J2,50,50*%
%TO.N,unconnected-(J2-Pad50)*%
X185750000Y-115135000D03*
%TO.P,J2,51,51*%
%TO.N,unconnected-(J2-Pad51)*%
X186250000Y-120865000D03*
%TO.P,J2,52,52*%
%TO.N,unconnected-(J2-Pad52)*%
X186250000Y-115135000D03*
%TO.P,J2,53,53*%
%TO.N,unconnected-(J2-Pad53)*%
X186750000Y-120865000D03*
%TO.P,J2,54,54*%
%TO.N,unconnected-(J2-Pad54)*%
X186750000Y-115135000D03*
%TO.P,J2,55,55*%
%TO.N,unconnected-(J2-Pad55)*%
X187250000Y-120865000D03*
%TO.P,J2,56,56*%
%TO.N,unconnected-(J2-Pad56)*%
X187250000Y-115135000D03*
%TO.P,J2,57,57*%
%TO.N,unconnected-(J2-Pad57)*%
X187750000Y-120865000D03*
%TO.P,J2,58,58*%
%TO.N,unconnected-(J2-Pad58)*%
X187750000Y-115135000D03*
%TO.P,J2,59,59*%
%TO.N,unconnected-(J2-Pad59)*%
X188250000Y-120865000D03*
%TO.P,J2,60,60*%
%TO.N,unconnected-(J2-Pad60)*%
X188250000Y-115135000D03*
D43*
%TO.P,J2,G1,G1*%
%TO.N,unconnected-(J2-PadG1)*%
X172935000Y-118000000D03*
D44*
%TO.P,J2,G2,G2*%
%TO.N,unconnected-(J2-PadG2)*%
X177825000Y-118000000D03*
%TO.P,J2,G3,G3*%
%TO.N,unconnected-(J2-PadG3)*%
X184175000Y-118000000D03*
D43*
%TO.P,J2,G4,G4*%
%TO.N,unconnected-(J2-PadG4)*%
X189065000Y-118000000D03*
%TD*%
D11*
%TO.P,R3,1*%
%TO.N,/USB/EXT_USB_D+*%
X203445000Y-92780000D03*
%TO.P,R3,2*%
%TO.N,/USB/USB_D+*%
X204640000Y-92780000D03*
%TD*%
D22*
%TO.P,C59,1*%
%TO.N,/FPGA/FPGA pg.2/VCCO34*%
X171480000Y-147000000D03*
%TO.P,C59,2*%
%TO.N,GND*%
X170520000Y-147000000D03*
%TD*%
D32*
%TO.P,C10,1*%
%TO.N,/FPGA/FPGA pg.4/VCCINT*%
X182000000Y-132980000D03*
%TO.P,C10,2*%
%TO.N,GND*%
X182000000Y-132020000D03*
%TD*%
%TO.P,C12,1*%
%TO.N,/FPGA/FPGA pg.4/VCCINT*%
X183500000Y-132980000D03*
%TO.P,C12,2*%
%TO.N,GND*%
X183500000Y-132020000D03*
%TD*%
D12*
%TO.P,C2,1*%
%TO.N,+V1P8*%
X191020000Y-139500000D03*
%TO.P,C2,2*%
%TO.N,GND*%
X191980000Y-139500000D03*
%TD*%
D30*
%TO.P,C58,1*%
%TO.N,/FPGA/FPGA pg.2/VCCO34*%
X177500000Y-152520000D03*
%TO.P,C58,2*%
%TO.N,GND*%
X177500000Y-153480000D03*
%TD*%
D42*
%TO.P,J1,01,01*%
%TO.N,/Frontend Connector/DI.DI2+*%
X174750000Y-170865000D03*
%TO.P,J1,02,02*%
%TO.N,/Frontend Connector/DI.DI1+*%
X174750000Y-165135000D03*
%TO.P,J1,03,03*%
%TO.N,/Frontend Connector/DI.DI2-*%
X175250000Y-170865000D03*
%TO.P,J1,04,04*%
%TO.N,/Frontend Connector/DI.DI1-*%
X175250000Y-165135000D03*
%TO.P,J1,05,05*%
%TO.N,/Frontend Connector/DI.DI3+*%
X175750000Y-170865000D03*
%TO.P,J1,06,06*%
%TO.N,/Frontend Connector/DO.DO1+*%
X175750000Y-165135000D03*
%TO.P,J1,07,07*%
%TO.N,/Frontend Connector/DI.DI3-*%
X176250000Y-170865000D03*
%TO.P,J1,08,08*%
%TO.N,/Frontend Connector/DO.DO1-*%
X176250000Y-165135000D03*
%TO.P,J1,09,09*%
%TO.N,/Frontend Connector/DI.DI4+*%
X176750000Y-170865000D03*
%TO.P,J1,10,10*%
%TO.N,/Frontend Connector/DO.DO2+*%
X176750000Y-165135000D03*
%TO.P,J1,11,11*%
%TO.N,/Frontend Connector/DI.DI4-*%
X177250000Y-170865000D03*
%TO.P,J1,12,12*%
%TO.N,/Frontend Connector/DO.DO2-*%
X177250000Y-165135000D03*
%TO.P,J1,13,13*%
%TO.N,/Frontend Connector/DI.DI5+*%
X177750000Y-170865000D03*
%TO.P,J1,14,14*%
%TO.N,/Frontend Connector/DO.DO3+*%
X177750000Y-165135000D03*
%TO.P,J1,15,15*%
%TO.N,/Frontend Connector/DI.DI5-*%
X178250000Y-170865000D03*
%TO.P,J1,16,16*%
%TO.N,/Frontend Connector/DO.DO3-*%
X178250000Y-165135000D03*
%TO.P,J1,17,17*%
%TO.N,/Frontend Connector/DI.DI6+*%
X178750000Y-170865000D03*
%TO.P,J1,18,18*%
%TO.N,/Frontend Connector/DO.DO4+*%
X178750000Y-165135000D03*
%TO.P,J1,19,19*%
%TO.N,/Frontend Connector/DI.DI6-*%
X179250000Y-170865000D03*
%TO.P,J1,20,20*%
%TO.N,/Frontend Connector/DO.DO4-*%
X179250000Y-165135000D03*
%TO.P,J1,21,21*%
%TO.N,/Frontend Connector/DI.DI7+*%
X179750000Y-170865000D03*
%TO.P,J1,22,22*%
%TO.N,/Frontend Connector/DO.DO5+*%
X179750000Y-165135000D03*
%TO.P,J1,23,23*%
%TO.N,/Frontend Connector/DI.DI7-*%
X180250000Y-170865000D03*
%TO.P,J1,24,24*%
%TO.N,/Frontend Connector/DO.DO5-*%
X180250000Y-165135000D03*
%TO.P,J1,25,25*%
%TO.N,/Frontend Connector/DI.DI8+*%
X180750000Y-170865000D03*
%TO.P,J1,26,26*%
%TO.N,/Frontend Connector/DO.DO6+*%
X180750000Y-165135000D03*
%TO.P,J1,27,27*%
%TO.N,/Frontend Connector/DI.DI8-*%
X181250000Y-170865000D03*
%TO.P,J1,28,28*%
%TO.N,/Frontend Connector/DO.DO6-*%
X181250000Y-165135000D03*
%TO.P,J1,29,29*%
%TO.N,/Frontend Connector/DI.DI9+*%
X181750000Y-170865000D03*
%TO.P,J1,30,30*%
%TO.N,/Frontend Connector/DO.DO7+*%
X181750000Y-165135000D03*
%TO.P,J1,31,31*%
%TO.N,/Frontend Connector/DI.DI9-*%
X182250000Y-170865000D03*
%TO.P,J1,32,32*%
%TO.N,/Frontend Connector/DO.DO7-*%
X182250000Y-165135000D03*
%TO.P,J1,33,33*%
%TO.N,/Frontend Connector/DI.DI10+*%
X182750000Y-170865000D03*
%TO.P,J1,34,34*%
%TO.N,/Frontend Connector/DO.DO8+*%
X182750000Y-165135000D03*
%TO.P,J1,35,35*%
%TO.N,/Frontend Connector/DI.DI10-*%
X183250000Y-170865000D03*
%TO.P,J1,36,36*%
%TO.N,/Frontend Connector/DO.DO8-*%
X183250000Y-165135000D03*
%TO.P,J1,37,37*%
%TO.N,/Frontend Connector/DI.DI11+*%
X183750000Y-170865000D03*
%TO.P,J1,38,38*%
%TO.N,unconnected-(J1-Pad38)*%
X183750000Y-165135000D03*
%TO.P,J1,39,39*%
%TO.N,/Frontend Connector/DI.DI11-*%
X184250000Y-170865000D03*
%TO.P,J1,40,40*%
%TO.N,unconnected-(J1-Pad40)*%
X184250000Y-165135000D03*
%TO.P,J1,41,41*%
%TO.N,/Frontend Connector/DI.DI12+*%
X184750000Y-170865000D03*
%TO.P,J1,42,42*%
%TO.N,unconnected-(J1-Pad42)*%
X184750000Y-165135000D03*
%TO.P,J1,43,43*%
%TO.N,/Frontend Connector/DI.DI12-*%
X185250000Y-170865000D03*
%TO.P,J1,44,44*%
%TO.N,unconnected-(J1-Pad44)*%
X185250000Y-165135000D03*
%TO.P,J1,45,45*%
%TO.N,/Frontend Connector/DI.DI13+*%
X185750000Y-170865000D03*
%TO.P,J1,46,46*%
%TO.N,unconnected-(J1-Pad46)*%
X185750000Y-165135000D03*
%TO.P,J1,47,47*%
%TO.N,/Frontend Connector/DI.DI13-*%
X186250000Y-170865000D03*
%TO.P,J1,48,48*%
%TO.N,unconnected-(J1-Pad48)*%
X186250000Y-165135000D03*
%TO.P,J1,49,49*%
%TO.N,/Frontend Connector/DI.DI14+*%
X186750000Y-170865000D03*
%TO.P,J1,50,50*%
%TO.N,unconnected-(J1-Pad50)*%
X186750000Y-165135000D03*
%TO.P,J1,51,51*%
%TO.N,/Frontend Connector/DI.DI14-*%
X187250000Y-170865000D03*
%TO.P,J1,52,52*%
%TO.N,unconnected-(J1-Pad52)*%
X187250000Y-165135000D03*
%TO.P,J1,53,53*%
%TO.N,/Frontend Connector/DI.DI15+*%
X187750000Y-170865000D03*
%TO.P,J1,54,54*%
%TO.N,unconnected-(J1-Pad54)*%
X187750000Y-165135000D03*
%TO.P,J1,55,55*%
%TO.N,/Frontend Connector/DI.DI15-*%
X188250000Y-170865000D03*
%TO.P,J1,56,56*%
%TO.N,unconnected-(J1-Pad56)*%
X188250000Y-165135000D03*
%TO.P,J1,57,57*%
%TO.N,/Frontend Connector/DI.DI16+*%
X188750000Y-170865000D03*
%TO.P,J1,58,58*%
%TO.N,unconnected-(J1-Pad58)*%
X188750000Y-165135000D03*
%TO.P,J1,59,59*%
%TO.N,/Frontend Connector/DI.DI16-*%
X189250000Y-170865000D03*
%TO.P,J1,60,60*%
%TO.N,unconnected-(J1-Pad60)*%
X189250000Y-165135000D03*
D43*
%TO.P,J1,G1,G1*%
%TO.N,unconnected-(J1-PadG1)*%
X173935000Y-168000000D03*
D44*
%TO.P,J1,G2,G2*%
%TO.N,unconnected-(J1-PadG2)*%
X178825000Y-168000000D03*
%TO.P,J1,G3,G3*%
%TO.N,unconnected-(J1-PadG3)*%
X185175000Y-168000000D03*
D43*
%TO.P,J1,G4,G4*%
%TO.N,unconnected-(J1-PadG4)*%
X190065000Y-168000000D03*
%TD*%
D30*
%TO.P,C36,1*%
%TO.N,+1V5*%
X208000000Y-136520000D03*
%TO.P,C36,2*%
%TO.N,GND*%
X208000000Y-137480000D03*
%TD*%
D11*
%TO.P,R16,1*%
%TO.N,/FPGA/FPGA pg.3/FLASH_SPI.CLK*%
X157402500Y-154280000D03*
%TO.P,R16,2*%
%TO.N,/FPGA/FPGA pg.3/INT_FLASH_SPI_CLK*%
X158597500Y-154280000D03*
%TD*%
D32*
%TO.P,C31,1*%
%TO.N,+V1P0*%
X177500000Y-132980000D03*
%TO.P,C31,2*%
%TO.N,GND*%
X177500000Y-132020000D03*
%TD*%
%TO.P,C52,1*%
%TO.N,/FPGA/FPGA pg.1/VCCO15*%
X188000000Y-132980000D03*
%TO.P,C52,2*%
%TO.N,GND*%
X188000000Y-132020000D03*
%TD*%
D39*
%TO.P,C54,1*%
%TO.N,/FPGA/FPGA pg.2/VCCO34*%
X170975000Y-153500000D03*
%TO.P,C54,2*%
%TO.N,GND*%
X168025000Y-153500000D03*
%TD*%
D33*
%TO.P,D1,1,K*%
%TO.N,/USB/FTDI_CBUS1*%
X206925000Y-102910000D03*
%TO.P,D1,2,A*%
%TO.N,Net-(D1-A)*%
X208500000Y-102910000D03*
%TD*%
D30*
%TO.P,C37,1*%
%TO.N,/DDR3/DDR_VREF*%
X209500000Y-145520000D03*
%TO.P,C37,2*%
%TO.N,GND*%
X209500000Y-146480000D03*
%TD*%
D22*
%TO.P,R17,1*%
%TO.N,+V1P2*%
X171480000Y-135000000D03*
%TO.P,R17,2*%
%TO.N,Net-(U6D-MGTRREF_216)*%
X170520000Y-135000000D03*
%TD*%
D40*
%TO.P,C64,1*%
%TO.N,/FPGA/FPGA pg.1/VCCO15*%
X191525000Y-132000000D03*
%TO.P,C64,2*%
%TO.N,GND*%
X194475000Y-132000000D03*
%TD*%
D20*
%TO.P,L4,1,1*%
%TO.N,Net-(U2-SW4)*%
X181390000Y-66370000D03*
%TO.P,L4,2,2*%
%TO.N,+1V5*%
X184440000Y-66370000D03*
%TD*%
D21*
%TO.P,C19,1*%
%TO.N,VCCINT*%
X187200000Y-53220000D03*
%TO.P,C19,2*%
%TO.N,GND*%
X188750000Y-53220000D03*
%TD*%
D30*
%TO.P,C39,1*%
%TO.N,+1V5*%
X211000000Y-143020000D03*
%TO.P,C39,2*%
%TO.N,/DDR3/DDR_VREF*%
X211000000Y-143980000D03*
%TD*%
%TO.P,C45,1*%
%TO.N,/FPGA/FPGA pg.1/VCCO14*%
X188000000Y-152520000D03*
%TO.P,C45,2*%
%TO.N,GND*%
X188000000Y-153480000D03*
%TD*%
%TO.P,C60,1*%
%TO.N,/FPGA/FPGA pg.1/VCCO14*%
X185000000Y-152520000D03*
%TO.P,C60,2*%
%TO.N,GND*%
X185000000Y-153480000D03*
%TD*%
D12*
%TO.P,C50,1*%
%TO.N,/FPGA/FPGA pg.1/VCCO15*%
X191020000Y-136500000D03*
%TO.P,C50,2*%
%TO.N,GND*%
X191980000Y-136500000D03*
%TD*%
%TO.P,C25,1*%
%TO.N,Net-(USB1-VCC)*%
X206622500Y-94720000D03*
%TO.P,C25,2*%
%TO.N,GND*%
X207582500Y-94720000D03*
%TD*%
D22*
%TO.P,R17,1*%
%TO.N,+V1P2*%
X171480000Y-136500000D03*
%TO.P,R17,2*%
%TO.N,Net-(U6D-MGTRREF_216)*%
X170520000Y-136500000D03*
%TD*%
D11*
%TO.P,R9,1*%
%TO.N,Net-(D2-A)*%
X203445000Y-104720000D03*
%TO.P,R9,2*%
%TO.N,unconnected-(R9-Pad2)*%
X204640000Y-104720000D03*
%TD*%
%TO.P,R2,1*%
%TO.N,/USB/EXT_USB_D-*%
X203445000Y-90790000D03*
%TO.P,R2,2*%
%TO.N,/USB/USB_D-*%
X204640000Y-90790000D03*
%TD*%
D22*
%TO.P,C34,1*%
%TO.N,+V1P2*%
X171480000Y-139500000D03*
%TO.P,C34,2*%
%TO.N,GND*%
X170520000Y-139500000D03*
%TD*%
D12*
%TO.P,C44,1*%
%TO.N,/FPGA/FPGA pg.1/VCCO14*%
X191020000Y-148500000D03*
%TO.P,C44,2*%
%TO.N,GND*%
X191980000Y-148500000D03*
%TD*%
D20*
%TO.P,L3,1,1*%
%TO.N,Net-(U2-SW3)*%
X181390000Y-60820000D03*
%TO.P,L3,2,2*%
%TO.N,+1V8*%
X184440000Y-60820000D03*
%TD*%
D22*
%TO.P,C35,1*%
%TO.N,+V1P2*%
X171480000Y-138000000D03*
%TO.P,C35,2*%
%TO.N,GND*%
X170520000Y-138000000D03*
%TD*%
D11*
%TO.P,FB1,1*%
%TO.N,Net-(USB1-VCC)*%
X199055000Y-97750000D03*
%TO.P,FB1,2*%
%TO.N,VBUS*%
X200250000Y-97750000D03*
%TD*%
D45*
%TO.P,U5,1,~{CS}*%
%TO.N,/SPI Flash/FLASH_SPI.CS#*%
X199675000Y-59190000D03*
%TO.P,U5,2,SO/SIO1*%
%TO.N,/SPI Flash/FLASH_SPI.D1*%
X199675000Y-60460000D03*
%TO.P,U5,3,~{WP}/SIO2*%
%TO.N,/SPI Flash/FLASH_SPI.D2*%
X199675000Y-61730000D03*
%TO.P,U5,4,GND*%
%TO.N,GND*%
X199675000Y-63000000D03*
%TO.P,U5,5,SI/SIO0*%
%TO.N,/SPI Flash/FLASH_SPI.D0*%
X205000000Y-63000000D03*
%TO.P,U5,6,SCLK*%
%TO.N,/SPI Flash/FLASH_SPI.CLK*%
X205000000Y-61730000D03*
%TO.P,U5,7,~{HOLD}/SIO3*%
%TO.N,/SPI Flash/FLASH_SPI.D3*%
X205000000Y-60460000D03*
%TO.P,U5,8,VCC*%
%TO.N,Net-(U5-VCC)*%
X205000000Y-59190000D03*
D46*
%TO.P,U5,9,EP*%
%TO.N,GND*%
X202337500Y-61095000D03*
%TD*%
D30*
%TO.P,C41,1*%
%TO.N,+1V5*%
X195000000Y-137020000D03*
%TO.P,C41,2*%
%TO.N,GND*%
X195000000Y-137980000D03*
%TD*%
D11*
%TO.P,R6,1*%
%TO.N,/USB/FTDI_RTS#*%
X203445000Y-98750000D03*
%TO.P,R6,2*%
%TO.N,/USB/UART.RTS#*%
X204640000Y-98750000D03*
%TD*%
D34*
%TO.P,R19,1*%
%TO.N,+1V5*%
X209500000Y-142990000D03*
%TO.P,R19,2*%
%TO.N,/DDR3/DDR_VREF*%
X209500000Y-144010000D03*
%TD*%
D47*
%TO.N,GND*%
X188450000Y-145150000D03*
X182850000Y-135550000D03*
X204300000Y-138999999D03*
D48*
X184250000Y-132000000D03*
D47*
X174050000Y-144350000D03*
X186050000Y-145950000D03*
X178850000Y-137150000D03*
X187650000Y-141950000D03*
D48*
X192000000Y-140250000D03*
D47*
X180450000Y-140350000D03*
D48*
X196000000Y-152500000D03*
D47*
X182850000Y-145950000D03*
X176450000Y-139550000D03*
D48*
X196000000Y-154500000D03*
X192000000Y-147750000D03*
D47*
X184450000Y-145950000D03*
X182850000Y-144350000D03*
X179650000Y-135550000D03*
X205100000Y-145399999D03*
X204300000Y-139846250D03*
X178850000Y-136350000D03*
X198700000Y-141400001D03*
X174850000Y-137150000D03*
D48*
X173750000Y-132000000D03*
D47*
X188450000Y-149950000D03*
X183650000Y-145150000D03*
D48*
X166500000Y-131000000D03*
X192000000Y-144750000D03*
D47*
X176450000Y-143550000D03*
X178850000Y-138750000D03*
X205098069Y-136500000D03*
X178050000Y-138750000D03*
X182850000Y-140350000D03*
X179650000Y-143550000D03*
X178850000Y-135550000D03*
X182050000Y-141150000D03*
X183650000Y-141150000D03*
X178050000Y-141150000D03*
D48*
X192000000Y-143250000D03*
D47*
X200300000Y-137400001D03*
X178850000Y-137950000D03*
X175650000Y-141150000D03*
X178050000Y-137150000D03*
D48*
X166500000Y-132000000D03*
D47*
X184450000Y-141950000D03*
X179650000Y-136350000D03*
D48*
X194208496Y-138033524D03*
D47*
X184450000Y-140350000D03*
X182850000Y-141950000D03*
D48*
X178250000Y-132000000D03*
D47*
X177250000Y-145950000D03*
D48*
X166500000Y-153500000D03*
D47*
X178850000Y-145950000D03*
X182050000Y-149950000D03*
D48*
X170500000Y-137250000D03*
X192000000Y-135750000D03*
X208750000Y-143000000D03*
D47*
X178850000Y-144350000D03*
X178050000Y-140350000D03*
X184450000Y-149150000D03*
X175650000Y-137950000D03*
X179650000Y-146750000D03*
X177250000Y-140350000D03*
X198700000Y-147000002D03*
X175650000Y-136350000D03*
X178050000Y-148350000D03*
X205100000Y-147000001D03*
X198700000Y-137400001D03*
X198700000Y-148600001D03*
X179650000Y-141150000D03*
X186850000Y-148350000D03*
X205300000Y-141450000D03*
D48*
X182750000Y-132000000D03*
X192000000Y-150750000D03*
D47*
X198700000Y-139000000D03*
X188450000Y-136350000D03*
D48*
X187250000Y-132000000D03*
X188750000Y-132000000D03*
D47*
X178850000Y-140350000D03*
X176450000Y-141150000D03*
X199500000Y-143053750D03*
X174050000Y-140350000D03*
D48*
X170500000Y-135750000D03*
X185750000Y-132000000D03*
X208750000Y-137500000D03*
D47*
X188450000Y-135550000D03*
X205034227Y-148667422D03*
X198700000Y-145400000D03*
X174073666Y-149926334D03*
X186050000Y-137150000D03*
X182050000Y-139550000D03*
X178050000Y-139550000D03*
X180450000Y-138750000D03*
D48*
X166500000Y-152500000D03*
D47*
X174050000Y-141950000D03*
X184450000Y-144350000D03*
X183650000Y-146750000D03*
X177250000Y-141150000D03*
X175650000Y-141950000D03*
X177250000Y-135550000D03*
X176450000Y-137950000D03*
X178850000Y-141950000D03*
X183650000Y-137950000D03*
X205100000Y-137400000D03*
X174850000Y-141950000D03*
D48*
X196000000Y-153500000D03*
X192000000Y-149250000D03*
D47*
X180450000Y-147550000D03*
D48*
X208750000Y-149000000D03*
X175250000Y-132000000D03*
X176750000Y-132000000D03*
X181250000Y-132000000D03*
D47*
X205268137Y-140698081D03*
X183650000Y-143550000D03*
X174050000Y-135550000D03*
D48*
X166500000Y-154500000D03*
D47*
X174850000Y-146750000D03*
X179650000Y-145150000D03*
X185250000Y-143550000D03*
X174850000Y-138750000D03*
X186850000Y-139550000D03*
X180450000Y-145950000D03*
D48*
X194250000Y-149000000D03*
D47*
X175650000Y-149150000D03*
D48*
X166500000Y-133000000D03*
X191800000Y-137250000D03*
D47*
X204300000Y-143050000D03*
%TO.N,/FPGA/FPGA pg.1/INT_FLASH_SPI_D0*%
X186850000Y-143550000D03*
D48*
%TO.N,+V1P8*%
X190500000Y-143250000D03*
X190500000Y-140250000D03*
D47*
X184450000Y-146750000D03*
X184450000Y-141150000D03*
X184450000Y-145150000D03*
X184450000Y-143550000D03*
X182850000Y-138750000D03*
D48*
X190500000Y-141750000D03*
D47*
X182050000Y-141950000D03*
D48*
X190500000Y-144750000D03*
D47*
X183650000Y-140350000D03*
%TO.N,/FPGA/FPGA pg.1/INT_FLASH_SPI_D1*%
X187650000Y-144350000D03*
%TO.N,/FPGA/FPGA pg.1/INT_FLASH_SPI_D2*%
X186050000Y-141950000D03*
%TO.N,/FPGA/FPGA pg.1/INT_FLASH_SPI_D3*%
X186850000Y-141950000D03*
%TO.N,/FPGA/FPGA pg.1/INT_FLASH_SPI_CS#*%
X186050000Y-144350000D03*
%TO.N,/FPGA/FPGA pg.3/INT_FLASH_SPI_CLK*%
X179650000Y-138750000D03*
%TO.N,AGND*%
X180450000Y-141950000D03*
%TO.N,unconnected-(U6A-IO_0_15-PadD10)*%
X182050000Y-137950000D03*
%TO.N,/FPGA/FPGA pg.3/GT_REFCLK0+*%
X178050000Y-137950000D03*
%TO.N,unconnected-(U6E-CFGBVS_0-PadE12)*%
X183650000Y-138750000D03*
D48*
%TO.N,+V1P0*%
X175250000Y-133500000D03*
D47*
X182050000Y-140350000D03*
X176450000Y-136350000D03*
X182850000Y-141150000D03*
X182850000Y-139550000D03*
X177250000Y-138750000D03*
X177250000Y-139550000D03*
D48*
X176750000Y-133500000D03*
X172250000Y-132750000D03*
D47*
X177250000Y-137150000D03*
D48*
X172250000Y-133500000D03*
X173750000Y-133500000D03*
D47*
%TO.N,/FPGA/FPGA pg.3/GTP1_RX-*%
X175650000Y-135550000D03*
%TO.N,unconnected-(U6A-IO_L18N_T2_A23_15-PadC18)*%
X188450000Y-137150000D03*
%TO.N,unconnected-(U6A-IO_L21N_T3_DQS_A18_15-PadF15)*%
X186050000Y-139550000D03*
%TO.N,unconnected-(U6A-IO_L17P_T2_A26_15-PadE17)*%
X187650000Y-138750000D03*
%TO.N,unconnected-(U6A-IO_L18P_T2_A24_15-PadC17)*%
X187650000Y-137150000D03*
%TO.N,+V1P2*%
X174050000Y-137150000D03*
D48*
X172000000Y-138750000D03*
D47*
X174850000Y-135550000D03*
X174050000Y-138750000D03*
X174850000Y-140350000D03*
D48*
X172000000Y-135750000D03*
X172000000Y-137250000D03*
D47*
X175650000Y-139550000D03*
%TO.N,unconnected-(U6A-IO_L23N_T3_FWE_B_15-PadH18)*%
X188450000Y-141150000D03*
%TO.N,unconnected-(U6E-VREFP_0-PadL10)*%
X182050000Y-144350000D03*
%TO.N,unconnected-(U6A-IO_L19N_T3_A21_VREF_15-PadF18)*%
X188450000Y-139550000D03*
%TO.N,unconnected-(U6A-IO_L20N_T3_A19_15-PadG16)*%
X186850000Y-140350000D03*
D48*
%TO.N,/FPGA/FPGA pg.1/VCCO14*%
X190250000Y-151750000D03*
D47*
X186050000Y-149950000D03*
D48*
X187250000Y-152000000D03*
D47*
X186850000Y-144350000D03*
X187650000Y-146750000D03*
D48*
X185750000Y-152000000D03*
X190500000Y-147750000D03*
X190500000Y-149250000D03*
D47*
X179650000Y-149150000D03*
X185250000Y-147550000D03*
X188450000Y-149150000D03*
D48*
X190250000Y-152500000D03*
D47*
X182850000Y-148350000D03*
%TO.N,/FPGA/FPGA pg.1/VCCO15*%
X186850000Y-135550000D03*
X186050000Y-141150000D03*
X184450000Y-136350000D03*
X182050000Y-137150000D03*
X188450000Y-140350000D03*
D48*
X190250000Y-133500000D03*
X185750000Y-133500000D03*
X190250000Y-132500000D03*
D47*
X185250000Y-138750000D03*
D48*
X190500000Y-137250000D03*
X187250000Y-133500000D03*
X190300000Y-135750000D03*
D47*
X187650000Y-137950000D03*
%TO.N,unconnected-(U6A-IO_L16P_T2_A28_15-PadC16)*%
X186850000Y-137150000D03*
%TO.N,/DDR3/DDR_VREF*%
X204300000Y-145399999D03*
D48*
X210250000Y-144750000D03*
X208750000Y-144750000D03*
D47*
X198700000Y-142200000D03*
%TO.N,unconnected-(U6E-M1_0-PadR11)*%
X182850000Y-147550000D03*
%TO.N,unconnected-(U6A-IO_L19P_T3_A22_15-PadG17)*%
X187650000Y-140350000D03*
%TO.N,/FPGA/FPGA pg.3/GTP2_RX-*%
X175650000Y-137150000D03*
%TO.N,unconnected-(U6A-IO_L6N_T0_D08_VREF_14-PadM15)*%
X186050000Y-145150000D03*
%TO.N,unconnected-(U6A-IO_L13P_T2_MRCC_14-PadT14)*%
X185250000Y-148350000D03*
%TO.N,unconnected-(U6B-IO_L1N_T0_34-PadK5)*%
X177250000Y-143550000D03*
%TO.N,unconnected-(U6A-IO_L15P_T2_DQS_15-PadB16)*%
X186850000Y-136350000D03*
%TO.N,unconnected-(U6A-IO_L14P_T2_SRCC_15-PadE16)*%
X186850000Y-138750000D03*
%TO.N,unconnected-(U6A-IO_L15N_T2_DQS_ADV_B_15-PadA17)*%
X187650000Y-135550000D03*
%TO.N,unconnected-(U6A-IO_L13N_T2_MRCC_14-PadT15)*%
X186050000Y-148350000D03*
%TO.N,/FPGA/FPGA pg.3/JTAG.TDO*%
X179650000Y-148350000D03*
%TO.N,/FPGA/FPGA pg.3/JTAG.TMS*%
X179650000Y-147550000D03*
%TO.N,/FPGA/FPGA pg.3/JTAG.TCK*%
X179650000Y-139550000D03*
%TO.N,/FPGA/FPGA pg.3/JTAG.TDI*%
X180450000Y-148350000D03*
D48*
%TO.N,/FPGA/FPGA pg.2/VCCO34*%
X175250000Y-152000000D03*
D47*
X175650000Y-145150000D03*
X176450000Y-147550000D03*
D48*
X172000000Y-151750000D03*
D47*
X177250000Y-149950000D03*
D48*
X172000000Y-152500000D03*
X172000000Y-149250000D03*
D47*
X178050000Y-144350000D03*
D48*
X176750000Y-152000000D03*
X172000000Y-147750000D03*
D47*
X174050000Y-148350000D03*
X178850000Y-146750000D03*
%TO.N,unconnected-(U6B-IO_L3N_T0_DQS_34-PadK1)*%
X174050000Y-143550000D03*
%TO.N,unconnected-(U6E-DXN_0-PadM9)*%
X180450000Y-145150000D03*
%TO.N,/FPGA/FPGA pg.3/GTP3_TX+*%
X174850000Y-136350000D03*
%TO.N,unconnected-(U6B-IO_L16P_T2_34-PadV3)*%
X175650000Y-149950000D03*
%TO.N,/FPGA/FPGA pg.3/GTP0_RX+*%
X176450000Y-138750000D03*
%TO.N,unconnected-(U6E-DONE_0-PadF12)*%
X183650000Y-139550000D03*
%TO.N,/FPGA/FPGA pg.3/VCCO_0*%
X182050000Y-138750000D03*
X182050000Y-147550000D03*
%TO.N,/FPGA/FPGA pg.3/GT_REFCLK1+*%
X178050000Y-136350000D03*
X177250000Y-136350000D03*
%TO.N,/FPGA/FPGA pg.3/GTP1_TX+*%
X174850000Y-139550000D03*
%TO.N,unconnected-(U6A-IO_L17N_T2_A25_15-PadD18)*%
X188450000Y-137950000D03*
%TO.N,unconnected-(U6A-IO_L24P_T3_RS1_15-PadF17)*%
X187650000Y-139550000D03*
%TO.N,unconnected-(U6B-IO_L13N_T2_MRCC_34-PadR1)*%
X174050000Y-147550000D03*
%TO.N,unconnected-(U6A-IO_25_15-PadH14)*%
X185250000Y-141150000D03*
%TO.N,unconnected-(U6A-IO_L23N_T3_A02_D18_14-PadV11)*%
X182850000Y-149950000D03*
%TO.N,Net-(U6D-MGTRREF_216)*%
X178050000Y-135550000D03*
%TO.N,unconnected-(U6A-IO_L13N_T2_MRCC_15-PadD15)*%
X186050000Y-137950000D03*
%TO.N,/FPGA/FPGA pg.4/VCCINT*%
X178850000Y-145150000D03*
X183650000Y-141950000D03*
X182850000Y-146750000D03*
X178850000Y-141150000D03*
X183650000Y-145950000D03*
X179650000Y-144350000D03*
X178850000Y-139550000D03*
D48*
X181250000Y-133500000D03*
D47*
X178850000Y-143550000D03*
X183650000Y-144350000D03*
D48*
X182750000Y-133500000D03*
D47*
X182050000Y-145950000D03*
X180450000Y-146750000D03*
X179650000Y-140350000D03*
X182850000Y-145150000D03*
X182850000Y-143550000D03*
X179650000Y-145950000D03*
D48*
X179750000Y-133500000D03*
D47*
X180450000Y-139550000D03*
X180450000Y-141150000D03*
X179650000Y-141950000D03*
%TO.N,unconnected-(U6A-IO_L22P_T3_A05_D21_14-PadT12)*%
X183650000Y-148350000D03*
%TO.N,unconnected-(U6A-IO_25_14-PadU10)*%
X182050000Y-149150000D03*
%TO.N,unconnected-(U6A-IO_L22N_T3_A16_15-PadF14)*%
X185250000Y-139550000D03*
%TO.N,unconnected-(U6E-VP_0-PadK10)*%
X182050000Y-143550000D03*
%TO.N,unconnected-(U6E-VREFN_0-PadK9)*%
X180450000Y-143550000D03*
%TO.N,unconnected-(U6A-IO_L20N_T3_A07_D23_14-PadV14)*%
X185250000Y-149950000D03*
%TO.N,/FPGA/FPGA pg.3/GTP0_TX-*%
X174050000Y-141150000D03*
%TO.N,unconnected-(U6A-IO_L24N_T3_A00_D16_14-PadV9)*%
X180450000Y-149950000D03*
%TO.N,unconnected-(U6B-IO_L12N_T1_MRCC_34-PadP3)*%
X175650000Y-146750000D03*
%TO.N,unconnected-(U6B-IO_L4P_T0_34-PadK3)*%
X175650000Y-143550000D03*
%TO.N,unconnected-(U6A-IO_L22P_T3_A17_15-PadG14)*%
X185250000Y-140350000D03*
%TO.N,unconnected-(U6B-IO_L6P_T0_34-PadL5)*%
X177250000Y-144350000D03*
%TO.N,/FPGA/FPGA pg.3/GTP3_TX-*%
X174050000Y-136350000D03*
%TO.N,unconnected-(U6B-IO_25_34-PadR6)*%
X178050000Y-147550000D03*
%TO.N,unconnected-(U6A-IO_L3N_T0_DQS_EMCCLK_14-PadK18)*%
X188450000Y-143550000D03*
%TO.N,unconnected-(U6E-INIT_B_0-PadT10)*%
X182050000Y-148350000D03*
%TO.N,unconnected-(U6E-M0_0-PadR12)*%
X183650000Y-147550000D03*
%TO.N,unconnected-(U6A-IO_L20P_T3_A20_15-PadH16)*%
X186850000Y-141150000D03*
%TO.N,/FPGA/FPGA pg.3/GTP1_RX+*%
X176450000Y-135550000D03*
%TO.N,unconnected-(U6E-VN_0-PadL9)*%
X180450000Y-144350000D03*
%TO.N,unconnected-(U6A-IO_L22N_T3_A04_D20_14-PadU12)*%
X183650000Y-149150000D03*
%TO.N,unconnected-(U6A-IO_L4P_T0_D04_14-PadK17)*%
X187650000Y-143550000D03*
%TO.N,unconnected-(U6B-IO_L11P_T1_SRCC_34-PadN3)*%
X175650000Y-145950000D03*
%TO.N,/FPGA/FPGA pg.3/GTP0_TX+*%
X174850000Y-141150000D03*
%TO.N,/FPGA/FPGA pg.3/GTP2_RX+*%
X176450000Y-137150000D03*
%TO.N,unconnected-(U6E-M2_0-PadF13)*%
X184450000Y-139550000D03*
%TO.N,/FPGA/FPGA pg.3/GTP0_RX-*%
X175650000Y-138750000D03*
%TO.N,unconnected-(U6A-IO_L23P_T3_FOE_B_15-PadH17)*%
X187650000Y-141150000D03*
%TO.N,/FPGA/FPGA pg.3/GTP3_RX-*%
X175650000Y-140350000D03*
%TO.N,/DDR3_DQ2*%
X199500001Y-140413902D03*
X180450000Y-137150000D03*
%TO.N,unconnected-(U8B-NC-PadJ1)*%
X198700000Y-143050000D03*
%TO.N,unconnected-(U6A-IO_L21P_T3_DQS_15-PadG15)*%
X186050000Y-140350000D03*
%TO.N,/DDR3_DQ6*%
X182050000Y-135550000D03*
X199302857Y-141405714D03*
%TO.N,/FPGA/FPGA pg.3/GT_REFCLK0-*%
X177250000Y-137950000D03*
%TO.N,unconnected-(U6A-IO_L24P_T3_A01_D17_14-PadU9)*%
X180450000Y-149150000D03*
%TO.N,/FPGA/FPGA pg.3/GTP2_TX-*%
X174050000Y-137950000D03*
%TO.N,/DDR3_CAS#*%
X186850000Y-149150000D03*
X200300000Y-143800001D03*
%TO.N,unconnected-(U6A-IO_0_14-PadL14)*%
X185250000Y-144350000D03*
%TO.N,/FPGA/FPGA pg.3/GTP3_RX+*%
X176450000Y-140350000D03*
%TO.N,unconnected-(U6E-PROGRAM_B_0-PadP10)*%
X182050000Y-146750000D03*
%TO.N,unconnected-(U6A-IO_L23P_T3_A03_D19_14-PadU11)*%
X182850000Y-149150000D03*
%TO.N,/DDR3_ADDR10*%
X186850000Y-145950000D03*
X203500000Y-144600000D03*
%TO.N,/FPGA/FPGA pg.3/GTP2_TX+*%
X174850000Y-137950000D03*
%TO.N,unconnected-(U6A-IO_L24N_T3_RS0_15-PadE18)*%
X188450000Y-138750000D03*
%TO.N,/DDR3_ADDR8*%
X204300000Y-148600000D03*
X188450000Y-145950000D03*
%TO.N,/DDR3_DQ7*%
X182850000Y-137950000D03*
X203502133Y-142205331D03*
%TO.N,unconnected-(U6A-IO_L19N_T3_A09_D25_VREF_14-PadT13)*%
X184450000Y-148350000D03*
%TO.N,/FPGA/FPGA pg.3/GTP1_TX-*%
X174050000Y-139550000D03*
%TO.N,/DDR3_DQ11*%
X199500000Y-138200001D03*
X185250000Y-136350000D03*
%TO.N,unconnected-(U6A-IO_L14N_T2_SRCC_15-PadD16)*%
X186850000Y-137950000D03*
%TO.N,unconnected-(U6E-DXP_0-PadM10)*%
X182050000Y-145150000D03*
%TO.N,unconnected-(U6B-IO_L15N_T2_DQS_34-PadU1)*%
X174050000Y-149150000D03*
%TO.N,unconnected-(U6B-IO_L7N_T1_34-PadM1)*%
X174050000Y-145150000D03*
%TO.N,unconnected-(U6A-IO_L13P_T2_MRCC_15-PadE15)*%
X186050000Y-138750000D03*
%TO.N,unconnected-(U6B-IO_L14P_T2_SRCC_34-PadR3)*%
X175650000Y-147550000D03*
%TO.N,unconnected-(U6B-IO_L2P_T0_34-PadJ5)*%
X177250000Y-141950000D03*
%TO.N,unconnected-(U6B-IO_L8N_T1_34-PadN6)*%
X178050000Y-145950000D03*
%TO.N,unconnected-(U6B-IO_L5N_T0_34-PadL3)*%
X175650000Y-144350000D03*
%TO.N,unconnected-(U6B-IO_0_34-PadJ6)*%
X178050000Y-141950000D03*
%TO.N,unconnected-(U6B-IO_L24N_T3_34-PadV7)*%
X178850000Y-149950000D03*
%TO.N,unconnected-(U6B-IO_L17N_T2_34-PadT3)*%
X175650000Y-148350000D03*
%TO.N,unconnected-(U6B-IO_L10N_T1_34-PadN4)*%
X176450000Y-145950000D03*
%TO.N,unconnected-(U6B-IO_L11N_T1_SRCC_34-PadN2)*%
X174850000Y-145950000D03*
%TO.N,unconnected-(U6B-IO_L9N_T1_DQS_34-PadP1)*%
X174050000Y-146750000D03*
%TO.N,unconnected-(U6B-IO_L15P_T2_DQS_34-PadU2)*%
X174850000Y-149150000D03*
%TO.N,unconnected-(U6A-IO_L5N_T0_D07_14-PadK15)*%
X186050000Y-143550000D03*
%TO.N,unconnected-(U6B-IO_L19P_T3_34-PadP6)*%
X178050000Y-146750000D03*
%TO.N,unconnected-(U6B-IO_L3P_T0_DQS_34-PadK2)*%
X174850000Y-143550000D03*
%TO.N,unconnected-(U6B-IO_L17P_T2_34-PadT4)*%
X176450000Y-148350000D03*
%TO.N,unconnected-(U6B-IO_L2N_T0_34-PadJ4)*%
X176450000Y-141950000D03*
%TO.N,unconnected-(U6B-IO_L8P_T1_34-PadM6)*%
X178050000Y-145150000D03*
%TO.N,unconnected-(U6B-IO_L12P_T1_MRCC_34-PadP4)*%
X176450000Y-146750000D03*
%TO.N,unconnected-(U6B-IO_L21P_T3_DQS_34-PadR5)*%
X177250000Y-147550000D03*
%TO.N,unconnected-(U6B-IO_L4N_T0_34-PadL2)*%
X174850000Y-144350000D03*
%TO.N,unconnected-(U6B-IO_L16N_T2_34-PadV2)*%
X174850000Y-149950000D03*
%TO.N,unconnected-(U6B-IO_L1P_T0_34-PadK6)*%
X178050000Y-143550000D03*
%TO.N,unconnected-(U6B-IO_L23P_T3_34-PadU7)*%
X178850000Y-149150000D03*
%TO.N,unconnected-(U6A-IO_L4N_T0_D05_14-PadL18)*%
X188450000Y-144350000D03*
%TO.N,unconnected-(U6B-IO_L10P_T1_34-PadM4)*%
X176450000Y-145150000D03*
%TO.N,unconnected-(U6A-IO_L16N_T2_A27_15-PadB17)*%
X187650000Y-136350000D03*
%TO.N,unconnected-(U6A-IO_L6N_T0_VREF_15-PadC12)*%
X183650000Y-137150000D03*
%TO.N,unconnected-(U6B-IO_L9P_T1_DQS_34-PadN1)*%
X174050000Y-145950000D03*
%TO.N,unconnected-(U6B-IO_L18P_T2_34-PadU4)*%
X176450000Y-149150000D03*
%TO.N,unconnected-(U6B-IO_L6N_T0_VREF_34-PadM5)*%
X177250000Y-145150000D03*
%TO.N,unconnected-(U6B-IO_L20P_T3_34-PadU6)*%
X178050000Y-149150000D03*
%TO.N,unconnected-(U6B-IO_L20N_T3_34-PadU5)*%
X177250000Y-149150000D03*
%TO.N,unconnected-(U6B-IO_L23N_T3_34-PadV6)*%
X178050000Y-149950000D03*
%TO.N,unconnected-(U6A-IO_L5P_T0_D06_14-PadJ14)*%
X185250000Y-141950000D03*
%TO.N,unconnected-(U6B-IO_L22P_T3_34-PadR7)*%
X178850000Y-147550000D03*
%TO.N,unconnected-(U6B-IO_L24P_T3_34-PadV8)*%
X179650000Y-149950000D03*
%TO.N,unconnected-(U6B-IO_L19N_T3_VREF_34-PadP5)*%
X177250000Y-146750000D03*
%TO.N,unconnected-(U6B-IO_L5P_T0_34-PadL4)*%
X176450000Y-144350000D03*
%TO.N,unconnected-(U6B-IO_L13P_T2_MRCC_34-PadR2)*%
X174850000Y-147550000D03*
%TO.N,unconnected-(U6B-IO_L18N_T2_34-PadV4)*%
X176450000Y-149950000D03*
%TO.N,unconnected-(U6A-IO_L3P_T0_DQS_PUDC_B_14-PadJ18)*%
X188450000Y-141950000D03*
%TO.N,unconnected-(U6B-IO_L7P_T1_34-PadM2)*%
X174850000Y-145150000D03*
%TO.N,unconnected-(U6B-IO_L21N_T3_DQS_34-PadT5)*%
X177250000Y-148350000D03*
%TO.N,unconnected-(U6B-IO_L22N_T3_34-PadT7)*%
X178850000Y-148350000D03*
%TO.N,unconnected-(U6B-IO_L14N_T2_SRCC_34-PadT2)*%
X174850000Y-148350000D03*
%TO.N,+1V5*%
X199500000Y-142200000D03*
X205100000Y-138200000D03*
D48*
X211750000Y-143000000D03*
D47*
X199500000Y-137400001D03*
X198700000Y-138200001D03*
D48*
X208750000Y-148000000D03*
D47*
X204306562Y-143837000D03*
X205100000Y-139846250D03*
X205100000Y-142199999D03*
X198700000Y-147800001D03*
D48*
X194250000Y-148000000D03*
D47*
X203506562Y-141494870D03*
X205100000Y-146200001D03*
D48*
X194250000Y-137000000D03*
X208750000Y-136500000D03*
X210250000Y-143000000D03*
D47*
X204300000Y-136500000D03*
X205100000Y-147800000D03*
X205100000Y-146199999D03*
X199500000Y-139000000D03*
X205100000Y-138999999D03*
X199500000Y-143800001D03*
X198700000Y-146200000D03*
X198699999Y-140413901D03*
X198700000Y-136600001D03*
X198700000Y-146200002D03*
%TO.N,/DDR3_ADDR5*%
X199500000Y-147000002D03*
X186850000Y-146750000D03*
%TO.N,/DDR3_ADDR14*%
X186850000Y-145150000D03*
X203500000Y-148600000D03*
%TO.N,/DDR3_DQ14*%
X204296068Y-137380340D03*
X184450000Y-137150000D03*
%TO.N,/DDR3_ADDR11*%
X203500000Y-147800000D03*
X185250000Y-145950000D03*
%TO.N,/DDR3_DQ3*%
X204468572Y-140590123D03*
X182850000Y-137150000D03*
%TO.N,/DDR3_ADDR0*%
X200300000Y-146200002D03*
X200300000Y-146200000D03*
X188450000Y-147550000D03*
%TO.N,/DDR3_DQ10*%
X204300000Y-138200000D03*
X185250000Y-135550000D03*
%TO.N,/DDR3_DQ0*%
X200300000Y-139700000D03*
X179650000Y-137150000D03*
%TO.N,/DDR3_UDQS-*%
X186050000Y-136350000D03*
X203500000Y-137400000D03*
%TO.N,/DDR3_RESET#*%
X199500000Y-148600001D03*
X185250000Y-137950000D03*
%TO.N,/DDR3_ADDR4*%
X204300000Y-147000001D03*
X185250000Y-146750000D03*
%TO.N,/DDR3_ADDR6*%
X204300000Y-147800000D03*
X186050000Y-146750000D03*
%TO.N,/DDR3_ADDR2*%
X200300000Y-147000002D03*
X186850000Y-147550000D03*
%TO.N,/DDR3_ADDR13*%
X200300000Y-148600001D03*
X187650000Y-145150000D03*
%TO.N,/DDR3_BLOCK_ADDR1*%
X187650000Y-148350000D03*
X204300000Y-146199999D03*
X204300000Y-146200001D03*
%TO.N,/DDR3_DQ5*%
X204300000Y-142199999D03*
X182050000Y-136350000D03*
%TO.N,/DDR3_RAS#*%
X200300000Y-143000000D03*
X186050000Y-149150000D03*
%TO.N,/DDR3/ZQ*%
X204300000Y-144600000D03*
D48*
X208750000Y-144000000D03*
D47*
%TO.N,/DDR3_DQ4*%
X200300000Y-142200000D03*
X182850000Y-136350000D03*
%TO.N,/DDR3_DQ15*%
X200300000Y-136600000D03*
X184450000Y-138750000D03*
%TO.N,/DDR3_ADDR7*%
X188450000Y-146750000D03*
X199500000Y-147800001D03*
%TO.N,/DDR3_CLK_EN*%
X184450000Y-147550000D03*
X205106410Y-143837000D03*
%TO.N,unconnected-(U8B-NC-PadL9)*%
X205100000Y-144600000D03*
%TO.N,/DDR3_DQ8*%
X203500000Y-138999999D03*
X183650000Y-135550000D03*
%TO.N,/DDR3_CS#*%
X199500000Y-144600001D03*
X187650000Y-149950000D03*
%TO.N,/DDR3_DQ1*%
X203542451Y-140720870D03*
X180450000Y-137950000D03*
%TO.N,/DDR3_LDQS+*%
X200293838Y-140425050D03*
X180450000Y-136350000D03*
%TO.N,/DDR3_ADDR3*%
X199500000Y-146200002D03*
X199500000Y-146200000D03*
X186050000Y-147550000D03*
%TO.N,/DDR3_ADDR1*%
X203500000Y-147000001D03*
X187650000Y-147550000D03*
%TO.N,/DDR3_WE#*%
X186850000Y-149950000D03*
X200300000Y-144600001D03*
%TO.N,unconnected-(U8B-NC-PadL1)*%
X198700000Y-144600001D03*
%TO.N,unconnected-(U8B-NC-PadM7)*%
X203500000Y-145399999D03*
%TO.N,/DDR3_DQ12*%
X186050000Y-135550000D03*
X203500000Y-136500000D03*
%TO.N,/DDR3_CLK+*%
X183650000Y-149950000D03*
X203500000Y-142999999D03*
%TO.N,/DDR3_CLK-*%
X184450000Y-149950000D03*
X203500000Y-143800000D03*
%TO.N,/DDR3_LDQS-*%
X180450000Y-135550000D03*
X200350000Y-141300000D03*
%TO.N,/DDR3_ODT*%
X198700000Y-143800001D03*
X185250000Y-149150000D03*
%TO.N,/DDR3_UDQS+*%
X185250000Y-137150000D03*
X203500000Y-138200000D03*
%TO.N,/DDR3_BLOCK_ADDR2*%
X188450000Y-148350000D03*
X200300000Y-145400000D03*
%TO.N,/DDR3_DQ9*%
X184450000Y-135550000D03*
X200300000Y-138200001D03*
%TO.N,/DDR3_ADDR9*%
X200300000Y-147800001D03*
X187650000Y-145950000D03*
%TO.N,/DDR3_BLOCK_ADDR0*%
X199500000Y-145400000D03*
X187650000Y-149150000D03*
%TO.N,/DDR3_DQ13*%
X184450000Y-137950000D03*
X199500000Y-136600000D03*
%TO.N,/DDR3_LDM*%
X203500000Y-139846250D03*
X179650000Y-137950000D03*
%TO.N,/DDR3_UDM*%
X183650000Y-136350000D03*
X200300000Y-139068251D03*
%TO.N,/DDR3_ADDR12*%
X203500000Y-146200001D03*
X203500000Y-146199999D03*
X185250000Y-145150000D03*
%TD*%
D49*
%TO.N,GND*%
X177650000Y-140750000D02*
X177250000Y-140350000D01*
X179250000Y-137550000D02*
X178850000Y-137150000D01*
X183250000Y-138350000D02*
X183650000Y-137950000D01*
X184050000Y-148750000D02*
X184450000Y-149150000D01*
X176050000Y-136750000D02*
X175650000Y-136350000D01*
X175250000Y-146350000D02*
X174850000Y-146750000D01*
X205066129Y-140633870D02*
X204700000Y-140999999D01*
X184850000Y-143150000D02*
X185250000Y-143550000D01*
X179250000Y-140750000D02*
X178850000Y-140350000D01*
X176050000Y-148750000D02*
X175650000Y-149150000D01*
X180850000Y-147150000D02*
X180450000Y-147550000D01*
X195000000Y-148980000D02*
X194270000Y-148980000D01*
X180050000Y-136750000D02*
X179650000Y-136350000D01*
X194270000Y-148980000D02*
X194250000Y-149000000D01*
X183250000Y-146350000D02*
X183650000Y-146750000D01*
X205098069Y-136500000D02*
X205098069Y-136601930D01*
X188730000Y-132020000D02*
X188750000Y-132000000D01*
X180050000Y-146350000D02*
X179650000Y-146750000D01*
X181650000Y-141550000D02*
X182050000Y-141150000D01*
X208730000Y-137480000D02*
X208750000Y-137500000D01*
X204306410Y-141437001D02*
X204306410Y-141393590D01*
X180050000Y-144750000D02*
X179650000Y-145150000D01*
X184050000Y-145550000D02*
X184450000Y-145950000D01*
X208740000Y-142990000D02*
X208750000Y-143000000D01*
X179250000Y-143950000D02*
X178850000Y-144350000D01*
X179250000Y-139150000D02*
X178850000Y-138750000D01*
X187230000Y-132020000D02*
X187250000Y-132000000D01*
X198300000Y-149000000D02*
X198700000Y-148600001D01*
X180050000Y-135950000D02*
X179650000Y-135550000D01*
X185650000Y-145550000D02*
X186050000Y-145950000D01*
X205196005Y-140696250D02*
X205133625Y-140633870D01*
X178450000Y-137550000D02*
X178050000Y-137150000D01*
X191980000Y-150000000D02*
X191980000Y-150730000D01*
X176850000Y-141550000D02*
X176450000Y-141150000D01*
X183250000Y-141550000D02*
X183650000Y-141150000D01*
X203950002Y-143399998D02*
X203900000Y-143399998D01*
X188050000Y-144750000D02*
X188450000Y-145150000D01*
X182450000Y-143950000D02*
X182850000Y-144350000D01*
X179250000Y-136750000D02*
X178850000Y-136350000D01*
X203900000Y-140199998D02*
X204253748Y-139846250D01*
X205300000Y-141450000D02*
X204950000Y-141800000D01*
X191980000Y-147000000D02*
X191980000Y-147730000D01*
X205268137Y-140698081D02*
X205266306Y-140696250D01*
X185650000Y-137550000D02*
X186050000Y-137150000D01*
X195000000Y-137980000D02*
X194262020Y-137980000D01*
X198300000Y-141800000D02*
X198700000Y-141400001D01*
X182450000Y-140750000D02*
X182850000Y-140350000D01*
X174450000Y-135950000D02*
X174050000Y-135550000D01*
X188050000Y-136750000D02*
X188450000Y-136350000D01*
X174073666Y-149926334D02*
X174450000Y-149550000D01*
X191980000Y-147730000D02*
X192000000Y-147750000D01*
X194262020Y-137980000D02*
X194208496Y-138033524D01*
X182450000Y-145550000D02*
X182850000Y-145950000D01*
X178450000Y-147950000D02*
X178050000Y-148350000D01*
X180850000Y-140750000D02*
X180450000Y-140350000D01*
X174450000Y-140750000D02*
X174050000Y-140350000D01*
X177650000Y-141550000D02*
X177250000Y-141150000D01*
X183250000Y-143150000D02*
X183650000Y-143550000D01*
X178450000Y-141550000D02*
X178050000Y-141150000D01*
X208000000Y-148980000D02*
X208730000Y-148980000D01*
X186450000Y-147950000D02*
X186850000Y-148350000D01*
X179250000Y-142350000D02*
X178850000Y-141950000D01*
X176050000Y-141550000D02*
X175650000Y-141150000D01*
X205099999Y-137400000D02*
X205100000Y-137400000D01*
X204700000Y-148999999D02*
X205032577Y-148667422D01*
X203900000Y-139399998D02*
X204300000Y-138999999D01*
X174450000Y-143950000D02*
X174050000Y-144350000D01*
X188050000Y-149550000D02*
X188450000Y-149950000D01*
X204300690Y-141431281D02*
X204268718Y-141431281D01*
X181650000Y-149550000D02*
X182050000Y-149950000D01*
X204306410Y-141437001D02*
X204300690Y-141431281D01*
X183250000Y-144750000D02*
X183650000Y-145150000D01*
X176050000Y-138350000D02*
X175650000Y-137950000D01*
X188050000Y-135950000D02*
X188450000Y-135550000D01*
X176850000Y-139950000D02*
X176450000Y-139550000D01*
X198300000Y-139399999D02*
X198700000Y-139000000D01*
X185730000Y-132020000D02*
X185750000Y-132000000D01*
X175250000Y-139150000D02*
X174850000Y-138750000D01*
X204300000Y-143050000D02*
X203950002Y-143399998D01*
X199100000Y-143399999D02*
X199446249Y-143053750D01*
X204700000Y-147400000D02*
X205100000Y-147000001D01*
X175250000Y-137550000D02*
X174850000Y-137150000D01*
X198300000Y-147400001D02*
X198700000Y-147000002D01*
X185000000Y-132020000D02*
X185730000Y-132020000D01*
X180050000Y-141550000D02*
X179650000Y-141150000D01*
X176850000Y-143150000D02*
X176450000Y-143550000D01*
X178450000Y-140750000D02*
X178050000Y-140350000D01*
X199446249Y-143053750D02*
X199500000Y-143053750D01*
X180050000Y-143150000D02*
X179650000Y-143550000D01*
X204268718Y-141431281D02*
X203900000Y-141799999D01*
X182450000Y-142350000D02*
X182850000Y-141950000D01*
X205133625Y-140633870D02*
X205066129Y-140633870D01*
X204700000Y-137799999D02*
X205099999Y-137400000D01*
X182450000Y-135950000D02*
X182850000Y-135550000D01*
X179250000Y-138350000D02*
X178850000Y-137950000D01*
X204253748Y-139846250D02*
X204300000Y-139846250D01*
X208000000Y-142990000D02*
X208740000Y-142990000D01*
X178450000Y-139150000D02*
X178050000Y-138750000D01*
X205266306Y-140696250D02*
X205196005Y-140696250D01*
X208000000Y-137480000D02*
X208730000Y-137480000D01*
X177650000Y-135950000D02*
X177250000Y-135550000D01*
X186450000Y-139950000D02*
X186850000Y-139550000D01*
X180850000Y-145550000D02*
X180450000Y-145950000D01*
X191980000Y-148500000D02*
X191980000Y-149230000D01*
X179250000Y-145550000D02*
X178850000Y-145950000D01*
X205287001Y-141437001D02*
X204306410Y-141437001D01*
X176050000Y-142350000D02*
X175650000Y-141950000D01*
X177650000Y-145550000D02*
X177250000Y-145950000D01*
X184050000Y-140750000D02*
X184450000Y-140350000D01*
X188000000Y-132020000D02*
X188730000Y-132020000D01*
X187250000Y-142350000D02*
X187650000Y-141950000D01*
X204700000Y-145799998D02*
X205100000Y-145399999D01*
X180850000Y-139150000D02*
X180450000Y-138750000D01*
X178450000Y-139950000D02*
X178050000Y-139550000D01*
X204950000Y-141800000D02*
X204700000Y-141800000D01*
X205300000Y-141450000D02*
X205287001Y-141437001D01*
X205098069Y-136601930D02*
X204700000Y-136999999D01*
X184050000Y-143950000D02*
X184450000Y-144350000D01*
X191980000Y-149230000D02*
X192000000Y-149250000D01*
X208730000Y-148980000D02*
X208750000Y-149000000D01*
X198300000Y-137800000D02*
X198700000Y-137400001D01*
X204306410Y-141393590D02*
X204700000Y-141000000D01*
X184050000Y-142350000D02*
X184450000Y-141950000D01*
X176850000Y-138350000D02*
X176450000Y-137950000D01*
X175250000Y-142350000D02*
X174850000Y-141950000D01*
X198300000Y-145799999D02*
X198700000Y-145400000D01*
X205032577Y-148667422D02*
X205034227Y-148667422D01*
X174450000Y-142350000D02*
X174050000Y-141950000D01*
X199900000Y-137800000D02*
X200300000Y-137400001D01*
X191980000Y-150730000D02*
X192000000Y-150750000D01*
X186500000Y-132020000D02*
X187230000Y-132020000D01*
X179250000Y-135950000D02*
X178850000Y-135550000D01*
X181650000Y-139950000D02*
X182050000Y-139550000D01*
%TO.N,/FPGA/FPGA pg.1/INT_FLASH_SPI_D0*%
X186450000Y-143150000D02*
X186850000Y-143550000D01*
%TO.N,+V1P8*%
X184050000Y-141550000D02*
X184450000Y-141150000D01*
X184050000Y-144750000D02*
X184450000Y-145150000D01*
X181650000Y-142350000D02*
X182050000Y-141950000D01*
X184050000Y-146350000D02*
X184450000Y-146750000D01*
X183250000Y-140750000D02*
X183650000Y-140350000D01*
X182450000Y-139150000D02*
X182850000Y-138750000D01*
X184050000Y-143150000D02*
X184450000Y-143550000D01*
%TO.N,/FPGA/FPGA pg.1/INT_FLASH_SPI_D1*%
X187250000Y-143950000D02*
X187650000Y-144350000D01*
%TO.N,/FPGA/FPGA pg.1/INT_FLASH_SPI_D2*%
X185650000Y-142350000D02*
X186050000Y-141950000D01*
%TO.N,/FPGA/FPGA pg.1/INT_FLASH_SPI_D3*%
X186450000Y-142350000D02*
X186850000Y-141950000D01*
%TO.N,/FPGA/FPGA pg.1/INT_FLASH_SPI_CS#*%
X185650000Y-143950000D02*
X186050000Y-144350000D01*
%TO.N,/FPGA/FPGA pg.3/INT_FLASH_SPI_CLK*%
X180050000Y-139150000D02*
X179650000Y-138750000D01*
%TO.N,AGND*%
X180850000Y-142350000D02*
X180450000Y-141950000D01*
%TO.N,unconnected-(U6A-IO_0_15-PadD10)*%
X181650000Y-138350000D02*
X182050000Y-137950000D01*
%TO.N,/FPGA/FPGA pg.3/GT_REFCLK0+*%
X178450000Y-138350000D02*
X178050000Y-137950000D01*
%TO.N,unconnected-(U6E-CFGBVS_0-PadE12)*%
X183250000Y-139150000D02*
X183650000Y-138750000D01*
%TO.N,+V1P0*%
X177650000Y-137550000D02*
X177250000Y-137150000D01*
X176850000Y-136750000D02*
X176450000Y-136350000D01*
X177650000Y-139950000D02*
X177250000Y-139550000D01*
X181650000Y-140750000D02*
X182050000Y-140350000D01*
X177650000Y-139150000D02*
X177250000Y-138750000D01*
X182450000Y-141550000D02*
X182850000Y-141150000D01*
X182450000Y-139950000D02*
X182850000Y-139550000D01*
%TO.N,/FPGA/FPGA pg.3/GTP1_RX-*%
X176050000Y-135950000D02*
X175650000Y-135550000D01*
%TO.N,unconnected-(U6A-IO_L18N_T2_A23_15-PadC18)*%
X188050000Y-137550000D02*
X188450000Y-137150000D01*
%TO.N,unconnected-(U6A-IO_L21N_T3_DQS_A18_15-PadF15)*%
X185650000Y-139950000D02*
X186050000Y-139550000D01*
%TO.N,unconnected-(U6A-IO_L17P_T2_A26_15-PadE17)*%
X187250000Y-139150000D02*
X187650000Y-138750000D01*
%TO.N,unconnected-(U6A-IO_L18P_T2_A24_15-PadC17)*%
X187250000Y-137550000D02*
X187650000Y-137150000D01*
%TO.N,+V1P2*%
X176050000Y-139950000D02*
X175650000Y-139550000D01*
X175250000Y-135950000D02*
X174850000Y-135550000D01*
X174450000Y-137550000D02*
X174050000Y-137150000D01*
X174450000Y-139150000D02*
X174050000Y-138750000D01*
X175250000Y-140750000D02*
X174850000Y-140350000D01*
%TO.N,unconnected-(U6A-IO_L23N_T3_FWE_B_15-PadH18)*%
X188050000Y-141550000D02*
X188450000Y-141150000D01*
%TO.N,unconnected-(U6E-VREFP_0-PadL10)*%
X181650000Y-143950000D02*
X182050000Y-144350000D01*
%TO.N,unconnected-(U6A-IO_L19N_T3_A21_VREF_15-PadF18)*%
X188050000Y-139950000D02*
X188450000Y-139550000D01*
%TO.N,unconnected-(U6A-IO_L20N_T3_A19_15-PadG16)*%
X186450000Y-140750000D02*
X186850000Y-140350000D01*
%TO.N,/FPGA/FPGA pg.1/VCCO14*%
X182450000Y-147950000D02*
X182850000Y-148350000D01*
X180050000Y-148750000D02*
X179650000Y-149150000D01*
X187250000Y-146350000D02*
X187650000Y-146750000D01*
X186450000Y-143950000D02*
X186850000Y-144350000D01*
X188050000Y-148750000D02*
X188450000Y-149150000D01*
X185650000Y-149550000D02*
X186050000Y-149950000D01*
X184850000Y-147150000D02*
X185250000Y-147550000D01*
%TO.N,/FPGA/FPGA pg.1/VCCO15*%
X184050000Y-136750000D02*
X184450000Y-136350000D01*
X181650000Y-137550000D02*
X182050000Y-137150000D01*
X186450000Y-135950000D02*
X186850000Y-135550000D01*
X185650000Y-141550000D02*
X186050000Y-141150000D01*
X188050000Y-140750000D02*
X188450000Y-140350000D01*
X184850000Y-139150000D02*
X185250000Y-138750000D01*
X187250000Y-138350000D02*
X187650000Y-137950000D01*
%TO.N,unconnected-(U6A-IO_L16P_T2_A28_15-PadC16)*%
X186450000Y-137550000D02*
X186850000Y-137150000D01*
%TO.N,/DDR3/DDR_VREF*%
X198300000Y-142599999D02*
X198700000Y-142200000D01*
X203900000Y-145799998D02*
X204300000Y-145399999D01*
%TO.N,unconnected-(U6E-M1_0-PadR11)*%
X182450000Y-147150000D02*
X182850000Y-147550000D01*
%TO.N,unconnected-(U6A-IO_L19P_T3_A22_15-PadG17)*%
X187250000Y-140750000D02*
X187650000Y-140350000D01*
%TO.N,/FPGA/FPGA pg.3/GTP2_RX-*%
X176050000Y-137550000D02*
X175650000Y-137150000D01*
%TO.N,unconnected-(U6A-IO_L6N_T0_D08_VREF_14-PadM15)*%
X185650000Y-144750000D02*
X186050000Y-145150000D01*
%TO.N,unconnected-(U6A-IO_L13P_T2_MRCC_14-PadT14)*%
X184850000Y-147950000D02*
X185250000Y-148350000D01*
D50*
%TO.N,unconnected-(U6B-IO_L1N_T0_34-PadK5)*%
X177650000Y-143150000D02*
X177250000Y-143550000D01*
D49*
%TO.N,unconnected-(U6A-IO_L15P_T2_DQS_15-PadB16)*%
X186450000Y-136750000D02*
X186850000Y-136350000D01*
%TO.N,unconnected-(U6A-IO_L14P_T2_SRCC_15-PadE16)*%
X186450000Y-139150000D02*
X186850000Y-138750000D01*
%TO.N,unconnected-(U6A-IO_L15N_T2_DQS_ADV_B_15-PadA17)*%
X187250000Y-135950000D02*
X187650000Y-135550000D01*
%TO.N,unconnected-(U6A-IO_L13N_T2_MRCC_14-PadT15)*%
X185650000Y-147950000D02*
X186050000Y-148350000D01*
%TO.N,/FPGA/FPGA pg.3/JTAG.TDO*%
X180050000Y-147950000D02*
X179650000Y-148350000D01*
%TO.N,/FPGA/FPGA pg.3/JTAG.TMS*%
X180050000Y-147150000D02*
X179650000Y-147550000D01*
%TO.N,/FPGA/FPGA pg.3/JTAG.TCK*%
X180050000Y-139950000D02*
X179650000Y-139550000D01*
%TO.N,/FPGA/FPGA pg.3/JTAG.TDI*%
X180850000Y-147950000D02*
X180450000Y-148350000D01*
%TO.N,/FPGA/FPGA pg.2/VCCO34*%
X174450000Y-147950000D02*
X174050000Y-148350000D01*
X176050000Y-144750000D02*
X175650000Y-145150000D01*
X178450000Y-143950000D02*
X178050000Y-144350000D01*
X176850000Y-147150000D02*
X176450000Y-147550000D01*
X177650000Y-149550000D02*
X177250000Y-149950000D01*
X179250000Y-146350000D02*
X178850000Y-146750000D01*
D50*
%TO.N,unconnected-(U6B-IO_L3N_T0_DQS_34-PadK1)*%
X174450000Y-143150000D02*
X174050000Y-143550000D01*
D49*
%TO.N,unconnected-(U6E-DXN_0-PadM9)*%
X180850000Y-144750000D02*
X180450000Y-145150000D01*
%TO.N,/FPGA/FPGA pg.3/GTP3_TX+*%
X175250000Y-136750000D02*
X174850000Y-136350000D01*
%TO.N,unconnected-(U6B-IO_L16P_T2_34-PadV3)*%
X176050000Y-149550000D02*
X175650000Y-149950000D01*
%TO.N,/FPGA/FPGA pg.3/GTP0_RX+*%
X176850000Y-139150000D02*
X176450000Y-138750000D01*
%TO.N,unconnected-(U6E-DONE_0-PadF12)*%
X183250000Y-139950000D02*
X183650000Y-139550000D01*
%TO.N,/FPGA/FPGA pg.3/VCCO_0*%
X181650000Y-139150000D02*
X182050000Y-138750000D01*
X181650000Y-147150000D02*
X182050000Y-147550000D01*
%TO.N,/FPGA/FPGA pg.3/GT_REFCLK1+*%
X178450000Y-136750000D02*
X178050000Y-136350000D01*
X177650000Y-136750000D02*
X177250000Y-136350000D01*
%TO.N,/FPGA/FPGA pg.3/GTP1_TX+*%
X175250000Y-139950000D02*
X174850000Y-139550000D01*
%TO.N,unconnected-(U6A-IO_L17N_T2_A25_15-PadD18)*%
X188050000Y-138350000D02*
X188450000Y-137950000D01*
%TO.N,unconnected-(U6A-IO_L24P_T3_RS1_15-PadF17)*%
X187250000Y-139950000D02*
X187650000Y-139550000D01*
%TO.N,unconnected-(U6B-IO_L13N_T2_MRCC_34-PadR1)*%
X174450000Y-147150000D02*
X174050000Y-147550000D01*
%TO.N,unconnected-(U6A-IO_25_15-PadH14)*%
X184850000Y-141550000D02*
X185250000Y-141150000D01*
%TO.N,unconnected-(U6A-IO_L23N_T3_A02_D18_14-PadV11)*%
X182450000Y-149550000D02*
X182850000Y-149950000D01*
%TO.N,Net-(U6D-MGTRREF_216)*%
X177250000Y-134750000D02*
X178050000Y-135550000D01*
X173250000Y-134750000D02*
X177250000Y-134750000D01*
X170520000Y-135000000D02*
X170520000Y-136500000D01*
X170750000Y-134000000D02*
X172500000Y-134000000D01*
X170520000Y-134230000D02*
X170750000Y-134000000D01*
X170520000Y-135000000D02*
X170520000Y-134230000D01*
X178450000Y-135950000D02*
X178050000Y-135550000D01*
X172500000Y-134000000D02*
X173250000Y-134750000D01*
%TO.N,unconnected-(U6A-IO_L13N_T2_MRCC_15-PadD15)*%
X185650000Y-138350000D02*
X186050000Y-137950000D01*
%TO.N,/FPGA/FPGA pg.4/VCCINT*%
X180850000Y-146350000D02*
X180450000Y-146750000D01*
X179250000Y-139950000D02*
X178850000Y-139550000D01*
X181650000Y-145550000D02*
X182050000Y-145950000D01*
X179250000Y-144750000D02*
X178850000Y-145150000D01*
X180050000Y-145550000D02*
X179650000Y-145950000D01*
X180850000Y-139950000D02*
X180450000Y-139550000D01*
X179250000Y-143150000D02*
X178850000Y-143550000D01*
X182450000Y-146350000D02*
X182850000Y-146750000D01*
X179250000Y-141550000D02*
X178850000Y-141150000D01*
X182450000Y-144750000D02*
X182850000Y-145150000D01*
X183250000Y-145550000D02*
X183650000Y-145950000D01*
X183250000Y-143950000D02*
X183650000Y-144350000D01*
X180050000Y-140750000D02*
X179650000Y-140350000D01*
X180850000Y-141550000D02*
X180450000Y-141150000D01*
X180050000Y-142350000D02*
X179650000Y-141950000D01*
X180050000Y-143950000D02*
X179650000Y-144350000D01*
X182450000Y-143150000D02*
X182850000Y-143550000D01*
X183250000Y-142350000D02*
X183650000Y-141950000D01*
%TO.N,unconnected-(U6A-IO_L22P_T3_A05_D21_14-PadT12)*%
X183250000Y-147950000D02*
X183650000Y-148350000D01*
%TO.N,unconnected-(U6A-IO_25_14-PadU10)*%
X181650000Y-148750000D02*
X182050000Y-149150000D01*
%TO.N,unconnected-(U6A-IO_L22N_T3_A16_15-PadF14)*%
X184850000Y-139950000D02*
X185250000Y-139550000D01*
%TO.N,unconnected-(U6E-VP_0-PadK10)*%
X181650000Y-143150000D02*
X182050000Y-143550000D01*
%TO.N,unconnected-(U6E-VREFN_0-PadK9)*%
X180850000Y-143150000D02*
X180450000Y-143550000D01*
%TO.N,unconnected-(U6A-IO_L20N_T3_A07_D23_14-PadV14)*%
X184850000Y-149550000D02*
X185250000Y-149950000D01*
%TO.N,/FPGA/FPGA pg.3/GTP0_TX-*%
X174450000Y-141550000D02*
X174050000Y-141150000D01*
%TO.N,unconnected-(U6A-IO_L24N_T3_A00_D16_14-PadV9)*%
X180850000Y-149550000D02*
X180450000Y-149950000D01*
%TO.N,unconnected-(U6B-IO_L12N_T1_MRCC_34-PadP3)*%
X176050000Y-146350000D02*
X175650000Y-146750000D01*
D50*
%TO.N,unconnected-(U6B-IO_L4P_T0_34-PadK3)*%
X176050000Y-143150000D02*
X175650000Y-143550000D01*
D49*
%TO.N,unconnected-(U6A-IO_L22P_T3_A17_15-PadG14)*%
X184850000Y-140750000D02*
X185250000Y-140350000D01*
D50*
%TO.N,unconnected-(U6B-IO_L6P_T0_34-PadL5)*%
X177650000Y-143950000D02*
X177250000Y-144350000D01*
D49*
%TO.N,/FPGA/FPGA pg.3/GTP3_TX-*%
X174450000Y-136750000D02*
X174050000Y-136350000D01*
%TO.N,unconnected-(U6B-IO_25_34-PadR6)*%
X178450000Y-147150000D02*
X178050000Y-147550000D01*
%TO.N,unconnected-(U6A-IO_L3N_T0_DQS_EMCCLK_14-PadK18)*%
X188050000Y-143150000D02*
X188450000Y-143550000D01*
%TO.N,unconnected-(U6E-INIT_B_0-PadT10)*%
X181650000Y-147950000D02*
X182050000Y-148350000D01*
%TO.N,unconnected-(U6E-M0_0-PadR12)*%
X183250000Y-147150000D02*
X183650000Y-147550000D01*
%TO.N,unconnected-(U6A-IO_L20P_T3_A20_15-PadH16)*%
X186450000Y-141550000D02*
X186850000Y-141150000D01*
%TO.N,/FPGA/FPGA pg.3/GTP1_RX+*%
X176850000Y-135950000D02*
X176450000Y-135550000D01*
%TO.N,unconnected-(U6E-VN_0-PadL9)*%
X180850000Y-143950000D02*
X180450000Y-144350000D01*
%TO.N,unconnected-(U6A-IO_L22N_T3_A04_D20_14-PadU12)*%
X183250000Y-148750000D02*
X183650000Y-149150000D01*
%TO.N,unconnected-(U6A-IO_L4P_T0_D04_14-PadK17)*%
X187250000Y-143150000D02*
X187650000Y-143550000D01*
%TO.N,unconnected-(U6B-IO_L11P_T1_SRCC_34-PadN3)*%
X176050000Y-145550000D02*
X175650000Y-145950000D01*
%TO.N,/FPGA/FPGA pg.3/GTP0_TX+*%
X175250000Y-141550000D02*
X174850000Y-141150000D01*
%TO.N,/FPGA/FPGA pg.3/GTP2_RX+*%
X176850000Y-137550000D02*
X176450000Y-137150000D01*
%TO.N,unconnected-(U6E-M2_0-PadF13)*%
X184050000Y-139950000D02*
X184450000Y-139550000D01*
%TO.N,/FPGA/FPGA pg.3/GTP0_RX-*%
X176050000Y-139150000D02*
X175650000Y-138750000D01*
%TO.N,unconnected-(U6A-IO_L23P_T3_FOE_B_15-PadH17)*%
X187250000Y-141550000D02*
X187650000Y-141150000D01*
%TO.N,/FPGA/FPGA pg.3/GTP3_RX-*%
X176050000Y-140750000D02*
X175650000Y-140350000D01*
D50*
%TO.N,/DDR3_DQ2*%
X199100000Y-141000000D02*
X199500001Y-140599999D01*
X199500001Y-140599999D02*
X199500001Y-140413902D01*
D49*
X180850000Y-137550000D02*
X180450000Y-137150000D01*
%TO.N,unconnected-(U8B-NC-PadJ1)*%
X198649999Y-143050000D02*
X198700000Y-143050000D01*
X198300000Y-143399999D02*
X198649999Y-143050000D01*
%TO.N,unconnected-(U6A-IO_L21P_T3_DQS_15-PadG15)*%
X185650000Y-140750000D02*
X186050000Y-140350000D01*
D50*
%TO.N,/DDR3_DQ6*%
X199302857Y-141597143D02*
X199100000Y-141800000D01*
D49*
X181650000Y-135950000D02*
X182050000Y-135550000D01*
D50*
X199302857Y-141405714D02*
X199302857Y-141597143D01*
D49*
%TO.N,/FPGA/FPGA pg.3/GT_REFCLK0-*%
X177650000Y-138350000D02*
X177250000Y-137950000D01*
%TO.N,unconnected-(U6A-IO_L24P_T3_A01_D17_14-PadU9)*%
X180850000Y-148750000D02*
X180450000Y-149150000D01*
%TO.N,/FPGA/FPGA pg.3/GTP2_TX-*%
X174450000Y-138350000D02*
X174050000Y-137950000D01*
%TO.N,/DDR3_CAS#*%
X199900000Y-144200000D02*
X200300000Y-143800001D01*
X186450000Y-148750000D02*
X186850000Y-149150000D01*
%TO.N,unconnected-(U6A-IO_0_14-PadL14)*%
X184850000Y-143950000D02*
X185250000Y-144350000D01*
%TO.N,/FPGA/FPGA pg.3/GTP3_RX+*%
X176850000Y-140750000D02*
X176450000Y-140350000D01*
%TO.N,unconnected-(U6E-PROGRAM_B_0-PadP10)*%
X181650000Y-146350000D02*
X182050000Y-146750000D01*
%TO.N,unconnected-(U6A-IO_L23P_T3_A03_D19_14-PadU11)*%
X182450000Y-148750000D02*
X182850000Y-149150000D01*
%TO.N,/DDR3_ADDR10*%
X186450000Y-145550000D02*
X186850000Y-145950000D01*
X203100000Y-144999999D02*
X203500000Y-144600000D01*
%TO.N,/FPGA/FPGA pg.3/GTP2_TX+*%
X175250000Y-138350000D02*
X174850000Y-137950000D01*
%TO.N,unconnected-(U6A-IO_L24N_T3_RS0_15-PadE18)*%
X188050000Y-139150000D02*
X188450000Y-138750000D01*
%TO.N,/DDR3_ADDR8*%
X188050000Y-145550000D02*
X188450000Y-145950000D01*
X203900000Y-148999999D02*
X204300000Y-148600000D01*
%TO.N,/DDR3_DQ7*%
X182450000Y-138350000D02*
X182850000Y-137950000D01*
X203494667Y-142205331D02*
X203502133Y-142205331D01*
D50*
X203107464Y-142600000D02*
X203502133Y-142205331D01*
X203100000Y-142600000D02*
X203107464Y-142600000D01*
D49*
%TO.N,unconnected-(U6A-IO_L19N_T3_A09_D25_VREF_14-PadT13)*%
X184050000Y-147950000D02*
X184450000Y-148350000D01*
%TO.N,/FPGA/FPGA pg.3/GTP1_TX-*%
X174450000Y-139950000D02*
X174050000Y-139550000D01*
%TO.N,/DDR3_DQ11*%
X184850000Y-136750000D02*
X185250000Y-136350000D01*
D50*
X199100000Y-138600000D02*
X199500000Y-138200001D01*
D49*
%TO.N,unconnected-(U6A-IO_L14N_T2_SRCC_15-PadD16)*%
X186450000Y-138350000D02*
X186850000Y-137950000D01*
%TO.N,unconnected-(U6E-DXP_0-PadM10)*%
X181650000Y-144750000D02*
X182050000Y-145150000D01*
%TO.N,unconnected-(U6B-IO_L15N_T2_DQS_34-PadU1)*%
X174450000Y-148750000D02*
X174050000Y-149150000D01*
D50*
%TO.N,unconnected-(U6B-IO_L7N_T1_34-PadM1)*%
X174450000Y-144750000D02*
X174050000Y-145150000D01*
D49*
%TO.N,unconnected-(U6A-IO_L13P_T2_MRCC_15-PadE15)*%
X185650000Y-139150000D02*
X186050000Y-138750000D01*
%TO.N,unconnected-(U6B-IO_L14P_T2_SRCC_34-PadR3)*%
X176050000Y-147150000D02*
X175650000Y-147550000D01*
D50*
%TO.N,unconnected-(U6B-IO_L2P_T0_34-PadJ5)*%
X177650000Y-142350000D02*
X177250000Y-141950000D01*
D49*
%TO.N,unconnected-(U6B-IO_L8N_T1_34-PadN6)*%
X178450000Y-145550000D02*
X178050000Y-145950000D01*
D50*
%TO.N,unconnected-(U6B-IO_L5N_T0_34-PadL3)*%
X176050000Y-143950000D02*
X175650000Y-144350000D01*
%TO.N,unconnected-(U6B-IO_0_34-PadJ6)*%
X178450000Y-142350000D02*
X178050000Y-141950000D01*
D49*
%TO.N,unconnected-(U6B-IO_L24N_T3_34-PadV7)*%
X179250000Y-149550000D02*
X178850000Y-149950000D01*
%TO.N,unconnected-(U6B-IO_L17N_T2_34-PadT3)*%
X176050000Y-147950000D02*
X175650000Y-148350000D01*
%TO.N,unconnected-(U6B-IO_L10N_T1_34-PadN4)*%
X176850000Y-145550000D02*
X176450000Y-145950000D01*
%TO.N,unconnected-(U6B-IO_L11N_T1_SRCC_34-PadN2)*%
X175250000Y-145550000D02*
X174850000Y-145950000D01*
%TO.N,unconnected-(U6B-IO_L9N_T1_DQS_34-PadP1)*%
X174450000Y-146350000D02*
X174050000Y-146750000D01*
%TO.N,unconnected-(U6B-IO_L15P_T2_DQS_34-PadU2)*%
X175250000Y-148750000D02*
X174850000Y-149150000D01*
%TO.N,unconnected-(U6A-IO_L5N_T0_D07_14-PadK15)*%
X185650000Y-143150000D02*
X186050000Y-143550000D01*
%TO.N,unconnected-(U6B-IO_L19P_T3_34-PadP6)*%
X178450000Y-146350000D02*
X178050000Y-146750000D01*
D50*
%TO.N,unconnected-(U6B-IO_L3P_T0_DQS_34-PadK2)*%
X175250000Y-143150000D02*
X174850000Y-143550000D01*
D49*
%TO.N,unconnected-(U6B-IO_L17P_T2_34-PadT4)*%
X176850000Y-147950000D02*
X176450000Y-148350000D01*
D50*
%TO.N,unconnected-(U6B-IO_L2N_T0_34-PadJ4)*%
X176850000Y-142350000D02*
X176450000Y-141950000D01*
D49*
%TO.N,unconnected-(U6B-IO_L8P_T1_34-PadM6)*%
X178450000Y-144750000D02*
X178050000Y-145150000D01*
%TO.N,unconnected-(U6B-IO_L12P_T1_MRCC_34-PadP4)*%
X176850000Y-146350000D02*
X176450000Y-146750000D01*
%TO.N,unconnected-(U6B-IO_L21P_T3_DQS_34-PadR5)*%
X177650000Y-147150000D02*
X177250000Y-147550000D01*
D50*
%TO.N,unconnected-(U6B-IO_L4N_T0_34-PadL2)*%
X175250000Y-143950000D02*
X174850000Y-144350000D01*
D49*
%TO.N,unconnected-(U6B-IO_L16N_T2_34-PadV2)*%
X175250000Y-149550000D02*
X174850000Y-149950000D01*
D50*
%TO.N,unconnected-(U6B-IO_L1P_T0_34-PadK6)*%
X178450000Y-143150000D02*
X178050000Y-143550000D01*
D49*
%TO.N,unconnected-(U6B-IO_L23P_T3_34-PadU7)*%
X179250000Y-148750000D02*
X178850000Y-149150000D01*
%TO.N,unconnected-(U6A-IO_L4N_T0_D05_14-PadL18)*%
X188050000Y-143950000D02*
X188450000Y-144350000D01*
%TO.N,unconnected-(U6B-IO_L10P_T1_34-PadM4)*%
X176850000Y-144750000D02*
X176450000Y-145150000D01*
%TO.N,unconnected-(U6A-IO_L16N_T2_A27_15-PadB17)*%
X187250000Y-136750000D02*
X187650000Y-136350000D01*
%TO.N,unconnected-(U6A-IO_L6N_T0_VREF_15-PadC12)*%
X183250000Y-137550000D02*
X183650000Y-137150000D01*
%TO.N,unconnected-(U6B-IO_L9P_T1_DQS_34-PadN1)*%
X174450000Y-145550000D02*
X174050000Y-145950000D01*
%TO.N,unconnected-(U6B-IO_L18P_T2_34-PadU4)*%
X176850000Y-148750000D02*
X176450000Y-149150000D01*
%TO.N,unconnected-(U6B-IO_L6N_T0_VREF_34-PadM5)*%
X177650000Y-144750000D02*
X177250000Y-145150000D01*
%TO.N,unconnected-(U6B-IO_L20P_T3_34-PadU6)*%
X178450000Y-148750000D02*
X178050000Y-149150000D01*
%TO.N,unconnected-(U6B-IO_L20N_T3_34-PadU5)*%
X177650000Y-148750000D02*
X177250000Y-149150000D01*
%TO.N,unconnected-(U6B-IO_L23N_T3_34-PadV6)*%
X178450000Y-149550000D02*
X178050000Y-149950000D01*
%TO.N,unconnected-(U6A-IO_L5P_T0_D06_14-PadJ14)*%
X184850000Y-142350000D02*
X185250000Y-141950000D01*
%TO.N,unconnected-(U6B-IO_L22P_T3_34-PadR7)*%
X179250000Y-147150000D02*
X178850000Y-147550000D01*
%TO.N,unconnected-(U6B-IO_L24P_T3_34-PadV8)*%
X180050000Y-149550000D02*
X179650000Y-149950000D01*
%TO.N,unconnected-(U6B-IO_L19N_T3_VREF_34-PadP5)*%
X177650000Y-146350000D02*
X177250000Y-146750000D01*
D50*
%TO.N,unconnected-(U6B-IO_L5P_T0_34-PadL4)*%
X176850000Y-143950000D02*
X176450000Y-144350000D01*
D49*
%TO.N,unconnected-(U6B-IO_L13P_T2_MRCC_34-PadR2)*%
X175250000Y-147150000D02*
X174850000Y-147550000D01*
%TO.N,unconnected-(U6B-IO_L18N_T2_34-PadV4)*%
X176850000Y-149550000D02*
X176450000Y-149950000D01*
%TO.N,unconnected-(U6A-IO_L3P_T0_DQS_PUDC_B_14-PadJ18)*%
X188050000Y-142350000D02*
X188450000Y-141950000D01*
%TO.N,unconnected-(U6B-IO_L7P_T1_34-PadM2)*%
X175250000Y-144750000D02*
X174850000Y-145150000D01*
%TO.N,unconnected-(U6B-IO_L21N_T3_DQS_34-PadT5)*%
X177650000Y-147950000D02*
X177250000Y-148350000D01*
%TO.N,unconnected-(U6B-IO_L22N_T3_34-PadT7)*%
X179250000Y-147950000D02*
X178850000Y-148350000D01*
%TO.N,unconnected-(U6B-IO_L14N_T2_SRCC_34-PadT2)*%
X175250000Y-147950000D02*
X174850000Y-148350000D01*
%TO.N,+1V5*%
X198300000Y-138600000D02*
X198700000Y-138200001D01*
X199100000Y-142599999D02*
X199500000Y-142200000D01*
X211000000Y-143020000D02*
X211730000Y-143020000D01*
X199100000Y-139399999D02*
X199500000Y-139000000D01*
X194270000Y-137020000D02*
X194250000Y-137000000D01*
X204700000Y-146600000D02*
X205100000Y-146200001D01*
X204700000Y-139399998D02*
X205100000Y-138999999D01*
X205053748Y-139846250D02*
X205100000Y-139846250D01*
X199100000Y-137800000D02*
X199500000Y-137400001D01*
X208730000Y-136520000D02*
X208750000Y-136500000D01*
X210240000Y-142990000D02*
X210250000Y-143000000D01*
X204700000Y-140199998D02*
X205053748Y-139846250D01*
X208000000Y-148020000D02*
X208730000Y-148020000D01*
X195000000Y-137020000D02*
X194270000Y-137020000D01*
X198300000Y-148200000D02*
X198700000Y-147800001D01*
X209500000Y-142990000D02*
X210240000Y-142990000D01*
X204700000Y-146599998D02*
X205100000Y-146199999D01*
X204700000Y-138599999D02*
X205100000Y-138200000D01*
X198300000Y-146600001D02*
X198700000Y-146200002D01*
X198699999Y-140600001D02*
X198699999Y-140413901D01*
X199100000Y-144200000D02*
X199500000Y-143800001D01*
X208730000Y-148020000D02*
X208750000Y-148000000D01*
X198300000Y-141000000D02*
X198699999Y-140600001D01*
X203100000Y-141799999D02*
X203483987Y-141416012D01*
X203506562Y-141437001D02*
X203506562Y-141494870D01*
X203483987Y-141416012D02*
X203485573Y-141416012D01*
X204300000Y-136599999D02*
X204300000Y-136500000D01*
X211730000Y-143020000D02*
X211750000Y-143000000D01*
X204700000Y-142599998D02*
X205100000Y-142199999D01*
X198300000Y-146599999D02*
X198700000Y-146200000D01*
X204262999Y-143837000D02*
X204306562Y-143837000D01*
X194270000Y-148020000D02*
X194250000Y-148000000D01*
X203485573Y-141416012D02*
X203506562Y-141437001D01*
X198300000Y-137000000D02*
X198700000Y-136600001D01*
X204700000Y-148199999D02*
X205100000Y-147800000D01*
X203900000Y-144199999D02*
X204262999Y-143837000D01*
X208000000Y-136520000D02*
X208730000Y-136520000D01*
X203900000Y-136999999D02*
X204300000Y-136599999D01*
X195000000Y-148020000D02*
X194270000Y-148020000D01*
%TO.N,/DDR3_ADDR5*%
X186450000Y-146350000D02*
X186850000Y-146750000D01*
X199100000Y-147400001D02*
X199500000Y-147000002D01*
%TO.N,/DDR3_ADDR14*%
X186450000Y-144750000D02*
X186850000Y-145150000D01*
X203100000Y-148999999D02*
X203500000Y-148600000D01*
D50*
%TO.N,/DDR3_DQ14*%
X203900000Y-137800000D02*
X203900000Y-137776408D01*
D49*
X184050000Y-137550000D02*
X184450000Y-137150000D01*
D50*
X203900000Y-137776408D02*
X204296068Y-137380340D01*
D49*
%TO.N,/DDR3_ADDR11*%
X203100000Y-148199999D02*
X203500000Y-147800000D01*
X184850000Y-145550000D02*
X185250000Y-145950000D01*
D50*
%TO.N,/DDR3_DQ3*%
X204468572Y-140590123D02*
X204337445Y-140721250D01*
X204148161Y-140721250D02*
X203900000Y-140969411D01*
X203900000Y-140969411D02*
X203900000Y-141000000D01*
D49*
X182450000Y-137550000D02*
X182850000Y-137150000D01*
D50*
X204337445Y-140721250D02*
X204148161Y-140721250D01*
D49*
%TO.N,/DDR3_ADDR0*%
X199900000Y-146600001D02*
X200300000Y-146200002D01*
X188050000Y-147150000D02*
X188450000Y-147550000D01*
X199900000Y-146599999D02*
X200300000Y-146200000D01*
D50*
%TO.N,/DDR3_DQ10*%
X203900000Y-138600000D02*
X204300000Y-138200000D01*
D49*
X184850000Y-135950000D02*
X185250000Y-135550000D01*
D50*
%TO.N,/DDR3_DQ0*%
X200300000Y-139700000D02*
X200250000Y-139750000D01*
D49*
X200250000Y-139849999D02*
X199900000Y-140199999D01*
X180050000Y-137550000D02*
X179650000Y-137150000D01*
X200250000Y-139750000D02*
X200250000Y-139849999D01*
D50*
X200250000Y-139850000D02*
X199900000Y-140200000D01*
X200250000Y-139750000D02*
X200250000Y-139850000D01*
D49*
%TO.N,/DDR3_UDQS-*%
X203100000Y-137799999D02*
X203500000Y-137400000D01*
X185650000Y-136750000D02*
X186050000Y-136350000D01*
%TO.N,/DDR3_RESET#*%
X184850000Y-138350000D02*
X185250000Y-137950000D01*
X199100000Y-149000000D02*
X199500000Y-148600001D01*
%TO.N,/DDR3_ADDR4*%
X184850000Y-146350000D02*
X185250000Y-146750000D01*
X203900000Y-147400000D02*
X204300000Y-147000001D01*
%TO.N,/DDR3_ADDR6*%
X203900000Y-148199999D02*
X204300000Y-147800000D01*
X185650000Y-146350000D02*
X186050000Y-146750000D01*
%TO.N,/DDR3_ADDR2*%
X199900000Y-147400001D02*
X200300000Y-147000002D01*
X186450000Y-147150000D02*
X186850000Y-147550000D01*
%TO.N,/DDR3_ADDR13*%
X199900000Y-149000000D02*
X200300000Y-148600001D01*
X187250000Y-144750000D02*
X187650000Y-145150000D01*
%TO.N,/DDR3_BLOCK_ADDR1*%
X203900000Y-146600000D02*
X204300000Y-146200001D01*
X203900000Y-146599998D02*
X204300000Y-146199999D01*
X187250000Y-147950000D02*
X187650000Y-148350000D01*
%TO.N,/DDR3_DQ5*%
X181650000Y-136750000D02*
X182050000Y-136350000D01*
D50*
X203900000Y-142600000D02*
X204300000Y-142199999D01*
D49*
X203900000Y-142599998D02*
X204300000Y-142199999D01*
%TO.N,/DDR3_RAS#*%
X185650000Y-148750000D02*
X186050000Y-149150000D01*
X199900000Y-143399999D02*
X200300000Y-143000000D01*
%TO.N,/DDR3/ZQ*%
X208740000Y-144010000D02*
X208750000Y-144000000D01*
X208000000Y-144010000D02*
X208740000Y-144010000D01*
X203900000Y-144999999D02*
X204300000Y-144600000D01*
%TO.N,/DDR3_DQ4*%
X182450000Y-136750000D02*
X182850000Y-136350000D01*
D50*
X199900000Y-142600000D02*
X200300000Y-142200000D01*
D49*
X199900000Y-142599999D02*
X200300000Y-142200000D01*
D50*
%TO.N,/DDR3_DQ15*%
X199900000Y-136999999D02*
X200300000Y-136600000D01*
D49*
X184050000Y-139150000D02*
X184450000Y-138750000D01*
%TO.N,/DDR3_ADDR7*%
X188050000Y-146350000D02*
X188450000Y-146750000D01*
X199100000Y-148200000D02*
X199500000Y-147800001D01*
%TO.N,/DDR3_CLK_EN*%
X184050000Y-147150000D02*
X184450000Y-147550000D01*
X204700000Y-144199999D02*
X205062999Y-143837000D01*
X205062999Y-143837000D02*
X205106410Y-143837000D01*
%TO.N,unconnected-(U8B-NC-PadL9)*%
X204700000Y-144999999D02*
X205100000Y-144600000D01*
%TO.N,/DDR3_DQ8*%
X183250000Y-135950000D02*
X183650000Y-135550000D01*
D50*
X203100000Y-139400000D02*
X203500000Y-138999999D01*
D49*
%TO.N,/DDR3_CS#*%
X199100000Y-145000000D02*
X199500000Y-144600001D01*
X187250000Y-149550000D02*
X187650000Y-149950000D01*
D50*
%TO.N,/DDR3_DQ1*%
X203379130Y-140720870D02*
X203100000Y-141000000D01*
D49*
X180850000Y-138350000D02*
X180450000Y-137950000D01*
D50*
X203542451Y-140720870D02*
X203379130Y-140720870D01*
D51*
%TO.N,/DDR3_LDQS+*%
X200265519Y-140453369D02*
X200265519Y-140634481D01*
D49*
X180850000Y-136750000D02*
X180450000Y-136350000D01*
D51*
X200265519Y-140634481D02*
X199900000Y-141000000D01*
X200293838Y-140425050D02*
X200265519Y-140453369D01*
D49*
%TO.N,/DDR3_ADDR3*%
X199100000Y-146599999D02*
X199500000Y-146200000D01*
X199100000Y-146600001D02*
X199500000Y-146200002D01*
X185650000Y-147150000D02*
X186050000Y-147550000D01*
%TO.N,/DDR3_ADDR1*%
X187250000Y-147150000D02*
X187650000Y-147550000D01*
X203100000Y-147400000D02*
X203500000Y-147000001D01*
%TO.N,/DDR3_WE#*%
X199900000Y-145000000D02*
X200300000Y-144600001D01*
X186450000Y-149550000D02*
X186850000Y-149950000D01*
%TO.N,unconnected-(U8B-NC-PadL1)*%
X198300000Y-145000000D02*
X198700000Y-144600001D01*
%TO.N,unconnected-(U8B-NC-PadM7)*%
X203100000Y-145799998D02*
X203500000Y-145399999D01*
%TO.N,/DDR3_DQ12*%
X185650000Y-135950000D02*
X186050000Y-135550000D01*
D50*
X203100000Y-136900000D02*
X203500000Y-136500000D01*
X203100000Y-137000000D02*
X203100000Y-136900000D01*
D49*
%TO.N,/DDR3_CLK+*%
X203100000Y-143399998D02*
X203500000Y-142999999D01*
X183250000Y-149550000D02*
X183650000Y-149950000D01*
%TO.N,/DDR3_CLK-*%
X184050000Y-149550000D02*
X184450000Y-149950000D01*
X203100000Y-144199999D02*
X203500000Y-143800000D01*
D51*
%TO.N,/DDR3_LDQS-*%
X200300000Y-141350000D02*
X200300000Y-141400000D01*
X200350000Y-141300000D02*
X200300000Y-141350000D01*
D49*
X180850000Y-135950000D02*
X180450000Y-135550000D01*
D51*
X200300000Y-141400000D02*
X199900000Y-141800000D01*
D49*
%TO.N,/DDR3_ODT*%
X184850000Y-148750000D02*
X185250000Y-149150000D01*
X198300000Y-144200000D02*
X198700000Y-143800001D01*
%TO.N,/DDR3_UDQS+*%
X184850000Y-137550000D02*
X185250000Y-137150000D01*
X203100000Y-138599999D02*
X203500000Y-138200000D01*
%TO.N,/DDR3_BLOCK_ADDR2*%
X188050000Y-147950000D02*
X188450000Y-148350000D01*
X199900000Y-145799999D02*
X200300000Y-145400000D01*
%TO.N,/DDR3_DQ9*%
X184050000Y-135950000D02*
X184450000Y-135550000D01*
D50*
X199900000Y-138600000D02*
X200300000Y-138200001D01*
D49*
%TO.N,/DDR3_ADDR9*%
X187250000Y-145550000D02*
X187650000Y-145950000D01*
X199900000Y-148200000D02*
X200300000Y-147800001D01*
%TO.N,/DDR3_BLOCK_ADDR0*%
X199100000Y-145799999D02*
X199500000Y-145400000D01*
X187250000Y-148750000D02*
X187650000Y-149150000D01*
D50*
%TO.N,/DDR3_DQ13*%
X199100000Y-136999999D02*
X199500000Y-136600000D01*
D49*
X184050000Y-138350000D02*
X184450000Y-137950000D01*
%TO.N,/DDR3_LDM*%
X203100000Y-140199998D02*
X203453748Y-139846250D01*
X203453748Y-139846250D02*
X203500000Y-139846250D01*
X180050000Y-138350000D02*
X179650000Y-137950000D01*
%TO.N,/DDR3_UDM*%
X183250000Y-136750000D02*
X183650000Y-136350000D01*
X199900000Y-139399999D02*
X200231748Y-139068251D01*
X200231748Y-139068251D02*
X200300000Y-139068251D01*
%TO.N,/DDR3_ADDR12*%
X184850000Y-144750000D02*
X185250000Y-145150000D01*
X203100000Y-146600000D02*
X203500000Y-146200001D01*
X203100000Y-146599998D02*
X203500000Y-146199999D01*
%TD*%
%TA.AperFunction,Conductor*%
%TO.N,/FPGA/FPGA pg.4/VCCINT*%
G36*
X180443039Y-127769685D02*
G01*
X180488794Y-127822489D01*
X180500000Y-127874000D01*
X180500000Y-130712455D01*
X180480315Y-130779494D01*
X180479174Y-130781238D01*
X180000000Y-131499999D01*
X180000000Y-131500000D01*
X180000000Y-133750000D01*
X179500000Y-133750000D01*
X179500000Y-131500000D01*
X179500000Y-131499999D01*
X179020826Y-130781238D01*
X179000018Y-130714539D01*
X179000000Y-130712455D01*
X179000000Y-127874000D01*
X179019685Y-127806961D01*
X179072489Y-127761206D01*
X179124000Y-127750000D01*
X180376000Y-127750000D01*
X180443039Y-127769685D01*
G37*
%TD.AperFunction*%
%TD*%
%TA.AperFunction,Conductor*%
%TO.N,GND*%
G36*
X196115677Y-152119685D02*
G01*
X196136319Y-152136319D01*
X196263681Y-152263681D01*
X196297166Y-152325004D01*
X196300000Y-152351362D01*
X196300000Y-154648638D01*
X196291355Y-154678078D01*
X196284832Y-154708065D01*
X196281077Y-154713080D01*
X196280315Y-154715677D01*
X196263681Y-154736319D01*
X196136319Y-154863681D01*
X196074996Y-154897166D01*
X196048638Y-154900000D01*
X194224000Y-154900000D01*
X194156961Y-154880315D01*
X194111206Y-154827511D01*
X194100000Y-154776000D01*
X194100000Y-152224000D01*
X194119685Y-152156961D01*
X194172489Y-152111206D01*
X194224000Y-152100000D01*
X196048638Y-152100000D01*
X196115677Y-152119685D01*
G37*
%TD.AperFunction*%
%TD*%
%TA.AperFunction,Conductor*%
%TO.N,/FPGA/FPGA pg.1/VCCO15*%
G36*
X192215677Y-130019685D02*
G01*
X192236319Y-130036319D01*
X192463681Y-130263681D01*
X192497166Y-130325004D01*
X192500000Y-130351362D01*
X192500000Y-133448638D01*
X192480315Y-133515677D01*
X192463681Y-133536319D01*
X191300000Y-134699999D01*
X191300000Y-138376000D01*
X191280315Y-138443039D01*
X191227511Y-138488794D01*
X191176000Y-138500000D01*
X190651362Y-138500000D01*
X190584323Y-138480315D01*
X190563681Y-138463681D01*
X190136319Y-138036319D01*
X190102834Y-137974996D01*
X190100000Y-137948638D01*
X190100000Y-134500000D01*
X189500000Y-133900000D01*
X185051362Y-133900000D01*
X184984323Y-133880315D01*
X184963681Y-133863681D01*
X184536319Y-133436319D01*
X184502834Y-133374996D01*
X184500000Y-133348638D01*
X184500000Y-132824000D01*
X184519685Y-132756961D01*
X184572489Y-132711206D01*
X184624000Y-132700000D01*
X189300000Y-132700000D01*
X190100000Y-131900000D01*
X190100000Y-130951362D01*
X190119685Y-130884323D01*
X190136319Y-130863681D01*
X190963681Y-130036319D01*
X191025004Y-130002834D01*
X191051362Y-130000000D01*
X192148638Y-130000000D01*
X192215677Y-130019685D01*
G37*
%TD.AperFunction*%
%TD*%
%TA.AperFunction,Conductor*%
%TO.N,/FPGA/FPGA pg.2/VCCO34*%
G36*
X171815677Y-146519685D02*
G01*
X171836319Y-146536319D01*
X172263681Y-146963681D01*
X172297166Y-147025004D01*
X172300000Y-147051362D01*
X172300000Y-151000000D01*
X172900000Y-151600000D01*
X177348638Y-151600000D01*
X177415677Y-151619685D01*
X177436319Y-151636319D01*
X177863681Y-152063681D01*
X177897166Y-152125004D01*
X177900000Y-152151362D01*
X177900000Y-152676000D01*
X177880315Y-152743039D01*
X177827511Y-152788794D01*
X177776000Y-152800000D01*
X173099999Y-152800000D01*
X172300000Y-153599999D01*
X172300000Y-154548638D01*
X172280315Y-154615677D01*
X172263681Y-154636319D01*
X171436319Y-155463681D01*
X171374996Y-155497166D01*
X171348638Y-155500000D01*
X170251362Y-155500000D01*
X170184323Y-155480315D01*
X170163681Y-155463681D01*
X169936319Y-155236319D01*
X169902834Y-155174996D01*
X169900000Y-155148638D01*
X169900000Y-152051362D01*
X169919685Y-151984323D01*
X169936319Y-151963681D01*
X170300000Y-151600000D01*
X171100000Y-150800000D01*
X171100000Y-146624000D01*
X171119685Y-146556961D01*
X171172489Y-146511206D01*
X171224000Y-146500000D01*
X171748638Y-146500000D01*
X171815677Y-146519685D01*
G37*
%TD.AperFunction*%
%TD*%
%TA.AperFunction,Conductor*%
%TO.N,GND*%
G36*
X168343039Y-152119685D02*
G01*
X168388794Y-152172489D01*
X168400000Y-152224000D01*
X168400000Y-154776000D01*
X168380315Y-154843039D01*
X168327511Y-154888794D01*
X168276000Y-154900000D01*
X166451362Y-154900000D01*
X166421921Y-154891355D01*
X166391935Y-154884832D01*
X166386919Y-154881077D01*
X166384323Y-154880315D01*
X166363681Y-154863681D01*
X166236319Y-154736319D01*
X166202834Y-154674996D01*
X166200000Y-154648638D01*
X166200000Y-152351362D01*
X166219685Y-152284323D01*
X166236319Y-152263681D01*
X166363681Y-152136319D01*
X166425004Y-152102834D01*
X166451362Y-152100000D01*
X168276000Y-152100000D01*
X168343039Y-152119685D01*
G37*
%TD.AperFunction*%
%TD*%
%TA.AperFunction,Conductor*%
%TO.N,+V1P8*%
G36*
X196193039Y-141019685D02*
G01*
X196238794Y-141072489D01*
X196250000Y-141124000D01*
X196250000Y-142376000D01*
X196230315Y-142443039D01*
X196177511Y-142488794D01*
X196126000Y-142500000D01*
X193287544Y-142500000D01*
X193220505Y-142480315D01*
X193218761Y-142479174D01*
X192871426Y-142247617D01*
X192811447Y-142207631D01*
X192500000Y-142000000D01*
X190250000Y-142000000D01*
X190250000Y-141500000D01*
X192500000Y-141500000D01*
X193218761Y-141020826D01*
X193285460Y-141000018D01*
X193287544Y-141000000D01*
X196126000Y-141000000D01*
X196193039Y-141019685D01*
G37*
%TD.AperFunction*%
%TD*%
%TA.AperFunction,Conductor*%
%TO.N,/FPGA/FPGA pg.1/VCCO14*%
G36*
X191243039Y-146519685D02*
G01*
X191288794Y-146572489D01*
X191300000Y-146624000D01*
X191300000Y-150800000D01*
X192463681Y-151963681D01*
X192497166Y-152025004D01*
X192500000Y-152051362D01*
X192500000Y-155148638D01*
X192480315Y-155215677D01*
X192463681Y-155236319D01*
X192236319Y-155463681D01*
X192174996Y-155497166D01*
X192148638Y-155500000D01*
X191051362Y-155500000D01*
X190984323Y-155480315D01*
X190963681Y-155463681D01*
X190136319Y-154636319D01*
X190102834Y-154574996D01*
X190100000Y-154548638D01*
X190100000Y-153600000D01*
X189300000Y-152800000D01*
X184624000Y-152800000D01*
X184556961Y-152780315D01*
X184511206Y-152727511D01*
X184500000Y-152676000D01*
X184500000Y-152151362D01*
X184519685Y-152084323D01*
X184536319Y-152063681D01*
X184963681Y-151636319D01*
X185025004Y-151602834D01*
X185051362Y-151600000D01*
X189500000Y-151600000D01*
X190100000Y-151000000D01*
X190100000Y-147051362D01*
X190119685Y-146984323D01*
X190136319Y-146963681D01*
X190563681Y-146536319D01*
X190625004Y-146502834D01*
X190651362Y-146500000D01*
X191176000Y-146500000D01*
X191243039Y-146519685D01*
G37*
%TD.AperFunction*%
%TD*%
%TA.AperFunction,Conductor*%
%TO.N,+V1P2*%
G36*
X172342377Y-134146385D02*
G01*
X172363019Y-134163019D01*
X172563681Y-134363681D01*
X172597166Y-134425004D01*
X172600000Y-134451362D01*
X172600000Y-140848638D01*
X172580315Y-140915677D01*
X172563681Y-140936319D01*
X172036319Y-141463681D01*
X171974996Y-141497166D01*
X171948638Y-141500000D01*
X171224000Y-141500000D01*
X171156961Y-141480315D01*
X171111206Y-141427511D01*
X171100000Y-141376000D01*
X171100000Y-134651362D01*
X171119685Y-134584323D01*
X171136319Y-134563681D01*
X171536981Y-134163019D01*
X171598304Y-134129534D01*
X171624662Y-134126700D01*
X172275338Y-134126700D01*
X172342377Y-134146385D01*
G37*
%TD.AperFunction*%
%TD*%
%TA.AperFunction,Conductor*%
%TO.N,GND*%
G36*
X168343039Y-130619685D02*
G01*
X168388794Y-130672489D01*
X168400000Y-130724000D01*
X168400000Y-133276000D01*
X168380315Y-133343039D01*
X168327511Y-133388794D01*
X168276000Y-133400000D01*
X166451362Y-133400000D01*
X166421921Y-133391355D01*
X166391935Y-133384832D01*
X166386919Y-133381077D01*
X166384323Y-133380315D01*
X166363681Y-133363681D01*
X166236319Y-133236319D01*
X166202834Y-133174996D01*
X166200000Y-133148638D01*
X166200000Y-130851362D01*
X166219685Y-130784323D01*
X166236319Y-130763681D01*
X166363681Y-130636319D01*
X166425004Y-130602834D01*
X166451362Y-130600000D01*
X168276000Y-130600000D01*
X168343039Y-130619685D01*
G37*
%TD.AperFunction*%
%TD*%
%TA.AperFunction,Conductor*%
%TO.N,+V1P0*%
G36*
X171765677Y-130269685D02*
G01*
X171786319Y-130286319D01*
X172213681Y-130713681D01*
X172247166Y-130775004D01*
X172250000Y-130801362D01*
X172250000Y-132250000D01*
X172700000Y-132600000D01*
X178376000Y-132600000D01*
X178443039Y-132619685D01*
X178488794Y-132672489D01*
X178500000Y-132724000D01*
X178500000Y-133198638D01*
X178480315Y-133265677D01*
X178463681Y-133286319D01*
X177786319Y-133963681D01*
X177724996Y-133997166D01*
X177698638Y-134000000D01*
X172764202Y-134000000D01*
X172697163Y-133980315D01*
X172676524Y-133963684D01*
X172585252Y-133872412D01*
X172529936Y-133849501D01*
X172470064Y-133849501D01*
X172448211Y-133858551D01*
X172435388Y-133863863D01*
X172387940Y-133873300D01*
X170724796Y-133873300D01*
X170678229Y-133892589D01*
X170678228Y-133892590D01*
X170607138Y-133963681D01*
X170580210Y-133978384D01*
X170554392Y-133994977D01*
X170548191Y-133995868D01*
X170545815Y-133997166D01*
X170519457Y-134000000D01*
X170301362Y-134000000D01*
X170234323Y-133980315D01*
X170213681Y-133963681D01*
X169786319Y-133536319D01*
X169752834Y-133474996D01*
X169750000Y-133448638D01*
X169750000Y-130801362D01*
X169769685Y-130734323D01*
X169786319Y-130713681D01*
X170213681Y-130286319D01*
X170275004Y-130252834D01*
X170301362Y-130250000D01*
X171698638Y-130250000D01*
X171765677Y-130269685D01*
G37*
%TD.AperFunction*%
%TD*%
%TA.AperFunction,Conductor*%
%TO.N,+V1P8*%
G36*
X191243039Y-139119685D02*
G01*
X191288794Y-139172489D01*
X191300000Y-139224000D01*
X191300000Y-141500000D01*
X190250000Y-141500000D01*
X190250000Y-142000000D01*
X191300000Y-142000000D01*
X191300000Y-145776000D01*
X191280315Y-145843039D01*
X191227511Y-145888794D01*
X191176000Y-145900000D01*
X190651362Y-145900000D01*
X190584323Y-145880315D01*
X190563681Y-145863681D01*
X190136319Y-145436319D01*
X190102834Y-145374996D01*
X190100000Y-145348638D01*
X190100000Y-139651362D01*
X190119685Y-139584323D01*
X190136319Y-139563681D01*
X190563681Y-139136319D01*
X190625004Y-139102834D01*
X190651362Y-139100000D01*
X191176000Y-139100000D01*
X191243039Y-139119685D01*
G37*
%TD.AperFunction*%
%TD*%
%TA.AperFunction,Conductor*%
%TO.N,/DDR3/DDR_VREF*%
G36*
X211243039Y-143719685D02*
G01*
X211288794Y-143772489D01*
X211300000Y-143824000D01*
X211300000Y-145576000D01*
X211280315Y-145643039D01*
X211227511Y-145688794D01*
X211176000Y-145700000D01*
X207824000Y-145700000D01*
X207756961Y-145680315D01*
X207711206Y-145627511D01*
X207700000Y-145576000D01*
X207700000Y-144480699D01*
X207719685Y-144413660D01*
X207772489Y-144367905D01*
X207823995Y-144356699D01*
X208205848Y-144356699D01*
X208267601Y-144344417D01*
X208267604Y-144344414D01*
X208267606Y-144344414D01*
X208302801Y-144320898D01*
X208369478Y-144300020D01*
X208371691Y-144300000D01*
X209200000Y-144300000D01*
X209200000Y-143824000D01*
X209219685Y-143756961D01*
X209272489Y-143711206D01*
X209324000Y-143700000D01*
X211176000Y-143700000D01*
X211243039Y-143719685D01*
G37*
%TD.AperFunction*%
%TD*%
%TA.AperFunction,Conductor*%
%TO.N,/FPGA/FPGA pg.4/VCCINT*%
G36*
X179500000Y-133750000D02*
G01*
X180000000Y-133750000D01*
X180000000Y-132650000D01*
X183876000Y-132650000D01*
X183943039Y-132669685D01*
X183988794Y-132722489D01*
X184000000Y-132774000D01*
X184000000Y-133198638D01*
X183980315Y-133265677D01*
X183963681Y-133286319D01*
X183286319Y-133963681D01*
X183224996Y-133997166D01*
X183198638Y-134000000D01*
X179301362Y-134000000D01*
X179234323Y-133980315D01*
X179213681Y-133963681D01*
X178606187Y-133356187D01*
X178572702Y-133294864D01*
X178574890Y-133233572D01*
X178578390Y-133221656D01*
X178581700Y-133198638D01*
X178581700Y-132774000D01*
X178601385Y-132706961D01*
X178654189Y-132661206D01*
X178705700Y-132650000D01*
X179500000Y-132650000D01*
X179500000Y-133750000D01*
G37*
%TD.AperFunction*%
%TD*%
%TA.AperFunction,Conductor*%
%TO.N,GND*%
G36*
X198164617Y-138906448D02*
G01*
X198165121Y-138904570D01*
X198217164Y-138918513D01*
X198256673Y-138929100D01*
X198256676Y-138929100D01*
X198343324Y-138929100D01*
X198343327Y-138929100D01*
X198427028Y-138906673D01*
X198427029Y-138906672D01*
X198432640Y-138905169D01*
X198432869Y-138905023D01*
X198433558Y-138904923D01*
X198434879Y-138904570D01*
X198434921Y-138904727D01*
X198467804Y-138900000D01*
X198676000Y-138900000D01*
X198743039Y-138919685D01*
X198788794Y-138972489D01*
X198800000Y-139024000D01*
X198800000Y-139232196D01*
X198793551Y-139264617D01*
X198795430Y-139265121D01*
X198770900Y-139356671D01*
X198770900Y-139443328D01*
X198791664Y-139520825D01*
X198791665Y-139520828D01*
X198793327Y-139527028D01*
X198800000Y-139538585D01*
X198800000Y-139550000D01*
X198809264Y-139554631D01*
X198828538Y-139588016D01*
X198828570Y-139588073D01*
X198836447Y-139601714D01*
X198836654Y-139602072D01*
X198897928Y-139663346D01*
X198972972Y-139706673D01*
X199056673Y-139729100D01*
X199056676Y-139729100D01*
X199128928Y-139729100D01*
X199141517Y-139732071D01*
X199150889Y-139731060D01*
X199184382Y-139742191D01*
X199266420Y-139783210D01*
X199317578Y-139830796D01*
X199318627Y-139832597D01*
X199439321Y-140043813D01*
X199455491Y-140111786D01*
X199432345Y-140177710D01*
X199379113Y-140219894D01*
X199372269Y-140222728D01*
X199372265Y-140222731D01*
X199308828Y-140286168D01*
X199274502Y-140369043D01*
X199274501Y-140369048D01*
X199274501Y-140406895D01*
X199271042Y-140418674D01*
X199272155Y-140430901D01*
X199261382Y-140451572D01*
X199254816Y-140473934D01*
X199244746Y-140483492D01*
X199239864Y-140492862D01*
X199212025Y-140514556D01*
X199178593Y-140533661D01*
X199117069Y-140550000D01*
X199049499Y-140550000D01*
X198982460Y-140530315D01*
X198936705Y-140477511D01*
X198925499Y-140426000D01*
X198925499Y-140369047D01*
X198925497Y-140369043D01*
X198899031Y-140305145D01*
X198891171Y-140286167D01*
X198827732Y-140222728D01*
X198744857Y-140188402D01*
X198744855Y-140188401D01*
X198744854Y-140188401D01*
X198655144Y-140188401D01*
X198655142Y-140188401D01*
X198655140Y-140188402D01*
X198572265Y-140222728D01*
X198508826Y-140286167D01*
X198474500Y-140369042D01*
X198474499Y-140369047D01*
X198474499Y-140426000D01*
X198454814Y-140493039D01*
X198402010Y-140538794D01*
X198350499Y-140550000D01*
X198024000Y-140550000D01*
X197956961Y-140530315D01*
X197911206Y-140477511D01*
X197900000Y-140426000D01*
X197900000Y-139024000D01*
X197902550Y-139015314D01*
X197901262Y-139006353D01*
X197912240Y-138982312D01*
X197919685Y-138956961D01*
X197926525Y-138951033D01*
X197930287Y-138942797D01*
X197952521Y-138928507D01*
X197972489Y-138911206D01*
X197983003Y-138908918D01*
X197989065Y-138905023D01*
X198024000Y-138900000D01*
X198132196Y-138900000D01*
X198164617Y-138906448D01*
G37*
%TD.AperFunction*%
%TD*%
M02*
