M48
; DRILL file {KiCad 9.0.0} date 2025-03-03T17:37:00+0100
; FORMAT={-:-/ absolute / inch / decimal}
; #@! TF.CreationDate,2025-03-03T17:37:00+01:00
; #@! TF.GenerationSoftware,Kicad,Pcbnew,9.0.0
; #@! TF.FileFunction,Plated,1,6,PTH
FMAT,2
INCH
; #@! TA.AperFunction,Plated,PTH,ViaDrill
T1C0.0059
; #@! TA.AperFunction,Plated,PTH,ViaDrill
T2C0.0079
; #@! TA.AperFunction,Plated,PTH,ComponentDrill
T3C0.0276
; #@! TA.AperFunction,Plated,PTH,ComponentDrill
T4C0.0410
%
G90
G05
T1
X6.8524Y-5.3366
X6.8524Y-5.3681
X6.8524Y-5.3996
X6.8524Y-5.4311
X6.8524Y-5.4626
X6.8524Y-5.4941
X6.8524Y-5.5256
X6.8524Y-5.5571
X6.8524Y-5.5886
X6.8524Y-5.6516
X6.8524Y-5.6831
X6.8524Y-5.7146
X6.8524Y-5.7461
X6.8524Y-5.7776
X6.8524Y-5.8091
X6.8524Y-5.8406
X6.8524Y-5.872
X6.8533Y-5.9026
X6.8839Y-5.3366
X6.8839Y-5.3681
X6.8839Y-5.3996
X6.8839Y-5.4311
X6.8839Y-5.4626
X6.8839Y-5.4941
X6.8839Y-5.5256
X6.8839Y-5.5571
X6.8839Y-5.5886
X6.8839Y-5.6516
X6.8839Y-5.6831
X6.8839Y-5.7146
X6.8839Y-5.7461
X6.8839Y-5.7776
X6.8839Y-5.8091
X6.8839Y-5.8406
X6.8839Y-5.872
X6.8839Y-5.9035
X6.9154Y-5.3366
X6.9154Y-5.3681
X6.9154Y-5.3996
X6.9154Y-5.4311
X6.9154Y-5.4626
X6.9154Y-5.4941
X6.9154Y-5.5256
X6.9154Y-5.5571
X6.9154Y-5.5886
X6.9154Y-5.6516
X6.9154Y-5.6831
X6.9154Y-5.7146
X6.9154Y-5.7461
X6.9154Y-5.7776
X6.9154Y-5.8091
X6.9154Y-5.8406
X6.9154Y-5.872
X6.9154Y-5.9035
X6.9469Y-5.3366
X6.9469Y-5.3681
X6.9469Y-5.3996
X6.9469Y-5.4311
X6.9469Y-5.4626
X6.9469Y-5.4941
X6.9469Y-5.5256
X6.9469Y-5.5571
X6.9469Y-5.5886
X6.9469Y-5.6516
X6.9469Y-5.6831
X6.9469Y-5.7146
X6.9469Y-5.7461
X6.9469Y-5.7776
X6.9469Y-5.8091
X6.9469Y-5.8406
X6.9469Y-5.872
X6.9469Y-5.9035
X6.9783Y-5.3366
X6.9783Y-5.3681
X6.9783Y-5.3996
X6.9783Y-5.4311
X6.9783Y-5.4626
X6.9783Y-5.4941
X6.9783Y-5.5256
X6.9783Y-5.5571
X6.9783Y-5.5886
X6.9783Y-5.6516
X6.9783Y-5.6831
X6.9783Y-5.7146
X6.9783Y-5.7461
X6.9783Y-5.7776
X6.9783Y-5.8091
X6.9783Y-5.8406
X6.9783Y-5.872
X6.9783Y-5.9035
X7.0098Y-5.3366
X7.0098Y-5.3681
X7.0098Y-5.3996
X7.0098Y-5.4311
X7.0098Y-5.4626
X7.0098Y-5.4941
X7.0098Y-5.5256
X7.0098Y-5.5571
X7.0098Y-5.5886
X7.0098Y-5.6516
X7.0098Y-5.6831
X7.0098Y-5.7146
X7.0098Y-5.7461
X7.0098Y-5.7776
X7.0098Y-5.8091
X7.0098Y-5.8406
X7.0098Y-5.872
X7.0098Y-5.9035
X7.0413Y-5.3366
X7.0413Y-5.3681
X7.0413Y-5.3996
X7.0413Y-5.4311
X7.0413Y-5.4626
X7.0413Y-5.4941
X7.0413Y-5.5256
X7.0413Y-5.5571
X7.0413Y-5.5886
X7.0413Y-5.6516
X7.0413Y-5.6831
X7.0413Y-5.7146
X7.0413Y-5.7461
X7.0413Y-5.7776
X7.0413Y-5.8091
X7.0413Y-5.8406
X7.0413Y-5.872
X7.0413Y-5.9035
X7.0728Y-5.3366
X7.0728Y-5.3681
X7.0728Y-5.3996
X7.0728Y-5.4311
X7.0728Y-5.4626
X7.0728Y-5.4941
X7.0728Y-5.5256
X7.0728Y-5.5571
X7.0728Y-5.5886
X7.0728Y-5.6516
X7.0728Y-5.6831
X7.0728Y-5.7146
X7.0728Y-5.7461
X7.0728Y-5.7776
X7.0728Y-5.8091
X7.0728Y-5.8406
X7.0728Y-5.872
X7.0728Y-5.9035
X7.1043Y-5.3366
X7.1043Y-5.3681
X7.1043Y-5.3996
X7.1043Y-5.4311
X7.1043Y-5.4626
X7.1043Y-5.4941
X7.1043Y-5.5256
X7.1043Y-5.5571
X7.1043Y-5.5886
X7.1043Y-5.6516
X7.1043Y-5.6831
X7.1043Y-5.7146
X7.1043Y-5.7461
X7.1043Y-5.7776
X7.1043Y-5.8091
X7.1043Y-5.8406
X7.1043Y-5.872
X7.1043Y-5.9035
X7.1673Y-5.3366
X7.1673Y-5.3681
X7.1673Y-5.3996
X7.1673Y-5.4311
X7.1673Y-5.4626
X7.1673Y-5.4941
X7.1673Y-5.5256
X7.1673Y-5.5571
X7.1673Y-5.5886
X7.1673Y-5.6516
X7.1673Y-5.6831
X7.1673Y-5.7146
X7.1673Y-5.7461
X7.1673Y-5.7776
X7.1673Y-5.8091
X7.1673Y-5.8406
X7.1673Y-5.872
X7.1673Y-5.9035
X7.1988Y-5.3366
X7.1988Y-5.3681
X7.1988Y-5.3996
X7.1988Y-5.4311
X7.1988Y-5.4626
X7.1988Y-5.4941
X7.1988Y-5.5256
X7.1988Y-5.5571
X7.1988Y-5.5886
X7.1988Y-5.6516
X7.1988Y-5.6831
X7.1988Y-5.7146
X7.1988Y-5.7461
X7.1988Y-5.7776
X7.1988Y-5.8091
X7.1988Y-5.8406
X7.1988Y-5.872
X7.1988Y-5.9035
X7.2303Y-5.3366
X7.2303Y-5.3681
X7.2303Y-5.3996
X7.2303Y-5.4311
X7.2303Y-5.4626
X7.2303Y-5.4941
X7.2303Y-5.5256
X7.2303Y-5.5571
X7.2303Y-5.5886
X7.2303Y-5.6516
X7.2303Y-5.6831
X7.2303Y-5.7146
X7.2303Y-5.7461
X7.2303Y-5.7776
X7.2303Y-5.8091
X7.2303Y-5.8406
X7.2303Y-5.872
X7.2303Y-5.9035
X7.2618Y-5.3366
X7.2618Y-5.3681
X7.2618Y-5.3996
X7.2618Y-5.4311
X7.2618Y-5.4626
X7.2618Y-5.4941
X7.2618Y-5.5256
X7.2618Y-5.5571
X7.2618Y-5.5886
X7.2618Y-5.6516
X7.2618Y-5.6831
X7.2618Y-5.7146
X7.2618Y-5.7461
X7.2618Y-5.7776
X7.2618Y-5.8091
X7.2618Y-5.8406
X7.2618Y-5.872
X7.2618Y-5.9035
X7.2933Y-5.3366
X7.2933Y-5.3681
X7.2933Y-5.3996
X7.2933Y-5.4311
X7.2933Y-5.4626
X7.2933Y-5.4941
X7.2933Y-5.5256
X7.2933Y-5.5571
X7.2933Y-5.5886
X7.2933Y-5.6516
X7.2933Y-5.6831
X7.2933Y-5.7146
X7.2933Y-5.7461
X7.2933Y-5.7776
X7.2933Y-5.8091
X7.2933Y-5.8406
X7.2933Y-5.872
X7.2933Y-5.9035
X7.3248Y-5.3366
X7.3248Y-5.3681
X7.3248Y-5.3996
X7.3248Y-5.4311
X7.3248Y-5.4626
X7.3248Y-5.4941
X7.3248Y-5.5256
X7.3248Y-5.5571
X7.3248Y-5.5886
X7.3248Y-5.6516
X7.3248Y-5.6831
X7.3248Y-5.7146
X7.3248Y-5.7461
X7.3248Y-5.7776
X7.3248Y-5.8091
X7.3248Y-5.8406
X7.3248Y-5.872
X7.3248Y-5.9035
X7.3563Y-5.3366
X7.3563Y-5.3681
X7.3563Y-5.3996
X7.3563Y-5.4311
X7.3563Y-5.4626
X7.3563Y-5.4941
X7.3563Y-5.5256
X7.3563Y-5.5571
X7.3563Y-5.5886
X7.3563Y-5.6516
X7.3563Y-5.6831
X7.3563Y-5.7146
X7.3563Y-5.7461
X7.3563Y-5.7776
X7.3563Y-5.8091
X7.3563Y-5.8406
X7.3563Y-5.872
X7.3563Y-5.9035
X7.3878Y-5.3366
X7.3878Y-5.3681
X7.3878Y-5.3996
X7.3878Y-5.4311
X7.3878Y-5.4626
X7.3878Y-5.4941
X7.3878Y-5.5256
X7.3878Y-5.5571
X7.3878Y-5.5886
X7.3878Y-5.6516
X7.3878Y-5.6831
X7.3878Y-5.7146
X7.3878Y-5.7461
X7.3878Y-5.7776
X7.3878Y-5.8091
X7.3878Y-5.8406
X7.3878Y-5.872
X7.3878Y-5.9035
X7.4193Y-5.3366
X7.4193Y-5.3681
X7.4193Y-5.3996
X7.4193Y-5.4311
X7.4193Y-5.4626
X7.4193Y-5.4941
X7.4193Y-5.5256
X7.4193Y-5.5571
X7.4193Y-5.5886
X7.4193Y-5.6516
X7.4193Y-5.6831
X7.4193Y-5.7146
X7.4193Y-5.7461
X7.4193Y-5.7776
X7.4193Y-5.8091
X7.4193Y-5.8406
X7.4193Y-5.872
X7.4193Y-5.9035
X7.8228Y-5.5281
X7.8228Y-5.378
X7.8228Y-5.4094
X7.8228Y-5.4409
X7.8228Y-5.4724
X7.8228Y-5.5669
X7.8228Y-5.5984
X7.8228Y-5.6319
X7.8228Y-5.6614
X7.8228Y-5.6929
X7.8228Y-5.7244
X7.8228Y-5.7559
X7.8228Y-5.7559
X7.8228Y-5.7874
X7.8228Y-5.8189
X7.8228Y-5.8504
X7.8466Y-5.5672
X7.8543Y-5.378
X7.8543Y-5.4094
X7.8543Y-5.4409
X7.8543Y-5.4724
X7.8543Y-5.5984
X7.8543Y-5.632
X7.8543Y-5.6614
X7.8543Y-5.6929
X7.8543Y-5.7244
X7.8543Y-5.7559
X7.8543Y-5.7559
X7.8543Y-5.7874
X7.8543Y-5.8189
X7.8543Y-5.8504
X7.8543Y-5.5281
X7.8856Y-5.5285
X7.8858Y-5.378
X7.8858Y-5.4094
X7.8858Y-5.4409
X7.8858Y-5.4751
X7.8858Y-5.5
X7.8858Y-5.5984
X7.8858Y-5.6299
X7.8858Y-5.6614
X7.8858Y-5.6929
X7.8858Y-5.7244
X7.8858Y-5.7559
X7.8858Y-5.7559
X7.8858Y-5.7874
X7.8858Y-5.8189
X7.8858Y-5.8504
X7.8878Y-5.563
X8.0118Y-5.374
X8.0118Y-5.4094
X8.0118Y-5.4409
X8.0118Y-5.4724
X8.0118Y-5.5058
X8.0118Y-5.6299
X8.0118Y-5.6614
X8.0118Y-5.6929
X8.0118Y-5.7244
X8.0118Y-5.7559
X8.0118Y-5.7559
X8.0118Y-5.7874
X8.0118Y-5.8189
X8.0118Y-5.8504
X8.0119Y-5.5986
X8.0121Y-5.5707
X8.0135Y-5.5402
X8.0432Y-5.4087
X8.0433Y-5.374
X8.0433Y-5.4409
X8.0433Y-5.4724
X8.0433Y-5.5058
X8.0433Y-5.5984
X8.0433Y-5.6319
X8.0433Y-5.6929
X8.0433Y-5.7244
X8.0433Y-5.7559
X8.0433Y-5.7559
X8.0433Y-5.7874
X8.0433Y-5.8189
X8.0433Y-5.8504
X8.0436Y-5.6629
X8.0499Y-5.535
X8.0722Y-5.853
X8.0747Y-5.374
X8.0748Y-5.4094
X8.0748Y-5.4409
X8.0748Y-5.4724
X8.0748Y-5.5058
X8.0748Y-5.5984
X8.0748Y-5.6929
X8.0748Y-5.7244
X8.0748Y-5.7559
X8.0748Y-5.7559
X8.0748Y-5.7874
X8.0748Y-5.8189
X8.0751Y-5.6629
X8.0814Y-5.5393
X8.0827Y-5.5689
T2
X6.5551Y-5.1575
X6.5551Y-5.1969
X6.5551Y-5.2362
X6.5551Y-6.0039
X6.5551Y-6.0433
X6.5551Y-6.0827
X6.7126Y-5.3445
X6.7126Y-5.4035
X6.7717Y-5.3445
X6.7717Y-5.4035
X6.7717Y-5.4626
X6.7717Y-5.8169
X6.7717Y-5.876
X6.7717Y-5.9744
X6.7717Y-6.0039
X6.7815Y-5.2264
X6.7815Y-5.2559
X6.8406Y-5.1969
X6.8406Y-5.2559
X6.8996Y-5.1969
X6.8996Y-5.2559
X6.8996Y-5.9843
X6.9587Y-5.1969
X6.9587Y-5.2559
X6.9587Y-5.9843
X7.0177Y-5.1969
X7.0768Y-5.2559
X7.1358Y-5.1969
X7.1358Y-5.2559
X7.1949Y-5.1969
X7.1949Y-5.2559
X7.2539Y-5.1969
X7.313Y-5.1969
X7.313Y-5.2559
X7.313Y-5.9843
X7.372Y-5.1969
X7.372Y-5.2559
X7.372Y-5.9843
X7.4311Y-5.1969
X7.4902Y-5.2165
X7.4902Y-5.2559
X7.4902Y-5.9744
X7.4902Y-6.0039
X7.4921Y-5.3445
X7.5Y-5.4035
X7.5Y-5.5217
X7.5Y-5.5807
X7.5Y-5.6398
X7.5Y-5.6988
X7.5Y-5.8169
X7.5Y-5.876
X7.5512Y-5.4035
X7.5591Y-5.3445
X7.5591Y-5.5217
X7.5591Y-5.6398
X7.5591Y-5.6988
X7.5591Y-5.8169
X7.5591Y-5.876
X7.5591Y-5.935
X7.646Y-5.4344
X7.6476Y-5.3937
X7.6476Y-5.8268
X7.6476Y-5.8661
X7.7165Y-6.0039
X7.7165Y-6.0433
X7.7165Y-6.0827
X8.2185Y-5.374
X8.2185Y-5.4134
X8.2185Y-5.6299
X8.2185Y-5.6693
X8.2185Y-5.6988
X8.2185Y-5.8268
X8.2185Y-5.8661
X8.2776Y-5.6299
X8.2776Y-5.6988
X8.3366Y-5.6299
T4
X5.9055Y-5.5118
X6.2992Y-5.5118
T3
G00X7.0512Y-3.7185
M15
G01X7.0512Y-3.7421
M16
G05
G00X7.3031Y-3.7185
M15
G01X7.3031Y-3.7421
M16
G05
M30
