%TF.GenerationSoftware,KiCad,Pcbnew,9.0.0*%
%TF.CreationDate,2025-03-03T17:37:00+01:00*%
%TF.ProjectId,logix-core,6c6f6769-782d-4636-9f72-652e6b696361,rev?*%
%TF.SameCoordinates,Original*%
%TF.FileFunction,Paste,Top*%
%TF.FilePolarity,Positive*%
%FSLAX46Y46*%
G04 Gerber Fmt 4.6, Leading zero omitted, Abs format (unit mm)*
G04 Created by KiCad (PCBNEW 9.0.0) date 2025-03-03 17:37:00*
%MOMM*%
%LPD*%
G01*
G04 APERTURE LIST*
G04 Aperture macros list*
%AMRoundRect*
0 Rectangle with rounded corners*
0 $1 Rounding radius*
0 $2 $3 $4 $5 $6 $7 $8 $9 X,Y pos of 4 corners*
0 Add a 4 corners polygon primitive as box body*
4,1,4,$2,$3,$4,$5,$6,$7,$8,$9,$2,$3,0*
0 Add four circle primitives for the rounded corners*
1,1,$1+$1,$2,$3*
1,1,$1+$1,$4,$5*
1,1,$1+$1,$6,$7*
1,1,$1+$1,$8,$9*
0 Add four rect primitives between the rounded corners*
20,1,$1+$1,$2,$3,$4,$5,0*
20,1,$1+$1,$4,$5,$6,$7,0*
20,1,$1+$1,$6,$7,$8,$9,0*
20,1,$1+$1,$8,$9,$2,$3,0*%
G04 Aperture macros list end*
%ADD10C,0.000000*%
%ADD11RoundRect,0.160000X-0.197500X-0.160000X0.197500X-0.160000X0.197500X0.160000X-0.197500X0.160000X0*%
%ADD12RoundRect,0.140000X-0.140000X-0.170000X0.140000X-0.170000X0.140000X0.170000X-0.140000X0.170000X0*%
%ADD13C,0.457200*%
%ADD14R,1.700000X0.203200*%
%ADD15R,1.701800X0.254000*%
%ADD16R,0.203200X0.812800*%
%ADD17R,1.092200X0.203200*%
%ADD18R,1.092200X0.254000*%
%ADD19R,1.500000X3.600000*%
%ADD20RoundRect,0.225000X-0.225000X-0.250000X0.225000X-0.250000X0.225000X0.250000X-0.225000X0.250000X0*%
%ADD21RoundRect,0.140000X0.140000X0.170000X-0.140000X0.170000X-0.140000X-0.170000X0.140000X-0.170000X0*%
%ADD22RoundRect,0.135000X-0.135000X-0.185000X0.135000X-0.185000X0.135000X0.185000X-0.135000X0.185000X0*%
%ADD23RoundRect,0.212500X-0.212500X-0.212500X0.212500X-0.212500X0.212500X0.212500X-0.212500X0.212500X0*%
%ADD24RoundRect,0.075000X-0.350000X-0.075000X0.350000X-0.075000X0.350000X0.075000X-0.350000X0.075000X0*%
%ADD25RoundRect,0.075000X-0.075000X-0.350000X0.075000X-0.350000X0.075000X0.350000X-0.075000X0.350000X0*%
%ADD26RoundRect,0.135000X0.185000X-0.135000X0.185000X0.135000X-0.185000X0.135000X-0.185000X-0.135000X0*%
%ADD27R,0.990600X2.743200*%
%ADD28RoundRect,0.140000X-0.170000X0.140000X-0.170000X-0.140000X0.170000X-0.140000X0.170000X0.140000X0*%
%ADD29RoundRect,0.250000X-1.100000X0.325000X-1.100000X-0.325000X1.100000X-0.325000X1.100000X0.325000X0*%
%ADD30RoundRect,0.140000X0.170000X-0.140000X0.170000X0.140000X-0.170000X0.140000X-0.170000X-0.140000X0*%
%ADD31RoundRect,0.218750X-0.218750X-0.256250X0.218750X-0.256250X0.218750X0.256250X-0.218750X0.256250X0*%
%ADD32RoundRect,0.135000X-0.185000X0.135000X-0.185000X-0.135000X0.185000X-0.135000X0.185000X0.135000X0*%
%ADD33R,0.400000X1.200000*%
%ADD34R,1.000000X1.000000*%
%ADD35C,0.400000*%
%ADD36RoundRect,0.250000X0.325000X1.100000X-0.325000X1.100000X-0.325000X-1.100000X0.325000X-1.100000X0*%
%ADD37RoundRect,0.250000X-0.325000X-1.100000X0.325000X-1.100000X0.325000X1.100000X-0.325000X1.100000X0*%
%ADD38R,1.560000X0.650000*%
%ADD39R,0.279000X2.270000*%
%ADD40R,2.540000X0.430000*%
%ADD41R,4.700000X0.430000*%
%ADD42RoundRect,0.250000X-0.435000X-0.555000X0.435000X-0.555000X0.435000X0.555000X-0.435000X0.555000X0*%
%ADD43RoundRect,0.125000X-0.262500X-0.125000X0.262500X-0.125000X0.262500X0.125000X-0.262500X0.125000X0*%
G04 APERTURE END LIST*
D10*
%TO.C,U8*%
G36*
X202301700Y-137174609D02*
G01*
X200698300Y-137174609D01*
X200698300Y-136102300D01*
X202301700Y-136102300D01*
X202301700Y-137174609D01*
G37*
G36*
X202301700Y-138446918D02*
G01*
X200698300Y-138446918D01*
X200698300Y-137374609D01*
X202301700Y-137374609D01*
X202301700Y-138446918D01*
G37*
G36*
X202301700Y-139719228D02*
G01*
X200698300Y-139719228D01*
X200698300Y-138646918D01*
X202301700Y-138646918D01*
X202301700Y-139719228D01*
G37*
G36*
X202301700Y-140991537D02*
G01*
X200698300Y-140991537D01*
X200698300Y-139919227D01*
X202301700Y-139919227D01*
X202301700Y-140991537D01*
G37*
G36*
X202301700Y-142263846D02*
G01*
X200698300Y-142263846D01*
X200698300Y-141191536D01*
X202301700Y-141191536D01*
X202301700Y-142263846D01*
G37*
G36*
X202301700Y-143536155D02*
G01*
X200698300Y-143536155D01*
X200698300Y-142463845D01*
X202301700Y-142463845D01*
X202301700Y-143536155D01*
G37*
G36*
X202301700Y-144808464D02*
G01*
X200698300Y-144808464D01*
X200698300Y-143736154D01*
X202301700Y-143736154D01*
X202301700Y-144808464D01*
G37*
G36*
X202301700Y-146080773D02*
G01*
X200698300Y-146080773D01*
X200698300Y-145008463D01*
X202301700Y-145008463D01*
X202301700Y-146080773D01*
G37*
G36*
X202301700Y-147353082D02*
G01*
X200698300Y-147353082D01*
X200698300Y-146280772D01*
X202301700Y-146280772D01*
X202301700Y-147353082D01*
G37*
G36*
X202301700Y-148625391D02*
G01*
X200698300Y-148625391D01*
X200698300Y-147553082D01*
X202301700Y-147553082D01*
X202301700Y-148625391D01*
G37*
G36*
X202301700Y-149897700D02*
G01*
X200698300Y-149897700D01*
X200698300Y-148825391D01*
X202301700Y-148825391D01*
X202301700Y-149897700D01*
G37*
%TO.C,U2*%
G36*
X233498400Y-88618402D02*
G01*
X233000400Y-88618402D01*
X233000400Y-88415202D01*
X233498400Y-88415202D01*
X233498400Y-88618402D01*
G37*
G36*
X233498400Y-91796800D02*
G01*
X233000400Y-91796800D01*
X233000400Y-91593600D01*
X233498400Y-91593600D01*
X233498400Y-91796800D01*
G37*
G36*
X236599600Y-88618402D02*
G01*
X236101600Y-88618402D01*
X236101600Y-88415202D01*
X236599600Y-88415202D01*
X236599600Y-88618402D01*
G37*
G36*
X236599600Y-91796800D02*
G01*
X236101600Y-91796800D01*
X236101600Y-91593600D01*
X236599600Y-91593600D01*
X236599600Y-91796800D01*
G37*
%TD*%
D11*
%TO.C,R13*%
X152152500Y-158260000D03*
X153347500Y-158260000D03*
%TD*%
D12*
%TO.C,C4*%
X191020000Y-145500000D03*
X191980000Y-145500000D03*
%TD*%
D13*
%TO.C,U8*%
X198300000Y-137000000D03*
X199100000Y-137000000D03*
X199900000Y-137000000D03*
X203100000Y-137000000D03*
X203900000Y-137000000D03*
X204700000Y-137000000D03*
X198300000Y-137800000D03*
X199100000Y-137800000D03*
X199900000Y-137800000D03*
X203100000Y-137800000D03*
X203900000Y-137800000D03*
X204700000Y-137800000D03*
X198300000Y-138600000D03*
X199100000Y-138600000D03*
X199900000Y-138600000D03*
X203100000Y-138600000D03*
X203900000Y-138600000D03*
X204700000Y-138600000D03*
X198300000Y-139400000D03*
X199100000Y-139400000D03*
X199900000Y-139400000D03*
X203100000Y-139400000D03*
X203900000Y-139400000D03*
X204700000Y-139400000D03*
X198300000Y-140200000D03*
X199100000Y-140200000D03*
X199900000Y-140200000D03*
X203100000Y-140200000D03*
X203900000Y-140200000D03*
X204700000Y-140200000D03*
X198300000Y-141000000D03*
X199100000Y-141000000D03*
X199900000Y-141000000D03*
X203100000Y-141000000D03*
X203900000Y-141000000D03*
X204700000Y-141000000D03*
X198300000Y-141800000D03*
X199100000Y-141800000D03*
X199900000Y-141800000D03*
X203100000Y-141800000D03*
X203900000Y-141800000D03*
X204700000Y-141800000D03*
X198300000Y-142600000D03*
X199100000Y-142600000D03*
X199900000Y-142600000D03*
X203100000Y-142600000D03*
X203900000Y-142600000D03*
X204700000Y-142600000D03*
X198300000Y-143400000D03*
X199100000Y-143400000D03*
X199900000Y-143400000D03*
X203100000Y-143400000D03*
X203900000Y-143400000D03*
X204700000Y-143400000D03*
X198300000Y-144199999D03*
X199100000Y-144199999D03*
X199900000Y-144199999D03*
X203100000Y-144199999D03*
X203900000Y-144199999D03*
X204700000Y-144199999D03*
X198300000Y-144999999D03*
X199100000Y-144999999D03*
X199900000Y-144999999D03*
X203100000Y-144999999D03*
X203900000Y-144999999D03*
X204700000Y-144999999D03*
X198300000Y-145799999D03*
X199100000Y-145799999D03*
X199900000Y-145799999D03*
X203100000Y-145799999D03*
X203900000Y-145799999D03*
X204700000Y-145799999D03*
X198300000Y-146599999D03*
X199100000Y-146599999D03*
X199900000Y-146599999D03*
X203100000Y-146599999D03*
X203900000Y-146599999D03*
X204700000Y-146599999D03*
X198300000Y-147399999D03*
X199100000Y-147399999D03*
X199900000Y-147399999D03*
X203100000Y-147399999D03*
X203900000Y-147399999D03*
X204700000Y-147399999D03*
X198300000Y-148199999D03*
X199100000Y-148199999D03*
X199900000Y-148199999D03*
X203100000Y-148199999D03*
X203900000Y-148199999D03*
X204700000Y-148199999D03*
X198300000Y-148999999D03*
X199100000Y-148999999D03*
X199900000Y-148999999D03*
X203100000Y-148999999D03*
X203900000Y-148999999D03*
X204700000Y-148999999D03*
%TD*%
D12*
%TO.C,C18*%
X186925000Y-64980000D03*
X187885000Y-64980000D03*
%TD*%
D14*
%TO.C,U2*%
X233850000Y-89256000D03*
X233850000Y-89656002D03*
D15*
X233850000Y-90106001D03*
D14*
X233850000Y-90556000D03*
X233850000Y-90956002D03*
D16*
X233600000Y-92000000D03*
X233999999Y-92000000D03*
X234400001Y-92000000D03*
X235199999Y-92000000D03*
X235600001Y-92000000D03*
X236000000Y-92000000D03*
D17*
X236054000Y-90956002D03*
X236054000Y-90556000D03*
D18*
X236054000Y-90106001D03*
D17*
X236054000Y-89656002D03*
X236054000Y-89256000D03*
D16*
X236000000Y-88212002D03*
X235600001Y-88212002D03*
X235199999Y-88212002D03*
X234400001Y-88212002D03*
X233999999Y-88212002D03*
X233600000Y-88212002D03*
%TD*%
D19*
%TO.C,L2*%
X181390000Y-55270000D03*
X184440000Y-55270000D03*
%TD*%
D20*
%TO.C,C22*%
X187200000Y-60750000D03*
X188750000Y-60750000D03*
%TD*%
D12*
%TO.C,C5*%
X191020000Y-142500000D03*
X191980000Y-142500000D03*
%TD*%
%TO.C,C24*%
X206622500Y-92750000D03*
X207582500Y-92750000D03*
%TD*%
D21*
%TO.C,C56*%
X171480000Y-148500000D03*
X170520000Y-148500000D03*
%TD*%
D12*
%TO.C,C28*%
X206622500Y-100630000D03*
X207582500Y-100630000D03*
%TD*%
%TO.C,C53*%
X191020000Y-138000000D03*
X191980000Y-138000000D03*
%TD*%
D11*
%TO.C,R12*%
X152152500Y-156270000D03*
X153347500Y-156270000D03*
%TD*%
D22*
%TO.C,R1*%
X186915000Y-63000000D03*
X187935000Y-63000000D03*
%TD*%
D23*
%TO.C,U4*%
X194797500Y-93085000D03*
X194797500Y-94135000D03*
X195847500Y-93085000D03*
X195847500Y-94135000D03*
D24*
X193372500Y-92635000D03*
X193372500Y-93285000D03*
X193372500Y-93935000D03*
X193372500Y-94585000D03*
D25*
X194347500Y-95560000D03*
X194997500Y-95560000D03*
X195647500Y-95560000D03*
X196297500Y-95560000D03*
D24*
X197272500Y-94585000D03*
X197272500Y-93935000D03*
X197272500Y-93285000D03*
X197272500Y-92635000D03*
D25*
X196297500Y-91660000D03*
X195647500Y-91660000D03*
X194997500Y-91660000D03*
X194347500Y-91660000D03*
%TD*%
D26*
%TO.C,R18*%
X208000000Y-144010000D03*
X208000000Y-142990000D03*
%TD*%
D11*
%TO.C,R14*%
X152152500Y-160250000D03*
X153347500Y-160250000D03*
%TD*%
D27*
%TO.C,J3*%
X148999999Y-142130001D03*
X148999999Y-137869999D03*
X151000000Y-142130001D03*
X151000000Y-137869999D03*
X152999999Y-142130001D03*
X152999999Y-137869999D03*
X155000000Y-142130001D03*
X155000000Y-137869999D03*
X157000001Y-142130001D03*
X157000001Y-137869999D03*
X159000000Y-142130001D03*
X159000000Y-137869999D03*
X161000001Y-142130001D03*
X161000001Y-137869999D03*
%TD*%
D12*
%TO.C,C46*%
X191020000Y-147000000D03*
X191980000Y-147000000D03*
%TD*%
D19*
%TO.C,L1*%
X181390000Y-49720000D03*
X184440000Y-49720000D03*
%TD*%
D11*
%TO.C,R5*%
X203445000Y-96760000D03*
X204640000Y-96760000D03*
%TD*%
D12*
%TO.C,C47*%
X191020000Y-150000000D03*
X191980000Y-150000000D03*
%TD*%
%TO.C,C26*%
X206622500Y-96690000D03*
X207582500Y-96690000D03*
%TD*%
%TO.C,C29*%
X207520000Y-53750000D03*
X208480000Y-53750000D03*
%TD*%
D20*
%TO.C,C16*%
X187200000Y-48200000D03*
X188750000Y-48200000D03*
%TD*%
D11*
%TO.C,R10*%
X203445000Y-106710000D03*
X204640000Y-106710000D03*
%TD*%
D28*
%TO.C,C40*%
X195000000Y-148020000D03*
X195000000Y-148980000D03*
%TD*%
D29*
%TO.C,C6*%
X194750000Y-141775000D03*
X194750000Y-144725000D03*
%TD*%
D12*
%TO.C,C23*%
X206622500Y-90780000D03*
X207582500Y-90780000D03*
%TD*%
%TO.C,C27*%
X206622500Y-98660000D03*
X207582500Y-98660000D03*
%TD*%
D30*
%TO.C,C8*%
X174500000Y-132980000D03*
X174500000Y-132020000D03*
%TD*%
D20*
%TO.C,C21*%
X187200000Y-58240000D03*
X188750000Y-58240000D03*
%TD*%
D28*
%TO.C,C48*%
X186500000Y-152520000D03*
X186500000Y-153480000D03*
%TD*%
D11*
%TO.C,R8*%
X203445000Y-102730000D03*
X204640000Y-102730000D03*
%TD*%
D28*
%TO.C,C42*%
X208000000Y-148020000D03*
X208000000Y-148980000D03*
%TD*%
D31*
%TO.C,D2*%
X206925000Y-105500000D03*
X208500000Y-105500000D03*
%TD*%
D11*
%TO.C,R7*%
X203445000Y-100740000D03*
X204640000Y-100740000D03*
%TD*%
%TO.C,R15*%
X152152500Y-162240000D03*
X153347500Y-162240000D03*
%TD*%
D12*
%TO.C,C61*%
X191020000Y-135000000D03*
X191980000Y-135000000D03*
%TD*%
D11*
%TO.C,R11*%
X152152500Y-154280000D03*
X153347500Y-154280000D03*
%TD*%
D20*
%TO.C,C17*%
X187200000Y-50710000D03*
X188750000Y-50710000D03*
%TD*%
D30*
%TO.C,C51*%
X185000000Y-132980000D03*
X185000000Y-132020000D03*
%TD*%
D32*
%TO.C,R20*%
X211000000Y-145480000D03*
X211000000Y-146500000D03*
%TD*%
D33*
%TO.C,USB1*%
X181000000Y-91650000D03*
X181650000Y-91650000D03*
X182300000Y-91650000D03*
X182950000Y-91650000D03*
X183600000Y-91650000D03*
D34*
X185450000Y-92300000D03*
X179150000Y-92300000D03*
%TD*%
D28*
%TO.C,C55*%
X176000000Y-152520000D03*
X176000000Y-153480000D03*
%TD*%
D11*
%TO.C,R4*%
X203445000Y-94770000D03*
X204640000Y-94770000D03*
%TD*%
D28*
%TO.C,C38*%
X208000000Y-145520000D03*
X208000000Y-146480000D03*
%TD*%
D30*
%TO.C,C11*%
X180500000Y-132980000D03*
X180500000Y-132020000D03*
%TD*%
D12*
%TO.C,C14*%
X237173900Y-76010402D03*
X238133900Y-76010402D03*
%TD*%
D28*
%TO.C,C62*%
X174500000Y-152520000D03*
X174500000Y-153480000D03*
%TD*%
D21*
%TO.C,C33*%
X171480000Y-141000000D03*
X170520000Y-141000000D03*
%TD*%
%TO.C,C57*%
X171480000Y-150000000D03*
X170520000Y-150000000D03*
%TD*%
D20*
%TO.C,C20*%
X187200000Y-55730000D03*
X188750000Y-55730000D03*
%TD*%
D35*
%TO.C,U6*%
X174450000Y-135950000D03*
X175250000Y-135950000D03*
X176050000Y-135950000D03*
X176850000Y-135950000D03*
X177650000Y-135950000D03*
X178450000Y-135950000D03*
X179250000Y-135950000D03*
X180050000Y-135950000D03*
X180850000Y-135950000D03*
X181650000Y-135950000D03*
X182450000Y-135950000D03*
X183250000Y-135950000D03*
X184050000Y-135950000D03*
X184850000Y-135950000D03*
X185650000Y-135950000D03*
X186450000Y-135950000D03*
X187250000Y-135950000D03*
X188050000Y-135950000D03*
X174450000Y-136750000D03*
X175250000Y-136750000D03*
X176050000Y-136750000D03*
X176850000Y-136750000D03*
X177650000Y-136750000D03*
X178450000Y-136750000D03*
X179250000Y-136750000D03*
X180050000Y-136750000D03*
X180850000Y-136750000D03*
X181650000Y-136750000D03*
X182450000Y-136750000D03*
X183250000Y-136750000D03*
X184050000Y-136750000D03*
X184850000Y-136750000D03*
X185650000Y-136750000D03*
X186450000Y-136750000D03*
X187250000Y-136750000D03*
X188050000Y-136750000D03*
X174450000Y-137550000D03*
X175250000Y-137550000D03*
X176050000Y-137550000D03*
X176850000Y-137550000D03*
X177650000Y-137550000D03*
X178450000Y-137550000D03*
X179250000Y-137550000D03*
X180050000Y-137550000D03*
X180850000Y-137550000D03*
X181650000Y-137550000D03*
X182450000Y-137550000D03*
X183250000Y-137550000D03*
X184050000Y-137550000D03*
X184850000Y-137550000D03*
X185650000Y-137550000D03*
X186450000Y-137550000D03*
X187250000Y-137550000D03*
X188050000Y-137550000D03*
X174450000Y-138350000D03*
X175250000Y-138350000D03*
X176050000Y-138350000D03*
X176850000Y-138350000D03*
X177650000Y-138350000D03*
X178450000Y-138350000D03*
X179250000Y-138350000D03*
X180050000Y-138350000D03*
X180850000Y-138350000D03*
X181650000Y-138350000D03*
X182450000Y-138350000D03*
X183250000Y-138350000D03*
X184050000Y-138350000D03*
X184850000Y-138350000D03*
X185650000Y-138350000D03*
X186450000Y-138350000D03*
X187250000Y-138350000D03*
X188050000Y-138350000D03*
X174450000Y-139150000D03*
X175250000Y-139150000D03*
X176050000Y-139150000D03*
X176850000Y-139150000D03*
X177650000Y-139150000D03*
X178450000Y-139150000D03*
X179250000Y-139150000D03*
X180050000Y-139150000D03*
X180850000Y-139150000D03*
X181650000Y-139150000D03*
X182450000Y-139150000D03*
X183250000Y-139150000D03*
X184050000Y-139150000D03*
X184850000Y-139150000D03*
X185650000Y-139150000D03*
X186450000Y-139150000D03*
X187250000Y-139150000D03*
X188050000Y-139150000D03*
X174450000Y-139950000D03*
X175250000Y-139950000D03*
X176050000Y-139950000D03*
X176850000Y-139950000D03*
X177650000Y-139950000D03*
X178450000Y-139950000D03*
X179250000Y-139950000D03*
X180050000Y-139950000D03*
X180850000Y-139950000D03*
X181650000Y-139950000D03*
X182450000Y-139950000D03*
X183250000Y-139950000D03*
X184050000Y-139950000D03*
X184850000Y-139950000D03*
X185650000Y-139950000D03*
X186450000Y-139950000D03*
X187250000Y-139950000D03*
X188050000Y-139950000D03*
X174450000Y-140750000D03*
X175250000Y-140750000D03*
X176050000Y-140750000D03*
X176850000Y-140750000D03*
X177650000Y-140750000D03*
X178450000Y-140750000D03*
X179250000Y-140750000D03*
X180050000Y-140750000D03*
X180850000Y-140750000D03*
X181650000Y-140750000D03*
X182450000Y-140750000D03*
X183250000Y-140750000D03*
X184050000Y-140750000D03*
X184850000Y-140750000D03*
X185650000Y-140750000D03*
X186450000Y-140750000D03*
X187250000Y-140750000D03*
X188050000Y-140750000D03*
X174450000Y-141550000D03*
X175250000Y-141550000D03*
X176050000Y-141550000D03*
X176850000Y-141550000D03*
X177650000Y-141550000D03*
X178450000Y-141550000D03*
X179250000Y-141550000D03*
X180050000Y-141550000D03*
X180850000Y-141550000D03*
X181650000Y-141550000D03*
X182450000Y-141550000D03*
X183250000Y-141550000D03*
X184050000Y-141550000D03*
X184850000Y-141550000D03*
X185650000Y-141550000D03*
X186450000Y-141550000D03*
X187250000Y-141550000D03*
X188050000Y-141550000D03*
X174450000Y-142350000D03*
X175250000Y-142350000D03*
X176050000Y-142350000D03*
X176850000Y-142350000D03*
X177650000Y-142350000D03*
X178450000Y-142350000D03*
X179250000Y-142350000D03*
X180050000Y-142350000D03*
X180850000Y-142350000D03*
X181650000Y-142350000D03*
X182450000Y-142350000D03*
X183250000Y-142350000D03*
X184050000Y-142350000D03*
X184850000Y-142350000D03*
X185650000Y-142350000D03*
X186450000Y-142350000D03*
X187250000Y-142350000D03*
X188050000Y-142350000D03*
X174450000Y-143150000D03*
X175250000Y-143150000D03*
X176050000Y-143150000D03*
X176850000Y-143150000D03*
X177650000Y-143150000D03*
X178450000Y-143150000D03*
X179250000Y-143150000D03*
X180050000Y-143150000D03*
X180850000Y-143150000D03*
X181650000Y-143150000D03*
X182450000Y-143150000D03*
X183250000Y-143150000D03*
X184050000Y-143150000D03*
X184850000Y-143150000D03*
X185650000Y-143150000D03*
X186450000Y-143150000D03*
X187250000Y-143150000D03*
X188050000Y-143150000D03*
X174450000Y-143950000D03*
X175250000Y-143950000D03*
X176050000Y-143950000D03*
X176850000Y-143950000D03*
X177650000Y-143950000D03*
X178450000Y-143950000D03*
X179250000Y-143950000D03*
X180050000Y-143950000D03*
X180850000Y-143950000D03*
X181650000Y-143950000D03*
X182450000Y-143950000D03*
X183250000Y-143950000D03*
X184050000Y-143950000D03*
X184850000Y-143950000D03*
X185650000Y-143950000D03*
X186450000Y-143950000D03*
X187250000Y-143950000D03*
X188050000Y-143950000D03*
X174450000Y-144750000D03*
X175250000Y-144750000D03*
X176050000Y-144750000D03*
X176850000Y-144750000D03*
X177650000Y-144750000D03*
X178450000Y-144750000D03*
X179250000Y-144750000D03*
X180050000Y-144750000D03*
X180850000Y-144750000D03*
X181650000Y-144750000D03*
X182450000Y-144750000D03*
X183250000Y-144750000D03*
X184050000Y-144750000D03*
X184850000Y-144750000D03*
X185650000Y-144750000D03*
X186450000Y-144750000D03*
X187250000Y-144750000D03*
X188050000Y-144750000D03*
X174450000Y-145550000D03*
X175250000Y-145550000D03*
X176050000Y-145550000D03*
X176850000Y-145550000D03*
X177650000Y-145550000D03*
X178450000Y-145550000D03*
X179250000Y-145550000D03*
X180050000Y-145550000D03*
X180850000Y-145550000D03*
X181650000Y-145550000D03*
X182450000Y-145550000D03*
X183250000Y-145550000D03*
X184050000Y-145550000D03*
X184850000Y-145550000D03*
X185650000Y-145550000D03*
X186450000Y-145550000D03*
X187250000Y-145550000D03*
X188050000Y-145550000D03*
X174450000Y-146350000D03*
X175250000Y-146350000D03*
X176050000Y-146350000D03*
X176850000Y-146350000D03*
X177650000Y-146350000D03*
X178450000Y-146350000D03*
X179250000Y-146350000D03*
X180050000Y-146350000D03*
X180850000Y-146350000D03*
X181650000Y-146350000D03*
X182450000Y-146350000D03*
X183250000Y-146350000D03*
X184050000Y-146350000D03*
X184850000Y-146350000D03*
X185650000Y-146350000D03*
X186450000Y-146350000D03*
X187250000Y-146350000D03*
X188050000Y-146350000D03*
X174450000Y-147150000D03*
X175250000Y-147150000D03*
X176050000Y-147150000D03*
X176850000Y-147150000D03*
X177650000Y-147150000D03*
X178450000Y-147150000D03*
X179250000Y-147150000D03*
X180050000Y-147150000D03*
X180850000Y-147150000D03*
X181650000Y-147150000D03*
X182450000Y-147150000D03*
X183250000Y-147150000D03*
X184050000Y-147150000D03*
X184850000Y-147150000D03*
X185650000Y-147150000D03*
X186450000Y-147150000D03*
X187250000Y-147150000D03*
X188050000Y-147150000D03*
X174450000Y-147950000D03*
X175250000Y-147950000D03*
X176050000Y-147950000D03*
X176850000Y-147950000D03*
X177650000Y-147950000D03*
X178450000Y-147950000D03*
X179250000Y-147950000D03*
X180050000Y-147950000D03*
X180850000Y-147950000D03*
X181650000Y-147950000D03*
X182450000Y-147950000D03*
X183250000Y-147950000D03*
X184050000Y-147950000D03*
X184850000Y-147950000D03*
X185650000Y-147950000D03*
X186450000Y-147950000D03*
X187250000Y-147950000D03*
X188050000Y-147950000D03*
X174450000Y-148750000D03*
X175250000Y-148750000D03*
X176050000Y-148750000D03*
X176850000Y-148750000D03*
X177650000Y-148750000D03*
X178450000Y-148750000D03*
X179250000Y-148750000D03*
X180050000Y-148750000D03*
X180850000Y-148750000D03*
X181650000Y-148750000D03*
X182450000Y-148750000D03*
X183250000Y-148750000D03*
X184050000Y-148750000D03*
X184850000Y-148750000D03*
X185650000Y-148750000D03*
X186450000Y-148750000D03*
X187250000Y-148750000D03*
X188050000Y-148750000D03*
X174450000Y-149550000D03*
X175250000Y-149550000D03*
X176050000Y-149550000D03*
X176850000Y-149550000D03*
X177650000Y-149550000D03*
X178450000Y-149550000D03*
X179250000Y-149550000D03*
X180050000Y-149550000D03*
X180850000Y-149550000D03*
X181650000Y-149550000D03*
X182450000Y-149550000D03*
X183250000Y-149550000D03*
X184050000Y-149550000D03*
X184850000Y-149550000D03*
X185650000Y-149550000D03*
X186450000Y-149550000D03*
X187250000Y-149550000D03*
X188050000Y-149550000D03*
%TD*%
D30*
%TO.C,C32*%
X176000000Y-132980000D03*
X176000000Y-132020000D03*
%TD*%
D12*
%TO.C,C3*%
X191020000Y-141000000D03*
X191980000Y-141000000D03*
%TD*%
D30*
%TO.C,C49*%
X186500000Y-132980000D03*
X186500000Y-132020000D03*
%TD*%
%TO.C,C30*%
X173000000Y-132980000D03*
X173000000Y-132020000D03*
%TD*%
D36*
%TO.C,C7*%
X170975000Y-132000000D03*
X168025000Y-132000000D03*
%TD*%
D12*
%TO.C,C15*%
X237173900Y-78520402D03*
X238133900Y-78520402D03*
%TD*%
%TO.C,C1*%
X191020000Y-144000000D03*
X191980000Y-144000000D03*
%TD*%
D37*
%TO.C,C43*%
X191525000Y-153500000D03*
X194475000Y-153500000D03*
%TD*%
%TO.C,C9*%
X179775000Y-129250000D03*
X182725000Y-129250000D03*
%TD*%
%TO.C,C63*%
X179775000Y-153750000D03*
X182725000Y-153750000D03*
%TD*%
D38*
%TO.C,U3*%
X193752500Y-98130000D03*
X193752500Y-99080000D03*
X193752500Y-100030000D03*
X196452500Y-100030000D03*
X196452500Y-99080000D03*
X196452500Y-98130000D03*
%TD*%
D30*
%TO.C,C13*%
X179000000Y-132980000D03*
X179000000Y-132020000D03*
%TD*%
D39*
%TO.C,J2*%
X173750000Y-120865000D03*
X173750000Y-115135000D03*
X174250000Y-120865000D03*
X174250000Y-115135000D03*
X174750000Y-120865000D03*
X174750000Y-115135000D03*
X175250000Y-120865000D03*
X175250000Y-115135000D03*
X175750000Y-120865000D03*
X175750000Y-115135000D03*
X176250000Y-120865000D03*
X176250000Y-115135000D03*
X176750000Y-120865000D03*
X176750000Y-115135000D03*
X177250000Y-120865000D03*
X177250000Y-115135000D03*
X177750000Y-120865000D03*
X177750000Y-115135000D03*
X178250000Y-120865000D03*
X178250000Y-115135000D03*
X178750000Y-120865000D03*
X178750000Y-115135000D03*
X179250000Y-120865000D03*
X179250000Y-115135000D03*
X179750000Y-120865000D03*
X179750000Y-115135000D03*
X180250000Y-120865000D03*
X180250000Y-115135000D03*
X180750000Y-120865000D03*
X180750000Y-115135000D03*
X181250000Y-120865000D03*
X181250000Y-115135000D03*
X181750000Y-120865000D03*
X181750000Y-115135000D03*
X182250000Y-120865000D03*
X182250000Y-115135000D03*
X182750000Y-120865000D03*
X182750000Y-115135000D03*
X183250000Y-120865000D03*
X183250000Y-115135000D03*
X183750000Y-120865000D03*
X183750000Y-115135000D03*
X184250000Y-120865000D03*
X184250000Y-115135000D03*
X184750000Y-120865000D03*
X184750000Y-115135000D03*
X185250000Y-120865000D03*
X185250000Y-115135000D03*
X185750000Y-120865000D03*
X185750000Y-115135000D03*
X186250000Y-120865000D03*
X186250000Y-115135000D03*
X186750000Y-120865000D03*
X186750000Y-115135000D03*
X187250000Y-120865000D03*
X187250000Y-115135000D03*
X187750000Y-120865000D03*
X187750000Y-115135000D03*
X188250000Y-120865000D03*
X188250000Y-115135000D03*
D40*
X172935000Y-118000000D03*
D41*
X177825000Y-118000000D03*
X184175000Y-118000000D03*
D40*
X189065000Y-118000000D03*
%TD*%
D11*
%TO.C,R3*%
X203445000Y-92780000D03*
X204640000Y-92780000D03*
%TD*%
D21*
%TO.C,C59*%
X171480000Y-147000000D03*
X170520000Y-147000000D03*
%TD*%
D30*
%TO.C,C10*%
X182000000Y-132980000D03*
X182000000Y-132020000D03*
%TD*%
%TO.C,C12*%
X183500000Y-132980000D03*
X183500000Y-132020000D03*
%TD*%
D12*
%TO.C,C2*%
X191020000Y-139500000D03*
X191980000Y-139500000D03*
%TD*%
D28*
%TO.C,C58*%
X177500000Y-152520000D03*
X177500000Y-153480000D03*
%TD*%
D39*
%TO.C,J1*%
X174750000Y-170865000D03*
X174750000Y-165135000D03*
X175250000Y-170865000D03*
X175250000Y-165135000D03*
X175750000Y-170865000D03*
X175750000Y-165135000D03*
X176250000Y-170865000D03*
X176250000Y-165135000D03*
X176750000Y-170865000D03*
X176750000Y-165135000D03*
X177250000Y-170865000D03*
X177250000Y-165135000D03*
X177750000Y-170865000D03*
X177750000Y-165135000D03*
X178250000Y-170865000D03*
X178250000Y-165135000D03*
X178750000Y-170865000D03*
X178750000Y-165135000D03*
X179250000Y-170865000D03*
X179250000Y-165135000D03*
X179750000Y-170865000D03*
X179750000Y-165135000D03*
X180250000Y-170865000D03*
X180250000Y-165135000D03*
X180750000Y-170865000D03*
X180750000Y-165135000D03*
X181250000Y-170865000D03*
X181250000Y-165135000D03*
X181750000Y-170865000D03*
X181750000Y-165135000D03*
X182250000Y-170865000D03*
X182250000Y-165135000D03*
X182750000Y-170865000D03*
X182750000Y-165135000D03*
X183250000Y-170865000D03*
X183250000Y-165135000D03*
X183750000Y-170865000D03*
X183750000Y-165135000D03*
X184250000Y-170865000D03*
X184250000Y-165135000D03*
X184750000Y-170865000D03*
X184750000Y-165135000D03*
X185250000Y-170865000D03*
X185250000Y-165135000D03*
X185750000Y-170865000D03*
X185750000Y-165135000D03*
X186250000Y-170865000D03*
X186250000Y-165135000D03*
X186750000Y-170865000D03*
X186750000Y-165135000D03*
X187250000Y-170865000D03*
X187250000Y-165135000D03*
X187750000Y-170865000D03*
X187750000Y-165135000D03*
X188250000Y-170865000D03*
X188250000Y-165135000D03*
X188750000Y-170865000D03*
X188750000Y-165135000D03*
X189250000Y-170865000D03*
X189250000Y-165135000D03*
D40*
X173935000Y-168000000D03*
D41*
X178825000Y-168000000D03*
X185175000Y-168000000D03*
D40*
X190065000Y-168000000D03*
%TD*%
D28*
%TO.C,C36*%
X208000000Y-136520000D03*
X208000000Y-137480000D03*
%TD*%
D11*
%TO.C,R16*%
X157402500Y-154280000D03*
X158597500Y-154280000D03*
%TD*%
D30*
%TO.C,C31*%
X177500000Y-132980000D03*
X177500000Y-132020000D03*
%TD*%
%TO.C,C52*%
X188000000Y-132980000D03*
X188000000Y-132020000D03*
%TD*%
D36*
%TO.C,C54*%
X170975000Y-153500000D03*
X168025000Y-153500000D03*
%TD*%
D31*
%TO.C,D1*%
X206925000Y-102910000D03*
X208500000Y-102910000D03*
%TD*%
D28*
%TO.C,C37*%
X209500000Y-145520000D03*
X209500000Y-146480000D03*
%TD*%
D21*
%TO.C,R17*%
X171480000Y-135000000D03*
X170520000Y-135000000D03*
%TD*%
D37*
%TO.C,C64*%
X191525000Y-132000000D03*
X194475000Y-132000000D03*
%TD*%
D19*
%TO.C,L4*%
X181390000Y-66370000D03*
X184440000Y-66370000D03*
%TD*%
D20*
%TO.C,C19*%
X187200000Y-53220000D03*
X188750000Y-53220000D03*
%TD*%
D28*
%TO.C,C39*%
X211000000Y-143020000D03*
X211000000Y-143980000D03*
%TD*%
%TO.C,C45*%
X188000000Y-152520000D03*
X188000000Y-153480000D03*
%TD*%
%TO.C,C60*%
X185000000Y-152520000D03*
X185000000Y-153480000D03*
%TD*%
D12*
%TO.C,C50*%
X191020000Y-136500000D03*
X191980000Y-136500000D03*
%TD*%
%TO.C,C25*%
X206622500Y-94720000D03*
X207582500Y-94720000D03*
%TD*%
D21*
%TO.C,R17*%
X171480000Y-136500000D03*
X170520000Y-136500000D03*
%TD*%
D11*
%TO.C,R9*%
X203445000Y-104720000D03*
X204640000Y-104720000D03*
%TD*%
%TO.C,R2*%
X203445000Y-90790000D03*
X204640000Y-90790000D03*
%TD*%
D21*
%TO.C,C34*%
X171480000Y-139500000D03*
X170520000Y-139500000D03*
%TD*%
D12*
%TO.C,C44*%
X191020000Y-148500000D03*
X191980000Y-148500000D03*
%TD*%
D19*
%TO.C,L3*%
X181390000Y-60820000D03*
X184440000Y-60820000D03*
%TD*%
D21*
%TO.C,C35*%
X171480000Y-138000000D03*
X170520000Y-138000000D03*
%TD*%
D11*
%TO.C,FB1*%
X199055000Y-97750000D03*
X200250000Y-97750000D03*
%TD*%
D42*
%TO.C,U5*%
X201487500Y-60095000D03*
X201487500Y-62095000D03*
X203187500Y-60095000D03*
X203187500Y-62095000D03*
D43*
X199675000Y-59190000D03*
X199675000Y-60460000D03*
X199675000Y-61730000D03*
X199675000Y-63000000D03*
X205000000Y-63000000D03*
X205000000Y-61730000D03*
X205000000Y-60460000D03*
X205000000Y-59190000D03*
%TD*%
D28*
%TO.C,C41*%
X195000000Y-137020000D03*
X195000000Y-137980000D03*
%TD*%
D11*
%TO.C,R6*%
X203445000Y-98750000D03*
X204640000Y-98750000D03*
%TD*%
D32*
%TO.C,R19*%
X209500000Y-142990000D03*
X209500000Y-144010000D03*
%TD*%
M02*
