M48
; DRILL file {KiCad 9.0.0} date 2025-03-23T22:31:05+0100
; FORMAT={-:-/ absolute / inch / decimal}
; #@! TF.CreationDate,2025-03-23T22:31:05+01:00
; #@! TF.GenerationSoftware,Kicad,Pcbnew,9.0.0
; #@! TF.FileFunction,Plated,1,6,PTH
FMAT,2
INCH
; #@! TA.AperFunction,Plated,PTH,ViaDrill
T1C0.0059
; #@! TA.AperFunction,Plated,PTH,ViaDrill
T2C0.0079
; #@! TA.AperFunction,Plated,PTH,ComponentDrill
T3C0.0276
; #@! TA.AperFunction,Plated,PTH,ComponentDrill
T4C0.0410
; #@! TA.AperFunction,Plated,PTH,ComponentDrill
T5C0.1260
%
G90
G05
T1
X4.6024Y-3.8858
X4.6024Y-3.9173
X4.6024Y-3.9803
X4.6339Y-3.5394
X4.6339Y-3.5709
X4.6339Y-3.6024
X4.6339Y-3.6339
X4.6339Y-3.6654
X4.6339Y-3.7283
X4.6339Y-3.7598
X4.6339Y-3.7913
X4.6339Y-3.8228
X4.6339Y-3.8543
X4.6339Y-3.8858
X4.6339Y-3.9803
X4.6654Y-3.5394
X4.6654Y-3.5709
X4.6654Y-3.6024
X4.6654Y-3.6339
X4.6654Y-3.6654
X4.6654Y-3.6969
X4.6654Y-3.7283
X4.6654Y-3.7598
X4.6654Y-3.7913
X4.6654Y-3.8543
X4.6654Y-3.9173
X4.6654Y-3.9803
X4.6969Y-3.5394
X4.6969Y-3.5709
X4.6969Y-3.6024
X4.6969Y-3.6339
X4.6969Y-3.6969
X4.6969Y-3.7283
X4.6969Y-3.7598
X4.6969Y-3.7913
X4.6969Y-3.8228
X4.6969Y-3.8543
X4.6969Y-3.8858
X4.6969Y-3.9173
X4.6969Y-3.9488
X4.6969Y-3.9803
X4.6969Y-4.0118
X4.8228Y-3.5394
X4.8228Y-3.5709
X4.8228Y-3.6024
X4.8228Y-3.6339
X4.8228Y-3.6654
X4.8228Y-3.6969
X4.8228Y-3.7283
X4.8228Y-3.7598
X4.8228Y-3.7913
X4.8228Y-3.8228
X4.8228Y-3.8543
X4.8228Y-3.8858
X4.8228Y-3.9173
X4.8228Y-3.9488
X4.8228Y-3.9803
X4.8228Y-4.0118
X4.8543Y-3.5394
X4.8543Y-3.5709
X4.8543Y-3.6024
X4.8543Y-3.6339
X4.8543Y-3.6654
X4.8543Y-3.6969
X4.8543Y-3.7283
X4.8543Y-3.7598
X4.8543Y-3.7913
X4.8543Y-3.8228
X4.8543Y-3.8543
X4.8543Y-3.8858
X4.8543Y-3.9173
X4.8543Y-3.9488
X4.8543Y-3.9803
X4.8543Y-4.0118
X5.7874Y-3.2283
X5.7874Y-3.2677
X5.7874Y-3.3071
X5.7874Y-3.3465
X5.7874Y-3.3858
X5.7874Y-3.4252
X5.7874Y-3.4646
X5.7874Y-3.5039
X5.7874Y-3.5433
X5.7874Y-3.5827
X5.7874Y-3.622
X5.7874Y-3.7008
X5.7874Y-3.7402
X5.7874Y-3.7795
X5.7874Y-3.8189
X5.7874Y-3.8583
X5.7874Y-3.8976
X5.7874Y-3.937
X5.7874Y-3.9764
X5.7874Y-4.0157
X5.7874Y-4.0551
X5.7874Y-4.0945
X5.8268Y-3.2283
X5.8268Y-3.2677
X5.8268Y-3.3071
X5.8268Y-3.3465
X5.8268Y-3.3858
X5.8268Y-3.4252
X5.8268Y-3.4646
X5.8268Y-3.5039
X5.8268Y-3.5433
X5.8268Y-3.5827
X5.8268Y-3.622
X5.8268Y-3.7008
X5.8268Y-3.7402
X5.8268Y-3.7795
X5.8268Y-3.8189
X5.8268Y-3.8583
X5.8268Y-3.8976
X5.8268Y-3.937
X5.8268Y-3.9764
X5.8268Y-4.0157
X5.8268Y-4.0551
X5.8268Y-4.0945
X5.8661Y-3.2283
X5.8661Y-3.2677
X5.8661Y-3.3071
X5.8661Y-3.3465
X5.8661Y-3.3858
X5.8661Y-3.4252
X5.8661Y-3.4646
X5.8661Y-3.5039
X5.8661Y-3.5433
X5.8661Y-3.5827
X5.8661Y-3.622
X5.8661Y-3.7008
X5.8661Y-3.7402
X5.8661Y-3.7795
X5.8661Y-3.8189
X5.8661Y-3.8583
X5.8661Y-3.8976
X5.8661Y-3.937
X5.8661Y-3.9764
X5.8661Y-4.0157
X5.8661Y-4.0551
X5.8661Y-4.0945
X5.9055Y-3.2283
X5.9055Y-3.2677
X5.9055Y-3.3071
X5.9055Y-3.3465
X5.9055Y-3.3858
X5.9055Y-3.4252
X5.9055Y-3.4646
X5.9055Y-3.5039
X5.9055Y-3.5433
X5.9055Y-3.5827
X5.9055Y-3.622
X5.9055Y-3.7008
X5.9055Y-3.7402
X5.9055Y-3.7795
X5.9055Y-3.8189
X5.9055Y-3.8583
X5.9055Y-3.8976
X5.9055Y-3.937
X5.9055Y-3.9764
X5.9055Y-4.0157
X5.9055Y-4.0551
X5.9055Y-4.0945
X5.9449Y-3.2283
X5.9449Y-3.2677
X5.9449Y-3.3071
X5.9449Y-3.3465
X5.9449Y-3.3858
X5.9449Y-3.4252
X5.9449Y-3.4646
X5.9449Y-3.5039
X5.9449Y-3.5433
X5.9449Y-3.5827
X5.9449Y-3.622
X5.9449Y-3.7008
X5.9449Y-3.7402
X5.9449Y-3.7795
X5.9449Y-3.8189
X5.9449Y-3.8583
X5.9449Y-3.8976
X5.9449Y-3.937
X5.9449Y-3.9764
X5.9449Y-4.0157
X5.9449Y-4.0551
X5.9449Y-4.0945
X5.9843Y-3.2283
X5.9843Y-3.2677
X5.9843Y-3.3071
X5.9843Y-3.3465
X5.9843Y-3.3858
X5.9843Y-3.4252
X5.9843Y-3.4646
X5.9843Y-3.5039
X5.9843Y-3.5433
X5.9843Y-3.5827
X5.9843Y-3.622
X5.9843Y-3.7008
X5.9843Y-3.7402
X5.9843Y-3.7795
X5.9843Y-3.8189
X5.9843Y-3.8583
X5.9843Y-3.8976
X5.9843Y-3.937
X5.9843Y-3.9764
X5.9843Y-4.0157
X5.9843Y-4.0551
X5.9843Y-4.0945
X6.0236Y-3.2283
X6.0236Y-3.2677
X6.0236Y-3.3071
X6.0236Y-3.3465
X6.0236Y-3.3858
X6.0236Y-3.4252
X6.0236Y-3.4646
X6.0236Y-3.5039
X6.0236Y-3.5433
X6.0236Y-3.5827
X6.0236Y-3.622
X6.0236Y-3.7008
X6.0236Y-3.7402
X6.0236Y-3.7795
X6.0236Y-3.8189
X6.0236Y-3.8583
X6.0236Y-3.8976
X6.0236Y-3.937
X6.0236Y-3.9764
X6.0236Y-4.0157
X6.0236Y-4.0551
X6.0236Y-4.0945
X6.063Y-3.2283
X6.063Y-3.2677
X6.063Y-3.3071
X6.063Y-3.3465
X6.063Y-3.3858
X6.063Y-3.4252
X6.063Y-3.4646
X6.063Y-3.5039
X6.063Y-3.5433
X6.063Y-3.5827
X6.063Y-3.622
X6.063Y-3.7008
X6.063Y-3.7402
X6.063Y-3.7795
X6.063Y-3.8189
X6.063Y-3.8583
X6.063Y-3.8976
X6.063Y-3.937
X6.063Y-3.9764
X6.063Y-4.0157
X6.063Y-4.0551
X6.063Y-4.0945
X6.1024Y-3.2283
X6.1024Y-3.2677
X6.1024Y-3.3071
X6.1024Y-3.3465
X6.1024Y-3.3858
X6.1024Y-3.4252
X6.1024Y-3.4646
X6.1024Y-3.5039
X6.1024Y-3.5433
X6.1024Y-3.5827
X6.1024Y-3.622
X6.1024Y-3.7008
X6.1024Y-3.7402
X6.1024Y-3.7795
X6.1024Y-3.8189
X6.1024Y-3.8583
X6.1024Y-3.8976
X6.1024Y-3.937
X6.1024Y-3.9764
X6.1024Y-4.0157
X6.1024Y-4.0551
X6.1024Y-4.0945
X6.1417Y-3.2283
X6.1417Y-3.2677
X6.1417Y-3.3071
X6.1417Y-3.3465
X6.1417Y-3.3858
X6.1417Y-3.4252
X6.1417Y-3.4646
X6.1417Y-3.5039
X6.1417Y-3.5433
X6.1417Y-3.5827
X6.1417Y-3.622
X6.1417Y-3.7008
X6.1417Y-3.7402
X6.1417Y-3.7795
X6.1417Y-3.8189
X6.1417Y-3.8583
X6.1417Y-3.8976
X6.1417Y-3.937
X6.1417Y-3.9764
X6.1417Y-4.0157
X6.1417Y-4.0551
X6.1417Y-4.0945
X6.1811Y-3.2283
X6.1811Y-3.2677
X6.1811Y-3.3071
X6.1811Y-3.3465
X6.1811Y-3.3858
X6.1811Y-3.4252
X6.1811Y-3.4646
X6.1811Y-3.5039
X6.1811Y-3.5433
X6.1811Y-3.5827
X6.1811Y-3.622
X6.1811Y-3.7008
X6.1811Y-3.7402
X6.1811Y-3.7795
X6.1811Y-3.8189
X6.1811Y-3.8583
X6.1811Y-3.8976
X6.1811Y-3.937
X6.1811Y-3.9764
X6.1811Y-4.0157
X6.1811Y-4.0551
X6.1811Y-4.0945
X6.2598Y-3.2283
X6.2598Y-3.2677
X6.2598Y-3.3071
X6.2598Y-3.3465
X6.2598Y-3.3858
X6.2598Y-3.4252
X6.2598Y-3.4646
X6.2598Y-3.5039
X6.2598Y-3.5433
X6.2598Y-3.5827
X6.2598Y-3.622
X6.2598Y-3.7008
X6.2598Y-3.7402
X6.2598Y-3.7795
X6.2598Y-3.8189
X6.2598Y-3.8583
X6.2598Y-3.8976
X6.2598Y-3.937
X6.2598Y-3.9764
X6.2598Y-4.0157
X6.2598Y-4.0551
X6.2598Y-4.0945
X6.2992Y-3.2283
X6.2992Y-3.2677
X6.2992Y-3.3071
X6.2992Y-3.3465
X6.2992Y-3.3858
X6.2992Y-3.4252
X6.2992Y-3.4646
X6.2992Y-3.5039
X6.2992Y-3.5433
X6.2992Y-3.5827
X6.2992Y-3.622
X6.2992Y-3.7008
X6.2992Y-3.7402
X6.2992Y-3.7795
X6.2992Y-3.8189
X6.2992Y-3.8583
X6.2992Y-3.8976
X6.2992Y-3.937
X6.2992Y-3.9764
X6.2992Y-4.0157
X6.2992Y-4.0551
X6.2992Y-4.0945
X6.3386Y-3.2283
X6.3386Y-3.2677
X6.3386Y-3.3071
X6.3386Y-3.3465
X6.3386Y-3.3858
X6.3386Y-3.4252
X6.3386Y-3.4646
X6.3386Y-3.5039
X6.3386Y-3.5433
X6.3386Y-3.5827
X6.3386Y-3.622
X6.3386Y-3.7008
X6.3386Y-3.7402
X6.3386Y-3.7795
X6.3386Y-3.8189
X6.3386Y-3.8583
X6.3386Y-3.8976
X6.3386Y-3.937
X6.3386Y-3.9764
X6.3386Y-4.0157
X6.3386Y-4.0551
X6.3386Y-4.0945
X6.378Y-3.2283
X6.378Y-3.2677
X6.378Y-3.3071
X6.378Y-3.3465
X6.378Y-3.3858
X6.378Y-3.4252
X6.378Y-3.4646
X6.378Y-3.5039
X6.378Y-3.5433
X6.378Y-3.5827
X6.378Y-3.622
X6.378Y-3.7008
X6.378Y-3.7402
X6.378Y-3.7795
X6.378Y-3.8189
X6.378Y-3.8583
X6.378Y-3.8976
X6.378Y-3.937
X6.378Y-3.9764
X6.378Y-4.0157
X6.378Y-4.0551
X6.378Y-4.0945
X6.4173Y-3.2283
X6.4173Y-3.2677
X6.4173Y-3.3071
X6.4173Y-3.3465
X6.4173Y-3.3858
X6.4173Y-3.4252
X6.4173Y-3.4646
X6.4173Y-3.5039
X6.4173Y-3.5433
X6.4173Y-3.5827
X6.4173Y-3.622
X6.4173Y-3.7008
X6.4173Y-3.7402
X6.4173Y-3.7795
X6.4173Y-3.8189
X6.4173Y-3.8583
X6.4173Y-3.8976
X6.4173Y-3.937
X6.4173Y-3.9764
X6.4173Y-4.0157
X6.4173Y-4.0551
X6.4173Y-4.0945
X6.4567Y-3.2283
X6.4567Y-3.2677
X6.4567Y-3.3071
X6.4567Y-3.3465
X6.4567Y-3.3858
X6.4567Y-3.4252
X6.4567Y-3.4646
X6.4567Y-3.5039
X6.4567Y-3.5433
X6.4567Y-3.5827
X6.4567Y-3.622
X6.4567Y-3.7008
X6.4567Y-3.7402
X6.4567Y-3.7795
X6.4567Y-3.8189
X6.4567Y-3.8583
X6.4567Y-3.8976
X6.4567Y-3.937
X6.4567Y-3.9764
X6.4567Y-4.0157
X6.4567Y-4.0551
X6.4567Y-4.0945
X6.4961Y-3.2283
X6.4961Y-3.2677
X6.4961Y-3.3071
X6.4961Y-3.3465
X6.4961Y-3.3858
X6.4961Y-3.4252
X6.4961Y-3.4646
X6.4961Y-3.5039
X6.4961Y-3.5433
X6.4961Y-3.5827
X6.4961Y-3.622
X6.4961Y-3.7008
X6.4961Y-3.7402
X6.4961Y-3.7795
X6.4961Y-3.8189
X6.4961Y-3.8583
X6.4961Y-3.8976
X6.4961Y-3.937
X6.4961Y-3.9764
X6.4961Y-4.0157
X6.4961Y-4.0551
X6.4961Y-4.0945
X6.5354Y-3.2283
X6.5354Y-3.2677
X6.5354Y-3.3071
X6.5354Y-3.3465
X6.5354Y-3.3858
X6.5354Y-3.4252
X6.5354Y-3.4646
X6.5354Y-3.5039
X6.5354Y-3.5433
X6.5354Y-3.5827
X6.5354Y-3.622
X6.5354Y-3.7008
X6.5354Y-3.7402
X6.5354Y-3.7795
X6.5354Y-3.8189
X6.5354Y-3.8583
X6.5354Y-3.8976
X6.5354Y-3.937
X6.5354Y-3.9764
X6.5354Y-4.0157
X6.5354Y-4.0551
X6.5354Y-4.0945
X6.5748Y-3.2283
X6.5748Y-3.2677
X6.5748Y-3.3071
X6.5748Y-3.3465
X6.5748Y-3.3858
X6.5748Y-3.4252
X6.5748Y-3.4646
X6.5748Y-3.5039
X6.5748Y-3.5433
X6.5748Y-3.5827
X6.5748Y-3.622
X6.5748Y-3.7008
X6.5748Y-3.7402
X6.5748Y-3.7795
X6.5748Y-3.8189
X6.5748Y-3.8583
X6.5748Y-3.8976
X6.5748Y-3.937
X6.5748Y-3.9764
X6.5748Y-4.0157
X6.5748Y-4.0551
X6.5748Y-4.0945
X6.6142Y-3.2283
X6.6142Y-3.2677
X6.6142Y-3.3071
X6.6142Y-3.3465
X6.6142Y-3.3858
X6.6142Y-3.4252
X6.6142Y-3.4646
X6.6142Y-3.5039
X6.6142Y-3.5433
X6.6142Y-3.5827
X6.6142Y-3.622
X6.6142Y-3.7008
X6.6142Y-3.7402
X6.6142Y-3.7795
X6.6142Y-3.8189
X6.6142Y-3.8583
X6.6142Y-3.8976
X6.6142Y-3.937
X6.6142Y-3.9764
X6.6142Y-4.0157
X6.6142Y-4.0551
X6.6142Y-4.0945
X6.6535Y-3.2283
X6.6535Y-3.2677
X6.6535Y-3.3071
X6.6535Y-3.3465
X6.6535Y-3.3858
X6.6535Y-3.4252
X6.6535Y-3.4646
X6.6535Y-3.5039
X6.6535Y-3.5433
X6.6535Y-3.5827
X6.6535Y-3.622
X6.6535Y-3.7008
X6.6535Y-3.7402
X6.6535Y-3.7795
X6.6535Y-3.8189
X6.6535Y-3.8583
X6.6535Y-3.8976
X6.6535Y-3.937
X6.6535Y-3.9764
X6.6535Y-4.0157
X6.6535Y-4.0551
X6.6535Y-4.0945
T2
X4.5571Y-3.5827
X4.5571Y-3.622
X4.5571Y-3.7697
X4.5571Y-3.9272
X4.5571Y-3.9665
X4.9311Y-3.7205
X4.9311Y-3.7795
X4.9902Y-3.5827
X4.9902Y-3.622
X5.1083Y-3.7205
X5.5787Y-3.3425
X5.5787Y-3.3701
X5.5787Y-3.3976
X5.5787Y-3.4252
X5.5787Y-4.0197
X5.5787Y-4.0472
X5.5787Y-4.0748
X5.5787Y-4.0984
X5.6142Y-3.5
X5.6142Y-3.5472
X5.6142Y-3.5984
X5.6142Y-3.6457
X5.6142Y-3.6969
X5.6142Y-3.7953
X5.6142Y-3.8425
X5.6142Y-3.8937
X5.6142Y-3.9449
X5.6614Y-4.3031
X5.6654Y-4.1732
X5.685Y-4.3031
X5.689Y-4.1732
X5.7087Y-3.3425
X5.7087Y-3.3701
X5.7087Y-3.3976
X5.7087Y-3.4252
X5.7087Y-3.5
X5.7087Y-3.5472
X5.7087Y-3.5984
X5.7087Y-3.6457
X5.7087Y-3.6969
X5.7087Y-3.7953
X5.7087Y-3.8425
X5.7087Y-3.8937
X5.7087Y-3.9449
X5.7087Y-4.0197
X5.7087Y-4.0472
X5.7087Y-4.0748
X5.7087Y-4.0984
X5.7087Y-4.3031
X5.7126Y-4.1732
X5.7323Y-4.3031
X5.7362Y-4.1732
X5.7717Y-3.0551
X5.7717Y-3.1496
X5.7992Y-3.1496
X5.8228Y-3.0551
X5.8228Y-3.1496
X5.8228Y-4.1732
X5.8228Y-4.2677
X5.8701Y-4.1732
X5.8701Y-4.2677
X5.9213Y-4.1732
X5.9213Y-4.2677
X5.9685Y-4.1732
X5.9685Y-4.2677
X5.9803Y-3.0551
X5.9803Y-3.1496
X6.0197Y-4.1732
X6.0197Y-4.2677
X6.0276Y-3.0551
X6.0276Y-3.1496
X6.0669Y-4.2677
X6.0787Y-3.0551
X6.0787Y-3.1496
X6.1181Y-4.1732
X6.1181Y-4.2677
X6.1654Y-4.1732
X6.1654Y-4.2677
X6.1811Y-3.1496
X6.1969Y-3.0551
X6.2087Y-3.1496
X6.2165Y-4.1732
X6.2165Y-4.2677
X6.2638Y-4.1732
X6.2638Y-4.2677
X6.2795Y-3.0551
X6.2874Y-3.1496
X6.315Y-3.1496
X6.315Y-4.1732
X6.315Y-4.2677
X6.3425Y-3.1496
X6.3504Y-3.0197
X6.3622Y-4.1732
X6.3622Y-4.2677
X6.3701Y-3.1496
X6.378Y-3.0197
X6.3976Y-3.1496
X6.4055Y-3.0197
X6.4134Y-4.2677
X6.4606Y-4.1732
X6.4606Y-4.2677
X6.5118Y-4.1732
X6.5118Y-4.2677
X6.5591Y-4.1732
X6.5591Y-4.2677
X6.6063Y-4.1732
X6.6102Y-4.2677
X6.6181Y-3.0551
X6.6181Y-3.1496
X6.6575Y-4.1732
X6.6575Y-4.2677
X6.6693Y-3.0551
X6.6693Y-3.1496
X6.7047Y-4.1575
X6.7205Y-4.1457
X6.7205Y-4.1732
X6.7323Y-3.1929
X6.7323Y-3.2441
X6.7323Y-3.315
X6.7323Y-3.3386
X6.7323Y-3.3622
X6.7323Y-3.3858
X6.7323Y-3.4803
X6.7323Y-3.5276
X6.7323Y-3.5787
X6.7323Y-3.626
X6.7323Y-3.6772
X6.7323Y-3.7756
X6.7323Y-3.8228
X6.7323Y-3.874
X6.7323Y-3.9213
X6.7323Y-3.9724
X6.7323Y-4.0472
X6.7323Y-4.0709
X6.7323Y-4.0945
X6.7323Y-4.1181
X6.7362Y-4.1614
X6.7441Y-3.0276
X6.7441Y-3.0512
X6.7441Y-3.0748
X6.7441Y-3.0984
X6.8268Y-3.1929
X6.8268Y-3.2441
X6.8268Y-3.4803
X6.8268Y-3.5276
X6.8268Y-3.5787
X6.8268Y-3.626
X6.8268Y-3.6772
X6.8268Y-3.7244
X6.8268Y-3.7756
X6.8268Y-3.8228
X6.8268Y-3.874
X6.8268Y-3.9213
X6.8268Y-3.9724
X6.8504Y-3.3189
X6.8504Y-3.3583
X6.8504Y-3.3898
X6.8622Y-3.0276
X6.8622Y-3.0591
X6.8622Y-3.0945
X6.8622Y-4.0512
X6.8622Y-4.0748
X6.8622Y-4.0984
X6.8622Y-4.126
X6.8622Y-4.1929
X6.8622Y-4.2165
X6.8622Y-4.2402
X6.8622Y-4.2638
T4
X4.7047Y-2.874
X4.7047Y-3.2677
T5
X4.7047Y-2.5787
X4.7244Y-5.0
X5.5906Y-2.2835
X5.5906Y-2.7559
X5.5906Y-4.5669
X5.5906Y-5.0394
X6.8504Y-2.2835
X6.8504Y-2.7559
X6.8504Y-4.5669
X6.8504Y-5.0394
X8.189Y-2.3228
X8.189Y-5.0
T3
G00X4.5571Y-4.5591
M15
G01X4.5335Y-4.5591
M16
G05
G00X4.5571Y-4.811
M15
G01X4.5335Y-4.811
M16
G05
M30
